Pliska-Italic.ufo
<glyph name="quotedbl" format="2">
  <advance width="419"/>
  <unicode hex="0022"/>
  <outline>
    <contour>
      <point x="165" y="421" type="line"/>
      <point x="244.551" y="606.126" type="line" smooth="yes"/>
      <point x="251.096" y="621.357"/>
      <point x="253" y="632.138"/>
      <point x="253" y="637" type="curve" smooth="yes"/>
      <point x="253" y="653.373"/>
      <point x="238.574" y="666"/>
      <point x="219.87" y="666" type="curve" smooth="yes"/>
      <point x="191.309" y="666"/>
      <point x="169.736" y="649.271"/>
      <point x="167" y="625" type="curve" smooth="yes"/>
      <point x="144" y="421" type="line"/>
    </contour>
    <contour>
      <point x="344" y="421" type="line"/>
      <point x="423.551" y="606.126" type="line" smooth="yes"/>
      <point x="430.096" y="621.357"/>
      <point x="432" y="632.138"/>
      <point x="432" y="637" type="curve" smooth="yes"/>
      <point x="432" y="653.373"/>
      <point x="417.574" y="666"/>
      <point x="398.87" y="666" type="curve" smooth="yes"/>
      <point x="370.309" y="666"/>
      <point x="348.736" y="649.271"/>
      <point x="346" y="625" type="curve" smooth="yes"/>
      <point x="323" y="421" type="line"/>
    </contour>
  </outline>
</glyph>
<glyph name="numbersign" format="2">
  <advance width="500"/>
  <unicode hex="0023"/>
  <outline>
    <contour>
      <point x="465" y="267" type="line"/>
      <point x="370" y="267" type="line"/>
      <point x="424" y="410" type="line"/>
      <point x="529" y="410" type="line"/>
      <point x="540" y="464" type="line"/>
      <point x="444" y="464" type="line"/>
      <point x="524" y="676" type="line"/>
      <point x="463" y="676" type="line"/>
      <point x="383" y="464" type="line"/>
      <point x="253" y="464" type="line"/>
      <point x="333" y="676" type="line"/>
      <point x="272" y="676" type="line"/>
      <point x="192" y="464" type="line"/>
      <point x="87" y="464" type="line"/>
      <point x="76" y="410" type="line"/>
      <point x="172" y="410" type="line"/>
      <point x="118" y="267" type="line"/>
      <point x="13" y="267" type="line"/>
      <point x="2" y="213" type="line"/>
      <point x="97" y="213" type="line"/>
      <point x="17" y="0" type="line"/>
      <point x="79" y="0" type="line"/>
      <point x="158" y="213" type="line"/>
      <point x="288" y="213" type="line"/>
      <point x="208" y="0" type="line"/>
      <point x="270" y="0" type="line"/>
      <point x="349" y="213" type="line"/>
      <point x="454" y="213" type="line"/>
    </contour>
    <contour>
      <point x="363" y="410" type="line"/>
      <point x="309" y="267" type="line"/>
      <point x="179" y="267" type="line"/>
      <point x="233" y="410" type="line"/>
    </contour>
  </outline>
</glyph>
<glyph name="dollar" format="2">
  <advance width="500"/>
  <unicode hex="0024"/>
  <outline>
    <contour>
      <point x="282" y="420" type="line" smooth="yes"/>
      <point x="221.423" y="466.898"/>
      <point x="201" y="493"/>
      <point x="201" y="538" type="curve" smooth="yes"/>
      <point x="201" y="611.833"/>
      <point x="257.272" y="640.64"/>
      <point x="323.942" y="640.64" type="curve" smooth="yes"/>
      <point x="408.694" y="640.64"/>
      <point x="461.777" y="580.191"/>
      <point x="454" y="500" type="curve"/>
      <point x="469" y="498" type="line"/>
      <point x="497" y="612" type="line"/>
      <point x="451.978" y="644.36"/>
      <point x="382.983" y="667.578"/>
      <point x="327.615" y="667.578" type="curve" smooth="yes"/>
      <point x="229.144" y="667.578"/>
      <point x="123" y="627.705"/>
      <point x="123" y="513" type="curve" smooth="yes"/>
      <point x="123" y="417.557"/>
      <point x="197.377" y="387.923"/>
      <point x="257.761" y="334.158" type="curve" smooth="yes"/>
      <point x="295" y="301" type="line" smooth="yes"/>
      <point x="360.79" y="242.42"/>
      <point x="380" y="216"/>
      <point x="380" y="162" type="curve" smooth="yes"/>
      <point x="380" y="79"/>
      <point x="326.103" y="25"/>
      <point x="221" y="25" type="curve" smooth="yes"/>
      <point x="134.561" y="25"/>
      <point x="85.9805" y="78.9635"/>
      <point x="74.5969" y="187.625" type="curve"/>
      <point x="58" y="190" type="line"/>
      <point x="31" y="67" type="line"/>
      <point x="78.1646" y="27.6961"/>
      <point x="153.649" y="0.374897"/>
      <point x="214.797" y="0.374897" type="curve" smooth="yes"/>
      <point x="335.786" y="0.374897"/>
      <point x="455" y="48.2181"/>
      <point x="455" y="190" type="curve" smooth="yes"/>
      <point x="455" y="269"/>
      <point x="430.203" y="305.262"/>
      <point x="313" y="396" type="curve" smooth="yes"/>
    </contour>
    <contour>
      <point x="159" y="-89" type="line"/>
      <point x="194" y="-89" type="line"/>
      <point x="392" y="731" type="line"/>
      <point x="358" y="731" type="line"/>
    </contour>
  </outline>
  <guideline angle="352.405" x="454" y="137.038"/>
</glyph>
<glyph name="percent" format="2">
  <advance width="832"/>
  <unicode hex="0025"/>
  <outline>
    <contour>
      <point x="683" y="371" type="curve" smooth="yes"/>
      <point x="577" y="371"/>
      <point x="468" y="252"/>
      <point x="468" y="136" type="curve" smooth="yes"/>
      <point x="468" y="50"/>
      <point x="512" y="0"/>
      <point x="588" y="0" type="curve" smooth="yes"/>
      <point x="714.113" y="0"/>
      <point x="790" y="153.231"/>
      <point x="790" y="263" type="curve" smooth="yes"/>
      <point x="790" y="330"/>
      <point x="750" y="371"/>
    </contour>
    <contour>
      <point x="694" y="339" type="curve" smooth="yes"/>
      <point x="733" y="339"/>
      <point x="765" y="303"/>
      <point x="765" y="259" type="curve" smooth="yes"/>
      <point x="765" y="180.065"/>
      <point x="700.926" y="30"/>
      <point x="605" y="30" type="curve" smooth="yes"/>
      <point x="564" y="30"/>
      <point x="544" y="54"/>
      <point x="544" y="101" type="curve" smooth="yes"/>
      <point x="544" y="170.201"/>
      <point x="606.27" y="339"/>
    </contour>
    <contour>
      <point x="220" y="-13" type="line"/>
      <point x="267" y="-13" type="line"/>
      <point x="653" y="676" type="line"/>
      <point x="613" y="676" type="line"/>
      <point x="563" y="627"/>
      <point x="519" y="608"/>
      <point x="452" y="608" type="curve" smooth="yes"/>
      <point x="421.011" y="608"/>
      <point x="383.384" y="625.242"/>
      <point x="365" y="641" type="curve" smooth="yes"/>
      <point x="351" y="653"/>
      <point x="323" y="662"/>
      <point x="297" y="662" type="curve" smooth="yes"/>
      <point x="187" y="662"/>
      <point x="79" y="542"/>
      <point x="79" y="419" type="curve" smooth="yes"/>
      <point x="79" y="346"/>
      <point x="131" y="289"/>
      <point x="198" y="289" type="curve" smooth="yes"/>
      <point x="315.013" y="289"/>
      <point x="403" y="436.104"/>
      <point x="403" y="541" type="curve" smooth="yes"/>
      <point x="403" y="557.137"/>
      <point x="401.112" y="577.663"/>
      <point x="396" y="593" type="curve"/>
      <point x="416" y="585"/>
      <point x="431" y="583"/>
      <point x="458" y="583" type="curve" smooth="yes"/>
      <point x="504" y="583"/>
      <point x="528" y="590"/>
      <point x="570" y="613" type="curve"/>
    </contour>
    <contour>
      <point x="155" y="386" type="curve" smooth="yes"/>
      <point x="155" y="493"/>
      <point x="238" y="632"/>
      <point x="301" y="632" type="curve" smooth="yes"/>
      <point x="305" y="632"/>
      <point x="309" y="630"/>
      <point x="316" y="624" type="curve"/>
      <point x="332" y="611"/>
      <point x="341" y="607"/>
      <point x="368" y="600" type="curve"/>
      <point x="375" y="578"/>
      <point x="377" y="565"/>
      <point x="377" y="549" type="curve" smooth="yes"/>
      <point x="377" y="436"/>
      <point x="296" y="323"/>
      <point x="214" y="323" type="curve" smooth="yes"/>
      <point x="178" y="323"/>
      <point x="155" y="347"/>
    </contour>
  </outline>
</glyph>
<glyph name="ampersand" format="2">
  <advance width="777"/>
  <unicode hex="0026"/>
  <outline>
    <contour>
      <point x="76" y="140" type="curve" smooth="yes"/>
      <point x="76" y="43"/>
      <point x="147" y="-18"/>
      <point x="258" y="-18" type="curve" smooth="yes"/>
      <point x="321" y="-18"/>
      <point x="354" y="-5"/>
      <point x="457" y="61" type="curve"/>
      <point x="502" y="4"/>
      <point x="541" y="-18"/>
      <point x="594" y="-18" type="curve" smooth="yes"/>
      <point x="644" y="-18"/>
      <point x="680" y="1"/>
      <point x="723" y="50" type="curve"/>
      <point x="712" y="61" type="line"/>
      <point x="683" y="39"/>
      <point x="665" y="31"/>
      <point x="642" y="31" type="curve" smooth="yes"/>
      <point x="595" y="31"/>
      <point x="560" y="58"/>
      <point x="520" y="125" type="curve"/>
      <point x="607" y="247" type="line" smooth="yes"/>
      <point x="659.659" y="320.844"/>
      <point x="665" y="328"/>
      <point x="715" y="333" type="curve"/>
      <point x="715" y="350" type="line"/>
      <point x="530" y="350" type="line"/>
      <point x="530" y="331" type="line"/>
      <point x="569" y="328"/>
      <point x="580" y="321"/>
      <point x="580" y="299" type="curve" smooth="yes"/>
      <point x="580" y="265"/>
      <point x="564" y="236"/>
      <point x="501" y="160" type="curve"/>
      <point x="469" y="209"/>
      <point x="438" y="295"/>
      <point x="414" y="397" type="curve"/>
      <point x="479.101" y="429.55"/>
      <point x="586" y="486.511"/>
      <point x="586" y="572" type="curve" smooth="yes"/>
      <point x="586" y="625"/>
      <point x="542" y="666"/>
      <point x="484" y="666" type="curve" smooth="yes"/>
      <point x="390" y="666"/>
      <point x="324" y="581"/>
      <point x="324" y="460" type="curve" smooth="yes"/>
      <point x="324" y="432.589"/>
      <point x="326.146" y="405.15"/>
      <point x="331" y="378" type="curve"/>
      <point x="179.77" y="323.224"/>
      <point x="76" y="275.097"/>
    </contour>
    <contour>
      <point x="170" y="164" type="curve" smooth="yes"/>
      <point x="170" y="236"/>
      <point x="233" y="307"/>
      <point x="333" y="345" type="curve"/>
      <point x="369" y="218"/>
      <point x="404" y="133"/>
      <point x="438" y="90" type="curve"/>
      <point x="391" y="51"/>
      <point x="348" y="34"/>
      <point x="298" y="34" type="curve" smooth="yes"/>
      <point x="225" y="34"/>
      <point x="170" y="91"/>
    </contour>
    <contour>
      <point x="410" y="428" type="curve"/>
      <point x="406" y="458"/>
      <point x="405" y="478"/>
      <point x="405" y="504" type="curve" smooth="yes"/>
      <point x="405" y="592"/>
      <point x="427" y="634"/>
      <point x="472" y="634" type="curve" smooth="yes"/>
      <point x="504" y="634"/>
      <point x="517" y="617"/>
      <point x="517" y="577" type="curve" smooth="yes"/>
      <point x="517" y="495.621"/>
      <point x="470.34" y="466.398"/>
    </contour>
  </outline>
</glyph>
<glyph name="quotesingle" format="2">
  <advance width="213"/>
  <unicode hex="0027"/>
  <outline>
    <contour>
      <point x="153" y="421" type="line"/>
      <point x="232.551" y="606.126" type="line" smooth="yes"/>
      <point x="239.096" y="621.357"/>
      <point x="241" y="632.138"/>
      <point x="241" y="637" type="curve" smooth="yes"/>
      <point x="241" y="653.373"/>
      <point x="226.574" y="666"/>
      <point x="207.87" y="666" type="curve" smooth="yes"/>
      <point x="179.309" y="666"/>
      <point x="157.736" y="649.271"/>
      <point x="155" y="625" type="curve" smooth="yes"/>
      <point x="132" y="421" type="line"/>
    </contour>
  </outline>
</glyph>
<glyph name="parenleft" format="2">
  <advance width="332"/>
  <unicode hex="0028"/>
  <outline>
    <contour>
      <point x="141" y="-181" type="curve"/>
      <point x="159" y="-175" type="line"/>
      <point x="123" y="-74"/>
      <point x="111" y="-11"/>
      <point x="111" y="81.7898" type="curve" smooth="yes"/>
      <point x="111" y="290.107"/>
      <point x="171.483" y="503.859"/>
      <point x="315" y="654" type="curve"/>
      <point x="302" y="669" type="line"/>
      <point x="145.437" y="526.889"/>
      <point x="42" y="397.683"/>
      <point x="42" y="180" type="curve" smooth="yes"/>
      <point x="42" y="37.251"/>
      <point x="74.497" y="-59.0778"/>
    </contour>
  </outline>
</glyph>
<glyph name="parenright" format="2">
  <advance width="332"/>
  <unicode hex="0029"/>
  <outline>
    <contour>
      <point x="29" y="-180" type="line"/>
      <point x="182.442" y="-46.3568"/>
      <point x="289" y="93.992"/>
      <point x="289" y="304" type="curve" smooth="yes"/>
      <point x="289" y="442.282"/>
      <point x="257.35" y="549.267"/>
      <point x="190" y="669" type="curve"/>
      <point x="171" y="664" type="line"/>
      <point x="205" y="583"/>
      <point x="220" y="502"/>
      <point x="220" y="402" type="curve" smooth="yes"/>
      <point x="220" y="194.917"/>
      <point x="160.166" y="-13.7443"/>
      <point x="16" y="-165" type="curve"/>
    </contour>
  </outline>
</glyph>
<glyph name="asterisk" format="2">
  <advance width="500"/>
  <unicode hex="002A"/>
  <outline>
    <contour>
      <point x="128" y="377" type="curve" smooth="yes"/>
      <point x="128" y="357"/>
      <point x="144" y="340"/>
      <point x="163" y="340" type="curve" smooth="yes"/>
      <point x="180" y="340"/>
      <point x="197" y="351"/>
      <point x="213" y="371" type="curve" smooth="yes"/>
      <point x="240" y="405"/>
      <point x="253.661" y="417.565"/>
      <point x="285" y="436" type="curve" smooth="yes"/>
      <point x="301.976" y="446" type="line"/>
      <point x="301.976" y="421.998" type="line" smooth="yes"/>
      <point x="301.976" y="391.434"/>
      <point x="293.706" y="362.294"/>
      <point x="283" y="334" type="curve" smooth="yes"/>
      <point x="276" y="314"/>
      <point x="273" y="302"/>
      <point x="273" y="293" type="curve" smooth="yes"/>
      <point x="273" y="271"/>
      <point x="288" y="255"/>
      <point x="308" y="255" type="curve" smooth="yes"/>
      <point x="331" y="255"/>
      <point x="347" y="272"/>
      <point x="347" y="295" type="curve" smooth="yes"/>
      <point x="347" y="303"/>
      <point x="345" y="311"/>
      <point x="339" y="329" type="curve" smooth="yes"/>
      <point x="326.338" y="364.453"/>
      <point x="319.358" y="385.613"/>
      <point x="319.358" y="423.283" type="curve" smooth="yes"/>
      <point x="319.358" y="446" type="line"/>
      <point x="326" y="442" type="line" smooth="yes"/>
      <point x="359" y="423"/>
      <point x="382" y="403"/>
      <point x="408" y="371" type="curve" smooth="yes"/>
      <point x="427" y="347"/>
      <point x="439" y="339"/>
      <point x="454" y="339" type="curve" smooth="yes"/>
      <point x="475" y="339"/>
      <point x="492" y="356"/>
      <point x="492" y="378" type="curve" smooth="yes"/>
      <point x="492" y="401"/>
      <point x="475" y="413"/>
      <point x="431" y="420" type="curve" smooth="yes"/>
      <point x="389.973" y="427.326"/>
      <point x="376.099" y="434.301"/>
      <point x="339.593" y="453.047" type="curve" smooth="yes"/>
      <point x="328" y="459" type="line"/>
      <point x="339.972" y="466.398" type="line" smooth="yes"/>
      <point x="374.44" y="487.695"/>
      <point x="392.617" y="493.786"/>
      <point x="435" y="501" type="curve" smooth="yes"/>
      <point x="477" y="508"/>
      <point x="492" y="519"/>
      <point x="492" y="545" type="curve" smooth="yes"/>
      <point x="492" y="567"/>
      <point x="476" y="582"/>
      <point x="454" y="582" type="curve" smooth="yes"/>
      <point x="441" y="582"/>
      <point x="433" y="578"/>
      <point x="418" y="561" type="curve" smooth="yes"/>
      <point x="373.085" y="512.562"/>
      <point x="363.961" y="503.515"/>
      <point x="332.911" y="482.441" type="curve" smooth="yes"/>
      <point x="319" y="473" type="line"/>
      <point x="319" y="500" type="line" smooth="yes"/>
      <point x="319" y="522"/>
      <point x="323.598" y="542.795"/>
      <point x="335" y="577" type="curve" smooth="yes"/>
      <point x="343.602" y="602.807"/>
      <point x="346" y="616"/>
      <point x="346" y="627" type="curve" smooth="yes"/>
      <point x="346" y="650"/>
      <point x="331" y="666"/>
      <point x="310" y="666" type="curve" smooth="yes"/>
      <point x="288" y="666"/>
      <point x="275" y="651"/>
      <point x="275" y="626" type="curve" smooth="yes"/>
      <point x="275" y="617"/>
      <point x="277.58" y="608.185"/>
      <point x="284" y="587" type="curve" smooth="yes"/>
      <point x="295.061" y="550.499"/>
      <point x="300.802" y="528.379"/>
      <point x="300.802" y="498.174" type="curve" smooth="yes"/>
      <point x="300.802" y="476" type="line"/>
      <point x="288.274" y="483.331" type="line" smooth="yes"/>
      <point x="257.02" y="501.621"/>
      <point x="238.369" y="519.085"/>
      <point x="210" y="551" type="curve" smooth="yes"/>
      <point x="190" y="574"/>
      <point x="179" y="581"/>
      <point x="163" y="581" type="curve" smooth="yes"/>
      <point x="143" y="581"/>
      <point x="128" y="566"/>
      <point x="128" y="546" type="curve" smooth="yes"/>
      <point x="128" y="519"/>
      <point x="143" y="508"/>
      <point x="189" y="500" type="curve" smooth="yes"/>
      <point x="226" y="493"/>
      <point x="257.553" y="482.261"/>
      <point x="282" y="468" type="curve" smooth="yes"/>
      <point x="294" y="461" type="line"/>
      <point x="274.898" y="449.804" type="line" smooth="yes"/>
      <point x="244.777" y="432.151"/>
      <point x="225.57" y="426.708"/>
      <point x="187" y="420" type="curve" smooth="yes"/>
      <point x="145" y="413"/>
      <point x="128" y="400"/>
    </contour>
  </outline>
</glyph>
<glyph name="slash" format="2">
  <advance width="277"/>
  <unicode hex="002F"/>
  <outline>
    <contour>
      <point x="313" y="666" type="line"/>
      <point x="-65" y="-18" type="line"/>
      <point x="8" y="-18" type="line"/>
      <point x="386" y="666" type="line"/>
    </contour>
  </outline>
</glyph>
<glyph name="zero" format="2">
  <advance width="500"/>
  <unicode hex="0030"/>
  <outline>
    <contour>
      <point x="32" y="227.581" type="curve" smooth="yes"/>
      <point x="32" y="81.1429"/>
      <point x="99.6878" y="-7"/>
      <point x="196.208" y="-7" type="curve" smooth="yes"/>
      <point x="347.04" y="-7"/>
      <point x="497" y="207.355"/>
      <point x="497" y="433.555" type="curve" smooth="yes"/>
      <point x="497" y="578.906"/>
      <point x="435.647" y="676"/>
      <point x="335.672" y="676" type="curve" smooth="yes"/>
      <point x="180.454" y="676"/>
      <point x="32" y="443.466"/>
    </contour>
    <contour>
      <point x="110" y="174.74" type="curve" smooth="yes"/>
      <point x="110" y="370.355"/>
      <point x="235.527" y="648"/>
      <point x="349.761" y="648" type="curve" smooth="yes"/>
      <point x="419" y="648"/>
      <point x="419" y="546"/>
      <point x="419" y="516" type="curve" smooth="yes"/>
      <point x="419" y="277.75"/>
      <point x="304.145" y="21"/>
      <point x="193.65" y="21" type="curve" smooth="yes"/>
      <point x="143.841" y="21"/>
      <point x="110" y="73.1724"/>
    </contour>
  </outline>
</glyph>
<glyph name="one" format="2">
  <advance width="500"/>
  <unicode hex="0031"/>
  <outline>
    <contour>
      <point x="49" y="0" type="line"/>
      <point x="328" y="0" type="line"/>
      <point x="328" y="14.9219" type="line"/>
      <point x="313.886" y="14.9219" type="line" smooth="yes"/>
      <point x="262.274" y="14.9219"/>
      <point x="243" y="24.195"/>
      <point x="243" y="50.8454" type="curve" smooth="yes"/>
      <point x="243" y="56.4383"/>
      <point x="243.849" y="62.3815"/>
      <point x="260" y="121" type="curve" smooth="yes"/>
      <point x="412.445" y="676.846" type="line"/>
      <point x="374.907" y="666.412"/>
      <point x="258.032" y="642.721"/>
      <point x="211" y="638" type="curve"/>
      <point x="211" y="623" type="line"/>
      <point x="229.81" y="623.66"/>
      <point x="248.929" y="625"/>
      <point x="268" y="625" type="curve" smooth="yes"/>
      <point x="277" y="625"/>
      <point x="306" y="625"/>
      <point x="306" y="593" type="curve" smooth="yes"/>
      <point x="306" y="585"/>
      <point x="304.398" y="579.246"/>
      <point x="299" y="560" type="curve" smooth="yes"/>
      <point x="161" y="68" type="line" smooth="yes"/>
      <point x="152.24" y="36.7684"/>
      <point x="120.389" y="21.4116"/>
      <point x="49" y="14" type="curve"/>
    </contour>
  </outline>
</glyph>
<glyph name="two" format="2">
  <advance width="500"/>
  <unicode hex="0032"/>
  <outline>
    <contour>
      <point x="14" y="0" type="line"/>
      <point x="368.977" y="0" type="line"/>
      <point x="417.814" y="132" type="line"/>
      <point x="401.209" y="139" type="line"/>
      <point x="379.045" y="90.946"/>
      <point x="355.746" y="76"/>
      <point x="303" y="76" type="curve" smooth="yes"/>
      <point x="107.285" y="76" type="line"/>
      <point x="305" y="273" type="line" smooth="yes"/>
      <point x="423.598" y="391.169"/>
      <point x="452" y="439.101"/>
      <point x="452" y="501.874" type="curve" smooth="yes"/>
      <point x="452" y="601.897"/>
      <point x="379.886" y="676"/>
      <point x="290.793" y="676" type="curve" smooth="yes"/>
      <point x="204.094" y="676"/>
      <point x="113.093" y="605.825"/>
      <point x="82" y="516" type="curve"/>
      <point x="103" y="509" type="line"/>
      <point x="117" y="534"/>
      <point x="155" y="603"/>
      <point x="239.981" y="603" type="curve" smooth="yes"/>
      <point x="313.873" y="603"/>
      <point x="368" y="550.833"/>
      <point x="368" y="484.222" type="curve" smooth="yes"/>
      <point x="368" y="422.333"/>
      <point x="321.276" y="344.761"/>
      <point x="224" y="241" type="curve" smooth="yes"/>
      <point x="14" y="17" type="line"/>
    </contour>
  </outline>
</glyph>
<glyph name="three" format="2">
  <advance width="500"/>
  <unicode hex="0033"/>
  <outline>
    <contour>
      <point x="17" y="52.216" type="curve" smooth="yes"/>
      <point x="17" y="13.115"/>
      <point x="58.0254" y="-7"/>
      <point x="125.151" y="-7" type="curve" smooth="yes"/>
      <point x="284.045" y="-7"/>
      <point x="405" y="105.708"/>
      <point x="405" y="247.528" type="curve" smooth="yes"/>
      <point x="405" y="323.61"/>
      <point x="370.189" y="378.76"/>
      <point x="312" y="398" type="curve"/>
      <point x="312" y="401" type="line"/>
      <point x="416.423" y="429.185"/>
      <point x="465" y="474.916"/>
      <point x="465" y="545.037" type="curve" smooth="yes"/>
      <point x="465" y="624.178"/>
      <point x="404.472" y="676"/>
      <point x="331.482" y="676" type="curve" smooth="yes"/>
      <point x="259.712" y="676"/>
      <point x="187.365" y="628.076"/>
      <point x="164" y="572" type="curve"/>
      <point x="180" y="567" type="line"/>
      <point x="195" y="587"/>
      <point x="230" y="634"/>
      <point x="290.181" y="634" type="curve" smooth="yes"/>
      <point x="343.385" y="634"/>
      <point x="378" y="596.374"/>
      <point x="378" y="544.331" type="curve" smooth="yes"/>
      <point x="378" y="461.272"/>
      <point x="288.374" y="397.632"/>
      <point x="141" y="377" type="curve"/>
      <point x="142" y="361" type="line"/>
      <point x="149.46" y="361.539"/>
      <point x="156.746" y="361.808"/>
      <point x="163.834" y="361.808" type="curve" smooth="yes"/>
      <point x="269.634" y="361.808"/>
      <point x="327" y="301.752"/>
      <point x="327" y="205.588" type="curve" smooth="yes"/>
      <point x="327" y="106.75"/>
      <point x="266.4" y="29"/>
      <point x="201.109" y="29" type="curve" smooth="yes"/>
      <point x="143" y="29"/>
      <point x="110" y="91"/>
      <point x="57.4477" y="91" type="curve" smooth="yes"/>
      <point x="32.8462" y="91"/>
      <point x="17" y="77.4128"/>
    </contour>
  </outline>
</glyph>
<glyph name="four" format="2">
  <advance width="500"/>
  <unicode hex="0034"/>
  <outline>
    <contour>
      <point x="1" y="178" type="line"/>
      <point x="263" y="178" type="line"/>
      <point x="214" y="0" type="line"/>
      <point x="293" y="0" type="line"/>
      <point x="339" y="176" type="line"/>
      <point x="439" y="176" type="line"/>
      <point x="453" y="241" type="line"/>
      <point x="358" y="241" type="line"/>
      <point x="479" y="676" type="line"/>
      <point x="438" y="676" type="line"/>
      <point x="21" y="245" type="line"/>
    </contour>
    <contour>
      <point x="61.4087" y="241" type="line"/>
      <point x="374.813" y="569.081" type="line"/>
      <point x="277" y="241" type="line"/>
    </contour>
  </outline>
</glyph>
<glyph name="five" format="2">
  <advance width="500"/>
  <unicode hex="0035"/>
  <outline>
    <contour>
      <point x="238" y="595" type="line"/>
      <point x="468" y="595" type="line"/>
      <point x="491" y="666" type="line"/>
      <point x="235" y="666" type="line"/>
      <point x="131" y="448" type="line"/>
      <point x="131" y="433" type="line"/>
      <point x="247" y="408"/>
      <point x="350" y="386"/>
      <point x="350" y="253.37" type="curve" smooth="yes"/>
      <point x="350" y="135.054"/>
      <point x="268.033" y="35"/>
      <point x="185.897" y="35" type="curve" smooth="yes"/>
      <point x="125" y="35"/>
      <point x="100" y="90"/>
      <point x="55.6727" y="90" type="curve" smooth="yes"/>
      <point x="32.0391" y="90"/>
      <point x="15" y="74.3656"/>
      <point x="15" y="51.1283" type="curve" smooth="yes"/>
      <point x="15" y="15.0637"/>
      <point x="56.0427" y="-7"/>
      <point x="123.621" y="-7" type="curve" smooth="yes"/>
      <point x="287.567" y="-7"/>
      <point x="419" y="122.86"/>
      <point x="419" y="278.965" type="curve" smooth="yes"/>
      <point x="419" y="399.317"/>
      <point x="340.878" y="478.62"/>
      <point x="199" y="507" type="curve"/>
    </contour>
  </outline>
</glyph>
<glyph name="six" format="2">
  <advance width="500"/>
  <unicode hex="0036"/>
  <outline>
    <contour>
      <point x="30" y="212.283" type="curve" smooth="yes"/>
      <point x="30" y="74.9649"/>
      <point x="104.5" y="-7"/>
      <point x="211.032" y="-7" type="curve" smooth="yes"/>
      <point x="345.155" y="-7"/>
      <point x="461" y="122.921"/>
      <point x="461" y="262.569" type="curve" smooth="yes"/>
      <point x="461" y="370.871"/>
      <point x="391.326" y="447"/>
      <point x="294.4" y="447" type="curve" smooth="yes"/>
      <point x="263.33" y="447"/>
      <point x="230.428" y="439.178"/>
      <point x="204.271" y="426" type="curve"/>
      <point x="200.301" y="428" type="line"/>
      <point x="252.99" y="538.6"/>
      <point x="407.43" y="655.141"/>
      <point x="521" y="670" type="curve"/>
      <point x="520" y="686" type="line"/>
      <point x="252.532" y="669.273"/>
      <point x="30" y="449.61"/>
    </contour>
    <contour>
      <point x="108" y="157" type="curve" smooth="yes"/>
      <point x="108" y="283.946"/>
      <point x="186.28" y="411"/>
      <point x="275.64" y="411" type="curve" smooth="yes"/>
      <point x="331.095" y="411"/>
      <point x="372" y="362.068"/>
      <point x="372" y="272.942" type="curve" smooth="yes"/>
      <point x="372" y="146.51"/>
      <point x="289.685" y="19"/>
      <point x="195.898" y="19" type="curve" smooth="yes"/>
      <point x="108" y="19"/>
      <point x="108" y="131"/>
    </contour>
  </outline>
</glyph>
<glyph name="seven" format="2">
  <advance width="500"/>
  <unicode hex="0037"/>
  <outline>
    <contour>
      <point x="79" y="-8" type="line"/>
      <point x="149" y="-8" type="line"/>
      <point x="537" y="656" type="line"/>
      <point x="531" y="666" type="line"/>
      <point x="156" y="666" type="line"/>
      <point x="75" y="530" type="line"/>
      <point x="89" y="521" type="line"/>
      <point x="137" y="578"/>
      <point x="164" y="593"/>
      <point x="222" y="593" type="curve" smooth="yes"/>
      <point x="444" y="593" type="line"/>
      <point x="446" y="590" type="line"/>
    </contour>
  </outline>
</glyph>
<glyph name="eight" format="2">
  <advance width="500"/>
  <unicode hex="0038"/>
  <outline>
    <contour>
      <point x="35.9102" y="171.22" type="curve" smooth="yes"/>
      <point x="35.9102" y="71.0193"/>
      <point x="99.9622" y="-7"/>
      <point x="223.609" y="-7" type="curve" smooth="yes"/>
      <point x="346.747" y="-7"/>
      <point x="444" y="69.8032"/>
      <point x="444" y="176.854" type="curve" smooth="yes"/>
      <point x="444" y="239.004"/>
      <point x="411.277" y="300.04"/>
      <point x="332.676" y="376.424" type="curve" smooth="yes"/>
      <point x="303.833" y="404.813" type="line" smooth="yes"/>
      <point x="237.419" y="470.179"/>
      <point x="216" y="505.962"/>
      <point x="216" y="550.561" type="curve" smooth="yes"/>
      <point x="216" y="612.136"/>
      <point x="256.829" y="653"/>
      <point x="315.929" y="653" type="curve" smooth="yes"/>
      <point x="381.185" y="653"/>
      <point x="425" y="603.688"/>
      <point x="425" y="531.009" type="curve" smooth="yes"/>
      <point x="425" y="467.661"/>
      <point x="391.713" y="432.191"/>
      <point x="297.645" y="393.297" type="curve"/>
      <point x="318.717" y="379.254" type="line"/>
      <point x="430.129" y="406.917"/>
      <point x="493" y="464.444"/>
      <point x="493" y="537.784" type="curve" smooth="yes"/>
      <point x="493" y="618.178"/>
      <point x="417.33" y="676"/>
      <point x="314.844" y="676" type="curve" smooth="yes"/>
      <point x="210.172" y="676"/>
      <point x="138" y="614.381"/>
      <point x="138" y="525.38" type="curve" smooth="yes"/>
      <point x="138" y="471.704"/>
      <point x="164.251" y="423.839"/>
      <point x="227.796" y="362.83" type="curve" smooth="yes"/>
      <point x="246.808" y="344.484" type="line" smooth="yes"/>
      <point x="332.408" y="261.885"/>
      <point x="366" y="209.04"/>
      <point x="366" y="156.98" type="curve" smooth="yes"/>
      <point x="366" y="63.1731"/>
      <point x="316.317" y="16"/>
      <point x="231.012" y="16" type="curve" smooth="yes"/>
      <point x="160.105" y="16"/>
      <point x="103.91" y="81.0863"/>
      <point x="103.91" y="160.696" type="curve" smooth="yes"/>
      <point x="103.91" y="248.111"/>
      <point x="171.665" y="324.811"/>
      <point x="250.134" y="348.117" type="curve"/>
      <point x="233.549" y="363.847" type="line"/>
      <point x="120.238" y="336.467"/>
      <point x="35.9102" y="258.441"/>
    </contour>
  </outline>
</glyph>
<glyph name="nine" format="2">
  <advance width="500"/>
  <unicode hex="0039"/>
  <outline>
    <contour>
      <point x="23" y="-17" type="line"/>
      <point x="289.127" y="14.8291"/>
      <point x="492" y="220.77"/>
      <point x="492" y="453.161" type="curve" smooth="yes"/>
      <point x="492" y="589.67"/>
      <point x="421.998" y="676"/>
      <point x="316.788" y="676" type="curve" smooth="yes"/>
      <point x="189.202" y="676"/>
      <point x="69" y="549.045"/>
      <point x="69" y="405.05" type="curve" smooth="yes"/>
      <point x="69" y="303.149"/>
      <point x="129.196" y="229"/>
      <point x="218.572" y="229" type="curve" smooth="yes"/>
      <point x="258.978" y="229"/>
      <point x="302.084" y="244.154"/>
      <point x="348" y="274" type="curve"/>
      <point x="352" y="272" type="line"/>
      <point x="327.229" y="175.169"/>
      <point x="139.972" y="20.9238"/>
      <point x="23" y="1" type="curve"/>
    </contour>
    <contour>
      <point x="157" y="422.934" type="curve" smooth="yes"/>
      <point x="157" y="541.426"/>
      <point x="229.234" y="650"/>
      <point x="323.241" y="650" type="curve" smooth="yes"/>
      <point x="417" y="650"/>
      <point x="417" y="542"/>
      <point x="417" y="503" type="curve" smooth="yes"/>
      <point x="417" y="367.853"/>
      <point x="354.922" y="275"/>
      <point x="268.193" y="275" type="curve" smooth="yes"/>
      <point x="201.46" y="275"/>
      <point x="157" y="329.973"/>
    </contour>
  </outline>
</glyph>
<glyph name="semicolon" format="2">
  <advance width="332"/>
  <unicode hex="003B"/>
  <outline>
    <contour>
      <point x="36" y="-129" type="line"/>
      <point x="120" y="-82"/>
      <point x="166" y="-26"/>
      <point x="166" y="30" type="curve" smooth="yes"/>
      <point x="166" y="70"/>
      <point x="141" y="101"/>
      <point x="108" y="101" type="curve" smooth="yes"/>
      <point x="79" y="101"/>
      <point x="57" y="81"/>
      <point x="57" y="54" type="curve" smooth="yes"/>
      <point x="57" y="37"/>
      <point x="63" y="26"/>
      <point x="82" y="9" type="curve" smooth="yes"/>
      <point x="97" y="-5"/>
      <point x="102" y="-13"/>
      <point x="102" y="-23" type="curve" smooth="yes"/>
      <point x="102" y="-50"/>
      <point x="79" y="-77"/>
      <point x="27" y="-112" type="curve"/>
    </contour>
    <contour>
      <point x="205" y="441" type="curve" smooth="yes"/>
      <point x="174" y="441"/>
      <point x="150" y="416"/>
      <point x="150" y="384" type="curve" smooth="yes"/>
      <point x="150" y="354"/>
      <point x="174" y="330"/>
      <point x="204" y="330" type="curve" smooth="yes"/>
      <point x="236" y="330"/>
      <point x="261" y="354"/>
      <point x="261" y="384" type="curve" smooth="yes"/>
      <point x="261" y="416"/>
      <point x="236" y="441"/>
    </contour>
  </outline>
</glyph>
<glyph name="question" format="2">
  <advance width="500"/>
  <unicode hex="003F"/>
  <outline>
    <contour>
      <point x="199" y="176" type="curve"/>
      <point x="216" y="174" type="line"/>
      <point x="223" y="203" type="line" smooth="yes"/>
      <point x="236.146" y="257.463"/>
      <point x="264.585" y="294.258"/>
      <point x="337.556" y="354" type="curve" smooth="yes"/>
      <point x="363.778" y="375.469" type="line" smooth="yes"/>
      <point x="451.099" y="446.96"/>
      <point x="472" y="476.33"/>
      <point x="472" y="527.399" type="curve" smooth="yes"/>
      <point x="472" y="611.113"/>
      <point x="415.838" y="664"/>
      <point x="325.018" y="664" type="curve" smooth="yes"/>
      <point x="242.069" y="664"/>
      <point x="184" y="619.882"/>
      <point x="184" y="557.123" type="curve" smooth="yes"/>
      <point x="184" y="525.693"/>
      <point x="198.564" y="507"/>
      <point x="223.481" y="507" type="curve" smooth="yes"/>
      <point x="245.643" y="507"/>
      <point x="262" y="521.788"/>
      <point x="262" y="542.623" type="curve" smooth="yes"/>
      <point x="262" y="549.417"/>
      <point x="260.261" y="555.684"/>
      <point x="254.754" y="569.192" type="curve" smooth="yes"/>
      <point x="249.322" y="582.517"/>
      <point x="248" y="587.707"/>
      <point x="248" y="594.524" type="curve" smooth="yes"/>
      <point x="248" y="624.525"/>
      <point x="273.615" y="643"/>
      <point x="314.991" y="643" type="curve" smooth="yes"/>
      <point x="368.779" y="643"/>
      <point x="398" y="611.777"/>
      <point x="398" y="554.713" type="curve" smooth="yes"/>
      <point x="398" y="506.952"/>
      <point x="377.53" y="466.256"/>
      <point x="323.821" y="406.885" type="curve" smooth="yes"/>
      <point x="310.356" y="392" type="line" smooth="yes"/>
      <point x="227.467" y="300.372"/>
      <point x="216.303" y="276.765"/>
    </contour>
    <contour>
      <point x="132" y="40.1005" type="curve" smooth="yes"/>
      <point x="132" y="11.2471"/>
      <point x="154.758" y="-12"/>
      <point x="182.819" y="-12" type="curve" smooth="yes"/>
      <point x="211.81" y="-12"/>
      <point x="237" y="12.8132"/>
      <point x="237" y="41.3065" type="curve" smooth="yes"/>
      <point x="237" y="69.2911"/>
      <point x="212.702" y="93"/>
      <point x="183.991" y="93" type="curve" smooth="yes"/>
      <point x="155.274" y="93"/>
      <point x="132" y="69.2788"/>
    </contour>
  </outline>
</glyph>
<glyph name="at" format="2">
  <advance width="919"/>
  <unicode hex="0040"/>
  <outline>
    <contour>
      <point x="587" y="449.052" type="line"/>
      <point x="565.19" y="489.646"/>
      <point x="551.285" y="500"/>
      <point x="520.599" y="500" type="curve" smooth="yes"/>
      <point x="417.282" y="500"/>
      <point x="321" y="382.629"/>
      <point x="321" y="264.337" type="curve" smooth="yes"/>
      <point x="321" y="189.322"/>
      <point x="359.719" y="139"/>
      <point x="413.514" y="139" type="curve" smooth="yes"/>
      <point x="453.148" y="139"/>
      <point x="498.011" y="166.314"/>
      <point x="533" y="211.789" type="curve"/>
      <point x="538.993" y="167.052"/>
      <point x="574.943" y="138"/>
      <point x="624.278" y="138" type="curve" smooth="yes"/>
      <point x="720.852" y="138"/>
      <point x="806" y="249.319"/>
      <point x="806" y="375.541" type="curve" smooth="yes"/>
      <point x="806" y="538.756"/>
      <point x="663.627" y="666"/>
      <point x="480.356" y="666" type="curve" smooth="yes"/>
      <point x="279.055" y="666"/>
      <point x="118" y="512.486"/>
      <point x="118" y="320.83" type="curve" smooth="yes"/>
      <point x="118" y="128.809"/>
      <point x="279.67" y="-18"/>
      <point x="489.543" y="-18" type="curve" smooth="yes"/>
      <point x="554.805" y="-18"/>
      <point x="606.555" y="-3.80396"/>
      <point x="698" y="39" type="curve"/>
      <point x="686" y="68" type="line"/>
      <point x="609.425" y="33.6394"/>
      <point x="560.072" y="21"/>
      <point x="502.148" y="21" type="curve" smooth="yes"/>
      <point x="322.719" y="21"/>
      <point x="202" y="142.282"/>
      <point x="202" y="323.235" type="curve" smooth="yes"/>
      <point x="202" y="502.016"/>
      <point x="319.839" y="633"/>
      <point x="481.332" y="633" type="curve" smooth="yes"/>
      <point x="634.681" y="633"/>
      <point x="766" y="514.893"/>
      <point x="766" y="368.944" type="curve" smooth="yes"/>
      <point x="766" y="270.068"/>
      <point x="705.728" y="171"/>
      <point x="639.004" y="171" type="curve" smooth="yes"/>
      <point x="613.192" y="171"/>
      <point x="598" y="185.824"/>
      <point x="598" y="212.505" type="curve" smooth="yes"/>
      <point x="598" y="220.401"/>
      <point x="599.331" y="229.185"/>
      <point x="601" y="235.615" type="curve" smooth="yes"/>
      <point x="666" y="486" type="line"/>
      <point x="597" y="486" type="line"/>
    </contour>
    <contour>
      <point x="523.745" y="456.137" type="curve" smooth="yes"/>
      <point x="552.451" y="456.137"/>
      <point x="570.178" y="435.673"/>
      <point x="570.178" y="384.176" type="curve" smooth="yes"/>
      <point x="570.178" y="285.962"/>
      <point x="505.699" y="183"/>
      <point x="446.777" y="183" type="curve" smooth="yes"/>
      <point x="414.178" y="183"/>
      <point x="392" y="214.514"/>
      <point x="392" y="265.485" type="curve" smooth="yes"/>
      <point x="392" y="354.607"/>
      <point x="459.806" y="456.137"/>
    </contour>
  </outline>
</glyph>
<glyph name="A" format="2">
  <advance width="630"/>
  <unicode hex="0041"/>
  <anchor x="408.651" y="704" name="top"/>
  <anchor x="397.547" y="636.752" name="t.ring"/>
  <anchor x="425" y="760" name="macron"/>
  <anchor x="228.919" y="-70" name="bottom"/>
  <anchor x="465.495" y="10" name="ogonek"/>
  <anchor x="228.919" y="-70" name="b.ring"/>
  <anchor x="256" y="677" name="t.tonos"/>
  <anchor x="408.651" y="703.916" name="t.hook"/>
  <anchor x="293" y="722" name="gr.diacritics"/>
  <anchor x="185" y="-50" name="b.ypogegrammeni"/>
  <outline>
    <contour>
      <point x="-31" y="0" type="line"/>
      <point x="156" y="0" type="line"/>
      <point x="156" y="16" type="line"/>
      <point x="105" y="21"/>
      <point x="97" y="26"/>
      <point x="97" y="51" type="curve" smooth="yes"/>
      <point x="97" y="70"/>
      <point x="98.7147" y="79.6736"/>
      <point x="117" y="113" type="curve" smooth="yes"/>
      <point x="345" y="522" type="line"/>
      <point x="414" y="95" type="line" smooth="yes"/>
      <point x="415.433" y="86.0588"/>
      <point x="416" y="77"/>
      <point x="416" y="69" type="curve" smooth="yes"/>
      <point x="416" y="31"/>
      <point x="402" y="22"/>
      <point x="338" y="16" type="curve"/>
      <point x="338" y="0" type="line"/>
      <point x="584" y="0" type="line"/>
      <point x="584" y="16" type="line"/>
      <point x="527" y="21"/>
      <point x="521" y="29"/>
      <point x="508" y="102" type="curve" smooth="yes"/>
      <point x="414" y="668" type="line"/>
      <point x="388" y="668" type="line"/>
      <point x="103" y="168" type="line" smooth="yes"/>
      <point x="34" y="47"/>
      <point x="8" y="32"/>
      <point x="-31" y="16" type="curve"/>
    </contour>
    <contour>
      <point x="164" y="226" type="line"/>
      <point x="408" y="226" type="line"/>
      <point x="402" y="262" type="line"/>
      <point x="185" y="262" type="line"/>
    </contour>
  </outline>
  <guideline angle="74.5" x="394.504" y="652.99"/>
  <guideline angle="0" x="0" y="704"/>
  <guideline angle="0" x="0" y="-70"/>
</glyph>
<glyph name="B" format="2">
  <advance width="610"/>
  <unicode hex="0042"/>
  <anchor x="408.651" y="704" name="top"/>
  <anchor x="205.303" y="-70" name="bottom"/>
  <outline>
    <contour>
      <point x="95.8535" y="0" type="line"/>
      <point x="272" y="0" type="line" smooth="yes"/>
      <point x="429.282" y="0"/>
      <point x="537" y="82.2157"/>
      <point x="537" y="202.254" type="curve" smooth="yes"/>
      <point x="537" y="270.681"/>
      <point x="501.997" y="312.001"/>
      <point x="411" y="350" type="curve"/>
      <point x="411" y="353" type="line"/>
      <point x="515.651" y="364.92"/>
      <point x="586" y="430.005"/>
      <point x="586" y="515.409" type="curve" smooth="yes"/>
      <point x="586" y="602.577"/>
      <point x="512.713" y="653"/>
      <point x="386" y="653" type="curve" smooth="yes"/>
      <point x="276.746" y="653" type="line"/>
      <point x="260.693" y="595" type="line"/>
      <point x="311" y="595" type="line"/>
      <point x="316.926" y="616.825"/>
      <point x="328.704" y="623"/>
      <point x="364.404" y="623" type="curve" smooth="yes"/>
      <point x="447.863" y="623"/>
      <point x="485" y="589.252"/>
      <point x="485" y="513.408" type="curve" smooth="yes"/>
      <point x="485" y="409.443"/>
      <point x="415.219" y="364.009"/>
      <point x="255.539" y="364.009" type="curve" smooth="yes"/>
      <point x="230.873" y="364.009" type="line"/>
      <point x="220.088" y="331.009" type="line"/>
      <point x="246.337" y="331.009" type="line" smooth="yes"/>
      <point x="380.052" y="331.009"/>
      <point x="429" y="297.885"/>
      <point x="429" y="207.564" type="curve" smooth="yes"/>
      <point x="429" y="98.4574"/>
      <point x="357.573" y="30"/>
      <point x="244.034" y="30" type="curve" smooth="yes"/>
      <point x="195.959" y="30"/>
      <point x="170.518" y="44.221"/>
      <point x="170.518" y="74.6865" type="curve" smooth="yes"/>
      <point x="170.518" y="85"/>
      <point x="172.894" y="97.3928"/>
      <point x="178.324" y="117.391" type="curve"/>
      <point x="127.901" y="116.582" type="line"/>
    </contour>
    <contour>
      <point x="72.9258" y="90" type="line" name=".sk1"/>
      <point x="68.9631" y="75.8905" type="line" smooth="yes"/>
      <point x="60.2242" y="44.7751"/>
      <point x="32.618" y="27.9106"/>
      <point x="-29.0742" y="16" type="curve"/>
      <point x="-29.0742" y="0" type="line"/>
      <point x="96.9258" y="0" type="line"/>
      <point x="145.955" y="0" type="line"/>
      <point x="327.134" y="653" type="line" name=".sk2"/>
      <point x="278.398" y="652.508" type="line" name=".sk3"/>
      <point x="137.138" y="653.924" type="line"/>
      <point x="136.978" y="637.925" type="line"/>
      <point x="190.158" y="629.137"/>
      <point x="209.647" y="618.449"/>
      <point x="209.532" y="594.176" type="curve" smooth="yes"/>
      <point x="209.511" y="589.719"/>
      <point x="208.829" y="584.804"/>
      <point x="207.573" y="579.359" type="curve" smooth="yes"/>
      <point x="203.858" y="563.249" type="line"/>
    </contour>
  </outline>
  <guideline angle="74.5" x="394.504" y="652.99"/>
  <guideline angle="254.508" x="277.25" y="653"/>
</glyph>
<glyph name="C" format="2">
  <advance width="648"/>
  <unicode hex="0043"/>
  <anchor x="336.759" y="10" name="cedilla"/>
  <anchor x="453.393" y="704" name="top"/>
  <anchor x="274.307" y="-70" name="bottom"/>
  <outline>
    <contour>
      <point x="48" y="248.903" type="curve" smooth="yes"/>
      <point x="48" y="90.0573"/>
      <point x="152.856" y="-18"/>
      <point x="307.256" y="-18" type="curve" smooth="yes"/>
      <point x="410.084" y="-18"/>
      <point x="497.574" y="29.9265"/>
      <point x="582" y="131" type="curve"/>
      <point x="565" y="145" type="line"/>
      <point x="478.183" y="59.4787"/>
      <point x="414.602" y="27"/>
      <point x="338.42" y="27" type="curve" smooth="yes"/>
      <point x="221.841" y="27"/>
      <point x="160" y="103.057"/>
      <point x="160" y="238.585" type="curve" smooth="yes"/>
      <point x="160" y="445.079"/>
      <point x="303.563" y="630"/>
      <point x="462.565" y="630" type="curve" smooth="yes"/>
      <point x="551.185" y="630"/>
      <point x="619.446" y="572.557"/>
      <point x="619.446" y="497.519" type="curve" smooth="yes"/>
      <point x="619.446" y="487.769"/>
      <point x="618.294" y="477.902"/>
      <point x="616" y="468" type="curve"/>
      <point x="634" y="465" type="line"/>
      <point x="671" y="664" type="line"/>
      <point x="650" y="664" type="line"/>
      <point x="645.073" y="650.04"/>
      <point x="630.455" y="642"/>
      <point x="606.092" y="642" type="curve" smooth="yes"/>
      <point x="564" y="642"/>
      <point x="510" y="666"/>
      <point x="441.56" y="666" type="curve" smooth="yes"/>
      <point x="244.039" y="666"/>
      <point x="48" y="466.099"/>
    </contour>
  </outline>
  <guideline angle="74.5" x="439.247" y="652.99"/>
</glyph>
<glyph name="D" format="2">
  <advance width="721"/>
  <unicode hex="0044"/>
  <anchor x="260.381" y="10" name="cedilla"/>
  <anchor x="453.393" y="704" name="top"/>
  <anchor x="274.307" y="-70" name="bottom"/>
  <outline>
    <contour>
      <point x="96.9258" y="0" type="line"/>
      <point x="245" y="0" type="line" smooth="yes"/>
      <point x="510.315" y="0"/>
      <point x="700" y="161.336"/>
      <point x="700" y="378.316" type="curve" smooth="yes"/>
      <point x="700" y="547.699"/>
      <point x="584.406" y="653"/>
      <point x="408" y="653" type="curve" smooth="yes"/>
      <point x="278.403" y="653" type="line"/>
      <point x="262.092" y="592" type="line"/>
      <point x="310" y="592" type="line"/>
      <point x="315.848" y="612.879"/>
      <point x="332.268" y="623.004"/>
      <point x="378.489" y="623.004" type="curve" smooth="yes"/>
      <point x="513.067" y="623.004"/>
      <point x="589" y="544.231"/>
      <point x="589" y="394.288" type="curve" smooth="yes"/>
      <point x="589" y="184.968"/>
      <point x="441.021" y="29.9977"/>
      <point x="242.94" y="29.9977" type="curve" smooth="yes"/>
      <point x="188.369" y="29.9977"/>
      <point x="169" y="41.3329"/>
      <point x="169" y="66.3041" type="curve" smooth="yes"/>
      <point x="169" y="80.0011"/>
      <point x="174.273" y="102.281"/>
      <point x="191" y="162" type="curve"/>
      <point x="142.752" y="162.452" type="line"/>
    </contour>
    <contour>
      <point x="72.9258" y="90" type="line" name=".sk1"/>
      <point x="68.9631" y="75.8905" type="line" smooth="yes"/>
      <point x="60.2242" y="44.7751"/>
      <point x="32.618" y="27.9106"/>
      <point x="-29.0742" y="16" type="curve"/>
      <point x="-29.0742" y="0" type="line"/>
      <point x="96.9258" y="0" type="line"/>
      <point x="145.955" y="0" type="line"/>
      <point x="327.134" y="653" type="line" name=".sk2"/>
      <point x="278.398" y="652.508" type="line" name=".sk3"/>
      <point x="137.138" y="653.924" type="line"/>
      <point x="136.978" y="637.925" type="line"/>
      <point x="190.158" y="629.137"/>
      <point x="209.647" y="618.449"/>
      <point x="209.532" y="594.176" type="curve" smooth="yes"/>
      <point x="209.511" y="589.719"/>
      <point x="208.829" y="584.804"/>
      <point x="207.573" y="579.359" type="curve" smooth="yes"/>
      <point x="203.858" y="563.249" type="line"/>
    </contour>
  </outline>
  <guideline angle="74.5" x="439.247" y="652.99"/>
  <guideline angle="254.508" x="279" y="653"/>
</glyph>
<glyph name="E" format="2">
  <advance width="603"/>
  <unicode hex="0045"/>
  <anchor x="408.651" y="704" name="top"/>
  <anchor x="425" y="760" name="macron"/>
  <anchor x="228.919" y="-70" name="bottom"/>
  <anchor x="500.827" y="10" name="ogonek"/>
  <anchor x="287.833" y="10" name="cedilla"/>
  <anchor x="91.741" y="677" name="t.tonos"/>
  <anchor x="118" y="722" name="gr.diacritics"/>
  <anchor x="222" y="-50" name="b.ypogegrammeni"/>
  <outline>
    <contour>
      <point x="96.5948" y="0" type="line"/>
      <point x="497" y="0" type="line"/>
      <point x="559" y="162" type="line"/>
      <point x="543" y="170" type="line"/>
      <point x="454.578" y="49.5961"/>
      <point x="396.346" y="33"/>
      <point x="247" y="33" type="curve" smooth="yes"/>
      <point x="195.076" y="33"/>
      <point x="165.295" y="40.7451"/>
      <point x="165.295" y="65.0965" type="curve" smooth="yes"/>
      <point x="165.295" y="68.42"/>
      <point x="167.312" y="78.0741"/>
      <point x="170.907" y="90" type="curve"/>
      <point x="121.64" y="90" type="line"/>
    </contour>
    <contour>
      <point x="197.033" y="329.743" type="line"/>
      <point x="315" y="325" type="line" smooth="yes"/>
      <point x="397.933" y="321.666"/>
      <point x="400" y="309"/>
      <point x="400" y="279" type="curve" smooth="yes"/>
      <point x="400" y="262"/>
      <point x="398" y="249"/>
      <point x="393" y="227" type="curve"/>
      <point x="413" y="222" type="line"/>
      <point x="481" y="454" type="line"/>
      <point x="463" y="458" type="line"/>
      <point x="425" y="373"/>
      <point x="416.033" y="367.169"/>
      <point x="325" y="364" type="curve" smooth="yes"/>
      <point x="205.452" y="359.838" type="line"/>
    </contour>
    <contour>
      <point x="72.9258" y="90" type="line" name=".sk1"/>
      <point x="68.9631" y="75.8905" type="line" smooth="yes"/>
      <point x="60.2242" y="44.7751"/>
      <point x="32.618" y="27.9106"/>
      <point x="-29.0742" y="16" type="curve"/>
      <point x="-29.0742" y="0" type="line"/>
      <point x="96.9258" y="0" type="line"/>
      <point x="145.955" y="0" type="line"/>
      <point x="327.134" y="653" type="line" name=".sk2"/>
      <point x="278.398" y="652.508" type="line" name=".sk3"/>
      <point x="137.138" y="653.924" type="line"/>
      <point x="136.978" y="637.925" type="line"/>
      <point x="190.158" y="629.137"/>
      <point x="209.647" y="618.449"/>
      <point x="209.532" y="594.176" type="curve" smooth="yes"/>
      <point x="209.511" y="589.719"/>
      <point x="208.829" y="584.804"/>
      <point x="207.573" y="579.359" type="curve" smooth="yes"/>
      <point x="203.858" y="563.249" type="line"/>
    </contour>
    <contour>
      <point x="261.923" y="594" type="line"/>
      <point x="310.752" y="594" type="line"/>
      <point x="316.854" y="615.959"/>
      <point x="326.495" y="620.01"/>
      <point x="382.495" y="620.01" type="curve" smooth="yes"/>
      <point x="539.495" y="620.01"/>
      <point x="574.495" y="607.01"/>
      <point x="574.495" y="547.01" type="curve" smooth="yes"/>
      <point x="574.495" y="534.01"/>
      <point x="573.495" y="519.01"/>
      <point x="572.495" y="502.01" type="curve"/>
      <point x="593.495" y="500.01" type="line"/>
      <point x="624" y="653" type="line"/>
      <point x="278.266" y="653" type="line"/>
    </contour>
  </outline>
  <guideline angle="0" x="0" y="90"/>
  <guideline angle="74.5" x="277.771" y="652.99"/>
  <guideline angle="74.5" x="73" y="90"/>
  <guideline angle="254.5" x="327.041" y="653"/>
  <guideline angle="74.5" x="394.504" y="652.99"/>
</glyph>
<glyph name="F" format="2">
  <advance width="553"/>
  <unicode hex="0046"/>
  <anchor x="408.651" y="704" name="top"/>
  <anchor x="228.919" y="-70" name="bottom"/>
  <outline>
    <contour>
      <point x="197.033" y="329.743" type="line"/>
      <point x="315" y="325" type="line" smooth="yes"/>
      <point x="397.933" y="321.666"/>
      <point x="400" y="309"/>
      <point x="400" y="279" type="curve" smooth="yes"/>
      <point x="400" y="262"/>
      <point x="398" y="249"/>
      <point x="393" y="227" type="curve"/>
      <point x="413" y="222" type="line"/>
      <point x="481" y="454" type="line"/>
      <point x="463" y="458" type="line"/>
      <point x="425" y="373"/>
      <point x="416.033" y="367.169"/>
      <point x="325" y="364" type="curve" smooth="yes"/>
      <point x="205.452" y="359.838" type="line"/>
    </contour>
    <contour>
      <point x="72.9279" y="90.0075" type="line" name=".sk1"/>
      <point x="68.9848" y="75.89" type="line" smooth="yes"/>
      <point x="58.2048" y="37.47"/>
      <point x="22.1847" y="25.12"/>
      <point x="-29.0452" y="16" type="curve"/>
      <point x="-29.0452" y="0" type="line"/>
      <point x="237.955" y="0" type="line"/>
      <point x="237.955" y="16" type="line"/>
      <point x="177.605" y="25.02"/>
      <point x="165.955" y="31.11"/>
      <point x="165.955" y="59.85" type="curve" smooth="yes"/>
      <point x="165.955" y="66.83"/>
      <point x="166.645" y="74.83"/>
      <point x="168.595" y="81.83" type="curve" smooth="yes"/>
      <point x="170.921" y="89.9843" type="line"/>
      <point x="327.134" y="653" type="line" name=".sk2"/>
      <point x="278.398" y="652.508" type="line" name=".sk3"/>
      <point x="137.138" y="653.924" type="line"/>
      <point x="136.978" y="637.925" type="line"/>
      <point x="190.158" y="629.137"/>
      <point x="209.647" y="618.449"/>
      <point x="209.532" y="594.176" type="curve" smooth="yes"/>
      <point x="209.511" y="589.719"/>
      <point x="208.829" y="584.804"/>
      <point x="207.573" y="579.359" type="curve" smooth="yes"/>
      <point x="203.858" y="563.249" type="line"/>
    </contour>
    <contour>
      <point x="261.923" y="594" type="line"/>
      <point x="310.752" y="594" type="line"/>
      <point x="316.854" y="615.959"/>
      <point x="326.495" y="620.01"/>
      <point x="382.495" y="620.01" type="curve" smooth="yes"/>
      <point x="539.495" y="620.01"/>
      <point x="574.495" y="607.01"/>
      <point x="574.495" y="547.01" type="curve" smooth="yes"/>
      <point x="574.495" y="534.01"/>
      <point x="573.495" y="519.01"/>
      <point x="572.495" y="502.01" type="curve"/>
      <point x="593.495" y="500.01" type="line"/>
      <point x="624" y="653" type="line"/>
      <point x="278.266" y="653" type="line"/>
    </contour>
  </outline>
  <guideline angle="0" x="0" y="90"/>
  <guideline angle="74.5" x="97.1813" y="0"/>
  <guideline angle="74.5" x="47.9548" y="0"/>
  <guideline angle="254.5" x="327.134" y="653"/>
  <guideline angle="74.5" x="394.504" y="652.99"/>
</glyph>
<glyph name="G" format="2">
  <advance width="716"/>
  <unicode hex="0047"/>
  <anchor x="473.6" y="760" name="macron"/>
  <anchor x="463.218" y="704" name="top"/>
  <anchor x="302.689" y="-70" name="bottom"/>
  <outline>
    <contour>
      <point x="717" y="303" type="curve"/>
      <point x="717" y="319" type="line"/>
      <point x="451" y="319" type="line"/>
      <point x="451" y="303" type="line"/>
      <point x="476" y="301"/>
      <point x="529" y="302"/>
      <point x="529" y="266" type="curve" smooth="yes"/>
      <point x="529" y="256.419"/>
      <point x="526.82" y="237.479"/>
      <point x="520.972" y="215.12" type="curve" smooth="yes"/>
      <point x="493.547" y="110.269" type="line" smooth="yes"/>
      <point x="475.723" y="42.1276"/>
      <point x="427.718" y="19"/>
      <point x="359" y="19" type="curve" smooth="yes"/>
      <point x="230" y="19"/>
      <point x="157" y="94"/>
      <point x="157" y="221" type="curve" smooth="yes"/>
      <point x="157" y="390"/>
      <point x="258" y="632"/>
      <point x="456" y="632" type="curve" smooth="yes"/>
      <point x="558" y="632"/>
      <point x="629" y="573"/>
      <point x="636" y="468" type="curve"/>
      <point x="654" y="465" type="line"/>
      <point x="703" y="662" type="line"/>
      <point x="688" y="666" type="line"/>
      <point x="674" y="643"/>
      <point x="652" y="632"/>
      <point x="625" y="632" type="curve" smooth="yes"/>
      <point x="586" y="632"/>
      <point x="520" y="666"/>
      <point x="452" y="666" type="curve" smooth="yes"/>
      <point x="228" y="666"/>
      <point x="47" y="458"/>
      <point x="47" y="240" type="curve" smooth="yes"/>
      <point x="47" y="76"/>
      <point x="187" y="-18"/>
      <point x="340" y="-18" type="curve" smooth="yes"/>
      <point x="416" y="-18"/>
      <point x="507" y="4"/>
      <point x="571" y="44" type="curve"/>
      <point x="620" y="231" type="line" smooth="yes"/>
      <point x="636" y="290"/>
      <point x="659" y="300"/>
    </contour>
  </outline>
  <guideline angle="255.317" x="525.182" y="231"/>
  <guideline angle="74.5" x="439.247" y="652.99"/>
</glyph>
<glyph name="H" format="2">
  <advance width="721"/>
  <unicode hex="0048"/>
  <anchor x="487.692" y="760" name="macron"/>
  <anchor x="471.987" y="704" name="top"/>
  <anchor x="257.338" y="-70" name="bottom"/>
  <anchor x="488.755" y="10" name="cedilla"/>
  <anchor x="91.741" y="677" name="t.tonos"/>
  <anchor x="118" y="722" name="gr.diacritics"/>
  <anchor x="236" y="-50" name="b.ypogegrammeni"/>
  <outline>
    <contour>
      <point x="224" y="326" type="line"/>
      <point x="539" y="326" type="line"/>
      <point x="551" y="368" type="line"/>
      <point x="236" y="368" type="line"/>
    </contour>
    <contour>
      <point x="72.9279" y="90.0075" type="line" name=".sk1"/>
      <point x="68.9848" y="75.89" type="line" smooth="yes"/>
      <point x="58.2048" y="37.47"/>
      <point x="22.1847" y="25.12"/>
      <point x="-29.0452" y="16" type="curve"/>
      <point x="-29.0452" y="0" type="line"/>
      <point x="237.955" y="0" type="line"/>
      <point x="237.955" y="16" type="line"/>
      <point x="177.605" y="25.02"/>
      <point x="165.955" y="31.11"/>
      <point x="165.955" y="59.85" type="curve" smooth="yes"/>
      <point x="165.955" y="66.83"/>
      <point x="166.645" y="74.83"/>
      <point x="168.595" y="81.83" type="curve" smooth="yes"/>
      <point x="170.921" y="89.9843" type="line"/>
      <point x="302.235" y="563.261" type="line" name=".sk2"/>
      <point x="306.993" y="576.45" type="line"/>
      <point x="317.777" y="614.647"/>
      <point x="344.815" y="628.46"/>
      <point x="407.78" y="637" type="curve"/>
      <point x="407.78" y="653" type="line"/>
      <point x="135.217" y="653" type="line"/>
      <point x="135.217" y="637" type="line"/>
      <point x="194.425" y="628.01"/>
      <point x="209.044" y="620.16"/>
      <point x="209.044" y="592.26" type="curve" smooth="yes"/>
      <point x="209.044" y="586.42"/>
      <point x="208.23" y="580.506"/>
      <point x="205.838" y="572.14" type="curve"/>
      <point x="204.094" y="562.754" type="line" name=".sk3"/>
    </contour>
    <contour>
      <point x="455.928" y="90.0075" type="line" name=".sk1"/>
      <point x="451.985" y="75.89" type="line" smooth="yes"/>
      <point x="441.205" y="37.47"/>
      <point x="405.185" y="25.12"/>
      <point x="353.955" y="16" type="curve"/>
      <point x="353.955" y="0" type="line"/>
      <point x="620.955" y="0" type="line"/>
      <point x="620.955" y="16" type="line"/>
      <point x="560.605" y="25.02"/>
      <point x="548.955" y="31.11"/>
      <point x="548.955" y="59.85" type="curve" smooth="yes"/>
      <point x="548.955" y="66.83"/>
      <point x="549.645" y="74.83"/>
      <point x="551.595" y="81.83" type="curve" smooth="yes"/>
      <point x="553.921" y="89.9843" type="line"/>
      <point x="685.235" y="563.261" type="line" name=".sk2"/>
      <point x="689.993" y="576.45" type="line"/>
      <point x="700.777" y="614.647"/>
      <point x="727.815" y="628.46"/>
      <point x="790.78" y="637" type="curve"/>
      <point x="790.78" y="653" type="line"/>
      <point x="518.217" y="653" type="line"/>
      <point x="518.217" y="637" type="line"/>
      <point x="577.425" y="628.01"/>
      <point x="592.044" y="620.16"/>
      <point x="592.044" y="592.26" type="curve" smooth="yes"/>
      <point x="592.044" y="586.42"/>
      <point x="591.23" y="580.506"/>
      <point x="588.838" y="572.14" type="curve"/>
      <point x="587.094" y="562.754" type="line" name=".sk3"/>
    </contour>
  </outline>
  <guideline angle="0" x="0" y="90"/>
  <guideline angle="74.4491" x="122.134" y="90"/>
  <guideline angle="254.864" x="236" y="326"/>
  <guideline angle="74.4491" x="73" y="90"/>
  <guideline angle="74.4491" x="456" y="90"/>
  <guideline angle="254.654" x="685" y="563"/>
  <guideline angle="74.5" x="457.841" y="652.99"/>
</glyph>
<glyph name="I" format="2">
  <advance width="338"/>
  <unicode hex="0049"/>
  <anchor x="293.753" y="760" name="macron"/>
  <anchor x="292.41" y="704" name="top"/>
  <anchor x="77.7608" y="-70" name="bottom"/>
  <anchor x="105.077" y="10" name="ogonek"/>
  <anchor x="91.741" y="677" name="t.tonos"/>
  <anchor x="118" y="722" name="gr.diacritics"/>
  <anchor x="48" y="-50" name="b.ypogegrammeni"/>
  <outline>
    <contour>
      <point x="72.9279" y="90.0075" type="line" name=".sk1"/>
      <point x="68.9848" y="75.89" type="line" smooth="yes"/>
      <point x="58.2048" y="37.47"/>
      <point x="22.1847" y="25.12"/>
      <point x="-29.0452" y="16" type="curve"/>
      <point x="-29.0452" y="0" type="line"/>
      <point x="237.955" y="0" type="line"/>
      <point x="237.955" y="16" type="line"/>
      <point x="177.605" y="25.02"/>
      <point x="165.955" y="31.11"/>
      <point x="165.955" y="59.85" type="curve" smooth="yes"/>
      <point x="165.955" y="66.83"/>
      <point x="166.645" y="74.83"/>
      <point x="168.595" y="81.83" type="curve" smooth="yes"/>
      <point x="170.921" y="89.9843" type="line"/>
      <point x="302.235" y="563.261" type="line" name=".sk2"/>
      <point x="306.993" y="576.45" type="line"/>
      <point x="317.777" y="614.647"/>
      <point x="344.815" y="628.46"/>
      <point x="407.78" y="637" type="curve"/>
      <point x="407.78" y="653" type="line"/>
      <point x="135.217" y="653" type="line"/>
      <point x="135.217" y="637" type="line"/>
      <point x="194.425" y="628.01"/>
      <point x="209.044" y="620.16"/>
      <point x="209.044" y="592.26" type="curve" smooth="yes"/>
      <point x="209.044" y="586.42"/>
      <point x="208.23" y="580.506"/>
      <point x="205.838" y="572.14" type="curve"/>
      <point x="204.094" y="562.754" type="line" name=".sk3"/>
    </contour>
  </outline>
  <guideline angle="74.5" x="137" y="653"/>
  <guideline angle="254.5" x="404" y="653"/>
  <guideline angle="254.5" x="122.133" y="90"/>
  <guideline angle="0" x="0" y="563"/>
  <guideline angle="74.5" x="73" y="90"/>
  <guideline angle="254.5" x="327.134" y="653"/>
</glyph>
<glyph name="J" format="2">
  <advance width="443"/>
  <unicode hex="004A"/>
  <anchor x="416.317" y="760" name="macron"/>
  <anchor x="396.012" y="704" name="top"/>
  <anchor x="181.277" y="-70" name="bottom"/>
  <outline>
    <contour>
      <point x="-1.0644" y="68.0476" type="curve" smooth="yes"/>
      <point x="-1.0644" y="19.9099"/>
      <point x="41" y="-18"/>
      <point x="113.468" y="-18" type="curve" smooth="yes"/>
      <point x="217.061" y="-18"/>
      <point x="268.77" y="58.8496"/>
      <point x="294.233" y="150.847" type="curve" smooth="yes"/>
      <point x="408.412" y="563.365" type="line" name=".sk1"/>
      <point x="413.492" y="576.45" type="line"/>
      <point x="424.056" y="614.647"/>
      <point x="450.542" y="628.46"/>
      <point x="512.222" y="637" type="curve"/>
      <point x="512.222" y="653" type="line"/>
      <point x="245.222" y="653" type="line"/>
      <point x="245.222" y="637" type="line"/>
      <point x="303.222" y="628.01"/>
      <point x="317.542" y="620.16"/>
      <point x="317.542" y="592.26" type="curve" smooth="yes"/>
      <point x="317.542" y="586.42"/>
      <point x="316.745" y="580.506"/>
      <point x="314.402" y="572.14" type="curve"/>
      <point x="312.152" y="562.913" type="line"/>
      <point x="198.965" y="163.633" type="line" smooth="yes"/>
      <point x="164.998" y="41.5697"/>
      <point x="147.891" y="15"/>
      <point x="116.652" y="15" type="curve" smooth="yes"/>
      <point x="97.5085" y="15"/>
      <point x="87" y="25.1514"/>
      <point x="87" y="40.0313" type="curve" smooth="yes"/>
      <point x="87" y="55.2684"/>
      <point x="98.0189" y="62.407"/>
      <point x="98.0189" y="83.1536" type="curve" smooth="yes"/>
      <point x="98.0189" y="108.808"/>
      <point x="81.1703" y="124"/>
      <point x="53.4845" y="124" type="curve" smooth="yes"/>
      <point x="20.653" y="124"/>
      <point x="-1.0644" y="102.636"/>
    </contour>
  </outline>
  <guideline angle="254.45" x="225.799" y="90"/>
  <guideline angle="74.4491" x="199.033" y="163.875"/>
  <guideline angle="254.529" x="433.222" y="653"/>
</glyph>
<glyph name="K" format="2">
  <advance width="659"/>
  <unicode hex="004B"/>
  <anchor x="443" y="704" name="top"/>
  <anchor x="237.802" y="-70" name="bottom"/>
  <outline>
    <contour>
      <point x="328" y="0" type="line"/>
      <point x="603" y="-0.001" type="line"/>
      <point x="603" y="15.999" type="line"/>
      <point x="540" y="21.9796"/>
      <point x="534" y="24.9699"/>
      <point x="506" y="71.8178" type="curve" smooth="yes"/>
      <point x="332" y="373.837" type="line"/>
      <point x="548.742" y="536.588" type="line" smooth="yes"/>
      <point x="634.249" y="600.795"/>
      <point x="683" y="631.002"/>
      <point x="707" y="637" type="curve"/>
      <point x="707" y="653" type="line"/>
      <point x="485" y="653" type="line"/>
      <point x="485" y="637" type="line"/>
      <point x="512" y="633" type="line" smooth="yes"/>
      <point x="535.822" y="629.471"/>
      <point x="546" y="617.504"/>
      <point x="546" y="606.54" type="curve" smooth="yes"/>
      <point x="546" y="582.617"/>
      <point x="530.737" y="563.001"/>
      <point x="488.649" y="533.746" type="curve" smooth="yes"/>
      <point x="237.041" y="358.851" type="line"/>
      <point x="365" y="139.6" type="line" smooth="yes"/>
      <point x="389" y="98.7324"/>
      <point x="403" y="63.8457"/>
      <point x="403" y="44.9071" type="curve" smooth="yes"/>
      <point x="403" y="27.8174"/>
      <point x="374.262" y="19.1912"/>
      <point x="328" y="16.001" type="curve"/>
    </contour>
    <contour>
      <point x="72.9279" y="90.0075" type="line" name=".sk1"/>
      <point x="68.9848" y="75.89" type="line" smooth="yes"/>
      <point x="58.2048" y="37.47"/>
      <point x="22.1847" y="25.12"/>
      <point x="-29.0452" y="16" type="curve"/>
      <point x="-29.0452" y="0" type="line"/>
      <point x="237.955" y="0" type="line"/>
      <point x="237.955" y="16" type="line"/>
      <point x="177.605" y="25.02"/>
      <point x="165.955" y="31.11"/>
      <point x="165.955" y="59.85" type="curve" smooth="yes"/>
      <point x="165.955" y="66.83"/>
      <point x="166.645" y="74.83"/>
      <point x="168.595" y="81.83" type="curve" smooth="yes"/>
      <point x="170.921" y="89.9843" type="line"/>
      <point x="302.268" y="563.381" type="line" name=".sk2"/>
      <point x="307.404" y="576.45" type="line"/>
      <point x="317.968" y="614.647"/>
      <point x="344.454" y="628.46"/>
      <point x="406.134" y="637" type="curve"/>
      <point x="406.134" y="653" type="line"/>
      <point x="139.134" y="653" type="line"/>
      <point x="139.134" y="637" type="line"/>
      <point x="197.134" y="628.01"/>
      <point x="211.454" y="620.16"/>
      <point x="211.454" y="592.26" type="curve" smooth="yes"/>
      <point x="211.454" y="586.42"/>
      <point x="210.657" y="580.506"/>
      <point x="208.314" y="572.14" type="curve"/>
      <point x="206.133" y="562.894" type="line" name=".sk3"/>
    </contour>
  </outline>
  <guideline angle="34.8036" x="237.041" y="358.85"/>
  <guideline angle="216.903" x="632" y="599.107"/>
  <guideline angle="254.45" x="272" y="90"/>
</glyph>
<glyph name="L" format="2">
  <advance width="555"/>
  <unicode hex="004C"/>
  <anchor x="620.567" y="665" name="t.apo"/>
  <anchor x="432.005" y="323" name="ldot"/>
  <anchor x="278.264" y="704" name="top"/>
  <anchor x="237.802" y="-70" name="bottom"/>
  <anchor x="278.264" y="704" name="t.top"/>
  <outline>
    <contour>
      <point x="72.9258" y="90" type="line" name=".sk1"/>
      <point x="68.9631" y="75.8905" type="line" smooth="yes"/>
      <point x="60.2242" y="44.7751"/>
      <point x="32.618" y="27.9106"/>
      <point x="-29.0742" y="16" type="curve"/>
      <point x="-29.0742" y="0" type="line"/>
      <point x="96.9258" y="0" type="line"/>
      <point x="145.955" y="0" type="line"/>
      <point x="302.268" y="563.381" type="line" name=".sk2"/>
      <point x="307.404" y="576.45" type="line"/>
      <point x="317.968" y="614.647"/>
      <point x="344.454" y="628.46"/>
      <point x="406.134" y="637" type="curve"/>
      <point x="406.134" y="653" type="line"/>
      <point x="139.134" y="653" type="line"/>
      <point x="139.134" y="637" type="line"/>
      <point x="197.134" y="628.01"/>
      <point x="211.454" y="620.16"/>
      <point x="211.454" y="592.26" type="curve" smooth="yes"/>
      <point x="211.454" y="586.42"/>
      <point x="210.657" y="580.506"/>
      <point x="208.314" y="572.14" type="curve"/>
      <point x="206.133" y="562.894" type="line" name=".sk3"/>
    </contour>
    <contour>
      <point x="96.5948" y="0" type="line"/>
      <point x="497" y="0" type="line"/>
      <point x="559" y="162" type="line"/>
      <point x="543" y="170" type="line"/>
      <point x="454.578" y="49.5961"/>
      <point x="396.346" y="33"/>
      <point x="247" y="33" type="curve" smooth="yes"/>
      <point x="195.076" y="33"/>
      <point x="165.295" y="40.7451"/>
      <point x="165.295" y="65.0965" type="curve" smooth="yes"/>
      <point x="165.295" y="68.42"/>
      <point x="167.312" y="78.0741"/>
      <point x="170.907" y="90" type="curve"/>
      <point x="121.64" y="90" type="line"/>
    </contour>
  </outline>
  <guideline angle="254.45" x="282.323" y="90"/>
  <guideline angle="0" x="0" y="665"/>
</glyph>
<glyph name="M" format="2">
  <advance width="827"/>
  <unicode hex="004D"/>
  <anchor x="534.783" y="760" name="macron"/>
  <anchor x="520.751" y="704" name="top"/>
  <anchor x="305.378" y="-70" name="bottom"/>
  <outline>
    <contour>
      <point x="-18" y="0" type="line"/>
      <point x="180" y="0" type="line"/>
      <point x="180" y="16" type="line"/>
      <point x="131.025" y="19.1597"/>
      <point x="109" y="33.7394"/>
      <point x="109" y="64.3851" type="curve" smooth="yes"/>
      <point x="109" y="74.6111"/>
      <point x="111.452" y="88.9161"/>
      <point x="118" y="113" type="curve" smooth="yes"/>
      <point x="233" y="536" type="line"/>
      <point x="237" y="536" type="line"/>
      <point x="297" y="0" type="line"/>
      <point x="314" y="0" type="line"/>
      <point x="686" y="553" type="line"/>
      <point x="689" y="553" type="line"/>
      <point x="562" y="91" type="line" smooth="yes"/>
      <point x="547.663" y="38.8439"/>
      <point x="523.949" y="21.5219"/>
      <point x="461" y="16" type="curve"/>
      <point x="461" y="0" type="line"/>
      <point x="734" y="0" type="line"/>
      <point x="734" y="16" type="line"/>
      <point x="700" y="19"/>
      <point x="657" y="15"/>
      <point x="657" y="67.9444" type="curve" smooth="yes"/>
      <point x="657" y="77.6852"/>
      <point x="658.456" y="85.6243"/>
      <point x="668" y="120" type="curve" smooth="yes"/>
      <point x="791" y="563" type="line" smooth="yes"/>
      <point x="806.871" y="620.162"/>
      <point x="814.165" y="626.856"/>
      <point x="873" y="637" type="curve"/>
      <point x="873" y="653" type="line"/>
      <point x="706" y="653" type="line"/>
      <point x="373" y="164" type="line"/>
      <point x="370" y="164" type="line"/>
      <point x="315" y="653" type="line"/>
      <point x="134" y="653" type="line"/>
      <point x="134" y="637" type="line"/>
      <point x="178.756" y="637"/>
      <point x="206" y="621.588"/>
      <point x="206" y="598.055" type="curve" smooth="yes"/>
      <point x="206" y="589.512"/>
      <point x="201.546" y="572.558"/>
      <point x="186" y="518" type="curve" smooth="yes"/>
      <point x="80" y="146" type="line" smooth="yes"/>
      <point x="48.9328" y="36.9716"/>
      <point x="40.1622" y="25.3372"/>
      <point x="-18" y="16" type="curve"/>
    </contour>
  </outline>
  <guideline angle="254.45" x="349.9" y="90"/>
</glyph>
<glyph name="N" format="2">
  <advance width="656"/>
  <unicode hex="004E"/>
  <anchor x="461.084" y="704" name="top"/>
  <anchor x="251.241" y="-70" name="bottom"/>
  <outline>
    <contour>
      <point x="-18" y="0" type="line"/>
      <point x="180" y="0" type="line"/>
      <point x="180" y="16" type="line"/>
      <point x="128.373" y="20.0491"/>
      <point x="110" y="31.3357"/>
      <point x="110" y="60.1139" type="curve" smooth="yes"/>
      <point x="110" y="73"/>
      <point x="113.684" y="93.3211"/>
      <point x="119" y="113" type="curve" smooth="yes"/>
      <point x="233" y="535" type="line"/>
      <point x="463" y="-15" type="line"/>
      <point x="481" y="-15" type="line"/>
      <point x="625" y="488" type="line" smooth="yes"/>
      <point x="662.001" y="617.247"/>
      <point x="666.111" y="623.025"/>
      <point x="729" y="637" type="curve"/>
      <point x="729" y="653" type="line"/>
      <point x="530" y="653" type="line"/>
      <point x="530" y="637" type="line"/>
      <point x="585.067" y="632.17"/>
      <point x="600" y="623.015"/>
      <point x="600" y="593.571" type="curve" smooth="yes"/>
      <point x="600" y="580.272"/>
      <point x="596.954" y="563.631"/>
      <point x="589" y="534" type="curve" smooth="yes"/>
      <point x="487" y="154" type="line"/>
      <point x="279" y="653" type="line"/>
      <point x="118" y="653" type="line"/>
      <point x="118" y="637" type="line"/>
      <point x="165.596" y="632.949"/>
      <point x="186.223" y="619.518"/>
      <point x="204" y="581" type="curve"/>
      <point x="85" y="164" type="line" smooth="yes"/>
      <point x="48.2335" y="35.1627"/>
      <point x="38.8053" y="23.9727"/>
      <point x="-18" y="16" type="curve"/>
    </contour>
  </outline>
  <guideline angle="254.45" x="295.762" y="90"/>
</glyph>
<glyph name="O" format="2">
  <advance width="688"/>
  <unicode hex="004F"/>
  <anchor x="453.393" y="704" name="top"/>
  <anchor x="464.794" y="724" name="macron"/>
  <anchor x="136.881" y="677" name="t.tonos"/>
  <anchor x="229.858" y="-70" name="bottom"/>
  <anchor x="271.304" y="10" name="ogonek"/>
  <anchor x="141" y="722" name="gr.diacritics"/>
  <anchor x="224" y="-50" name="b.ypogegrammeni"/>
  <outline>
    <contour>
      <point x="679.914" y="424.984" type="curve" smooth="yes"/>
      <point x="679.914" y="569.938"/>
      <point x="588.2" y="666"/>
      <point x="458.144" y="666" type="curve" smooth="yes"/>
      <point x="256.021" y="666"/>
      <point x="40.9142" y="433.98"/>
      <point x="40.9142" y="219.582" type="curve" smooth="yes"/>
      <point x="40.9142" y="81.6301"/>
      <point x="129.971" y="-18"/>
      <point x="265.433" y="-18" type="curve" smooth="yes"/>
      <point x="467.914" y="-18"/>
      <point x="679.914" y="204.6"/>
    </contour>
    <contour>
      <point x="574.914" y="460.882" type="curve" smooth="yes"/>
      <point x="574.914" y="251.592"/>
      <point x="420.12" y="15"/>
      <point x="270.343" y="15" type="curve" smooth="yes"/>
      <point x="194.023" y="15"/>
      <point x="145.914" y="76.4308"/>
      <point x="145.914" y="192.047" type="curve" smooth="yes"/>
      <point x="145.914" y="399.06"/>
      <point x="300.149" y="633"/>
      <point x="452.783" y="633" type="curve" smooth="yes"/>
      <point x="528.309" y="633"/>
      <point x="574.914" y="575.721"/>
    </contour>
  </outline>
  <guideline angle="74.5" x="439.247" y="652.99"/>
</glyph>
<glyph name="P" format="2">
  <advance width="602"/>
  <unicode hex="0050"/>
  <anchor x="369.382" y="704" name="top"/>
  <anchor x="118" y="722" name="gr.diacritics"/>
  <outline>
    <contour>
      <point x="72.9279" y="90.0075" type="line" name=".sk1"/>
      <point x="68.9848" y="75.89" type="line" smooth="yes"/>
      <point x="58.2048" y="37.47"/>
      <point x="22.1847" y="25.12"/>
      <point x="-29.0452" y="16" type="curve"/>
      <point x="-29.0452" y="0" type="line"/>
      <point x="237.955" y="0" type="line"/>
      <point x="237.955" y="16" type="line"/>
      <point x="177.605" y="25.02"/>
      <point x="165.955" y="31.11"/>
      <point x="165.955" y="59.85" type="curve" smooth="yes"/>
      <point x="165.955" y="66.83"/>
      <point x="166.645" y="74.83"/>
      <point x="168.595" y="81.83" type="curve" smooth="yes"/>
      <point x="170.921" y="89.9843" type="line"/>
      <point x="327.134" y="653" type="line" name=".sk2"/>
      <point x="278.398" y="652.508" type="line" name=".sk3"/>
      <point x="137.138" y="653.924" type="line"/>
      <point x="136.978" y="637.925" type="line"/>
      <point x="190.158" y="629.137"/>
      <point x="209.647" y="618.449"/>
      <point x="209.532" y="594.176" type="curve" smooth="yes"/>
      <point x="209.511" y="589.719"/>
      <point x="208.829" y="584.804"/>
      <point x="207.573" y="579.359" type="curve" smooth="yes"/>
      <point x="203.858" y="563.249" type="line"/>
    </contour>
    <contour>
      <point x="211.544" y="351.229" type="curve"/>
      <point x="218.989" y="316.24" type="line"/>
      <point x="248.091" y="307.701"/>
      <point x="275.479" y="305"/>
      <point x="323.123" y="305" type="curve" smooth="yes"/>
      <point x="563.123" y="305"/>
      <point x="594.123" y="445"/>
      <point x="594.123" y="504" type="curve" smooth="yes"/>
      <point x="594.123" y="600"/>
      <point x="519.123" y="653"/>
      <point x="383.123" y="653" type="curve" smooth="yes"/>
      <point x="275.877" y="653" type="line"/>
      <point x="251" y="563" type="line"/>
      <point x="302.163" y="563" type="line"/>
      <point x="311.123" y="595" type="line" smooth="yes"/>
      <point x="317.123" y="616"/>
      <point x="329.123" y="623"/>
      <point x="357.123" y="623" type="curve" smooth="yes"/>
      <point x="485.123" y="623"/>
      <point x="491.123" y="551"/>
      <point x="491.123" y="504" type="curve" smooth="yes"/>
      <point x="491.123" y="439"/>
      <point x="475.123" y="342"/>
      <point x="292.123" y="342" type="curve" smooth="yes"/>
      <point x="270.247" y="342"/>
      <point x="249.377" y="344.133"/>
    </contour>
  </outline>
  <guideline angle="254.5" x="240.482" y="515"/>
</glyph>
<glyph name="Q" format="2">
  <advance width="721"/>
  <unicode hex="0051"/>
  <anchor x="489" y="704" name="top"/>
  <outline>
    <contour>
      <point x="59" y="-154" type="line"/>
      <point x="69" y="-169" type="line"/>
      <point x="104" y="-148"/>
      <point x="146" y="-138"/>
      <point x="186" y="-138" type="curve" smooth="yes"/>
      <point x="224.894" y="-138"/>
      <point x="263.788" y="-148.665"/>
      <point x="303.279" y="-159.494" type="curve" smooth="yes"/>
      <point x="344" y="-170.66"/>
      <point x="385.356" y="-182"/>
      <point x="428" y="-182" type="curve" smooth="yes"/>
      <point x="519" y="-182"/>
      <point x="618" y="-124"/>
      <point x="668" y="-49" type="curve"/>
      <point x="653" y="-38" type="line"/>
      <point x="598" y="-95"/>
      <point x="559" y="-114"/>
      <point x="478" y="-114" type="curve" smooth="yes"/>
      <point x="440.719" y="-114"/>
      <point x="404.142" y="-103.451"/>
      <point x="367.586" y="-92.9089" type="curve" smooth="yes"/>
      <point x="331.076" y="-82.3794"/>
      <point x="294.587" y="-71.8563"/>
      <point x="257.442" y="-71.8563" type="curve" smooth="yes"/>
      <point x="246.675" y="-71.8563"/>
      <point x="234.775" y="-72.9437"/>
      <point x="222.021" y="-75.8769" type="curve"/>
      <point x="289.316" y="-5.11066" type="line"/>
      <point x="247.7" y="-2.61346" type="line"/>
    </contour>
    <contour>
      <point x="699" y="424.984" type="curve" smooth="yes"/>
      <point x="699" y="569.938"/>
      <point x="607.286" y="666"/>
      <point x="477.23" y="666" type="curve" smooth="yes"/>
      <point x="275.107" y="666"/>
      <point x="60" y="433.98"/>
      <point x="60" y="219.582" type="curve" smooth="yes"/>
      <point x="60" y="81.6301"/>
      <point x="149.057" y="-18"/>
      <point x="284.519" y="-18" type="curve" smooth="yes"/>
      <point x="487" y="-18"/>
      <point x="699" y="204.6"/>
    </contour>
    <contour>
      <point x="594" y="460.882" type="curve" smooth="yes"/>
      <point x="594" y="251.592"/>
      <point x="439.206" y="15"/>
      <point x="289.428" y="15" type="curve" smooth="yes"/>
      <point x="213.108" y="15"/>
      <point x="165" y="76.4308"/>
      <point x="165" y="192.047" type="curve" smooth="yes"/>
      <point x="165" y="399.06"/>
      <point x="319.235" y="633"/>
      <point x="471.869" y="633" type="curve" smooth="yes"/>
      <point x="547.394" y="633"/>
      <point x="594" y="575.721"/>
    </contour>
  </outline>
</glyph>
<glyph name="R" format="2">
  <advance width="627"/>
  <unicode hex="0052"/>
  <anchor x="398.745" y="704" name="top"/>
  <anchor x="252" y="-50" name="bottom"/>
  <outline>
    <contour>
      <point x="293.799" y="338.023" type="line"/>
      <point x="422.123" y="0" type="line"/>
      <point x="570.123" y="0" type="line"/>
      <point x="570.123" y="16" type="line"/>
      <point x="526.123" y="19"/>
      <point x="506.123" y="36"/>
      <point x="487.123" y="88" type="curve" smooth="yes"/>
      <point x="388.8" y="347.024" type="line"/>
    </contour>
    <contour>
      <point x="252.376" y="563" type="line"/>
      <point x="302.163" y="563" type="line"/>
      <point x="311.123" y="595" type="line" smooth="yes"/>
      <point x="317.123" y="616"/>
      <point x="330.123" y="623"/>
      <point x="362.123" y="623" type="curve" smooth="yes"/>
      <point x="445.123" y="623"/>
      <point x="486.123" y="585"/>
      <point x="486.123" y="511" type="curve" smooth="yes"/>
      <point x="486.123" y="410.245"/>
      <point x="426.075" y="361"/>
      <point x="303.215" y="361" type="curve" smooth="yes"/>
      <point x="283.032" y="361"/>
      <point x="261.112" y="362.591"/>
      <point x="225.781" y="369.788" type="curve"/>
      <point x="220.256" y="331.224" type="line"/>
      <point x="251.314" y="325.685"/>
      <point x="288.242" y="323.139"/>
      <point x="322.211" y="323.139" type="curve" smooth="yes"/>
      <point x="435.489" y="323.139"/>
      <point x="591.123" y="381.947"/>
      <point x="591.123" y="509" type="curve" smooth="yes"/>
      <point x="591.123" y="602"/>
      <point x="517.123" y="653"/>
      <point x="383.123" y="653" type="curve" smooth="yes"/>
      <point x="276.877" y="653" type="line"/>
    </contour>
    <contour>
      <point x="72.9279" y="90.0075" type="line" name=".sk1"/>
      <point x="68.9848" y="75.89" type="line" smooth="yes"/>
      <point x="58.2048" y="37.47"/>
      <point x="22.1847" y="25.12"/>
      <point x="-29.0452" y="16" type="curve"/>
      <point x="-29.0452" y="0" type="line"/>
      <point x="237.955" y="0" type="line"/>
      <point x="237.955" y="16" type="line"/>
      <point x="177.605" y="25.02"/>
      <point x="165.955" y="31.11"/>
      <point x="165.955" y="59.85" type="curve" smooth="yes"/>
      <point x="165.955" y="66.83"/>
      <point x="166.645" y="74.83"/>
      <point x="168.595" y="81.83" type="curve" smooth="yes"/>
      <point x="170.921" y="89.9843" type="line"/>
      <point x="327.134" y="653" type="line" name=".sk2"/>
      <point x="278.398" y="652.508" type="line" name=".sk3"/>
      <point x="137.138" y="653.924" type="line"/>
      <point x="136.978" y="637.925" type="line"/>
      <point x="190.158" y="629.137"/>
      <point x="209.647" y="618.449"/>
      <point x="209.532" y="594.176" type="curve" smooth="yes"/>
      <point x="209.511" y="589.719"/>
      <point x="208.829" y="584.804"/>
      <point x="207.573" y="579.359" type="curve" smooth="yes"/>
      <point x="203.858" y="563.249" type="line"/>
    </contour>
  </outline>
  <guideline angle="254.5" x="240.482" y="515"/>
</glyph>
<glyph name="T" format="2">
  <advance width="555"/>
  <unicode hex="0054"/>
  <anchor x="379.185" y="704" name="top"/>
  <anchor x="231.808" y="5" name="cedilla"/>
  <anchor x="189" y="-50" name="bottom"/>
  <outline>
    <contour>
      <point x="65" y="0" type="line"/>
      <point x="355" y="0" type="line"/>
      <point x="355" y="16" type="line"/>
      <point x="287" y="21"/>
      <point x="265" y="32.053"/>
      <point x="265" y="61" type="curve" smooth="yes"/>
      <point x="265" y="74"/>
      <point x="268" y="86"/>
      <point x="277" y="120" type="curve" smooth="yes"/>
      <point x="416" y="618" type="line"/>
      <point x="471" y="618" type="line" smooth="yes"/>
      <point x="543" y="618"/>
      <point x="575" y="593"/>
      <point x="575" y="537" type="curve" smooth="yes"/>
      <point x="575" y="524"/>
      <point x="574" y="509"/>
      <point x="572" y="492" type="curve"/>
      <point x="589" y="490" type="line"/>
      <point x="633" y="653" type="line"/>
      <point x="101" y="653" type="line"/>
      <point x="59" y="499" type="line"/>
      <point x="77" y="495" type="line"/>
      <point x="127.444" y="597.792"/>
      <point x="158.864" y="618.075"/>
      <point x="293.693" y="618.075" type="curve" smooth="yes"/>
      <point x="315" y="618.075" type="line"/>
      <point x="171" y="90" type="line" smooth="yes"/>
      <point x="156.435" y="36.5878"/>
      <point x="131" y="21"/>
      <point x="65" y="16" type="curve"/>
    </contour>
  </outline>
</glyph>
<glyph name="U" format="2">
  <advance width="722"/>
  <unicode hex="0055"/>
  <anchor x="474.331" y="704" name="top"/>
  <anchor x="295.963" y="-70" name="bottom"/>
  <anchor x="473" y="704" name="t.ring"/>
  <anchor x="474.33" y="704" name="t.top"/>
  <anchor x="323" y="-8" name="ogonek"/>
  <outline>
    <contour>
      <point x="102" y="152.425" type="curve" smooth="yes"/>
      <point x="102" y="53.9319"/>
      <point x="192.66" y="-18"/>
      <point x="323.056" y="-18" type="curve" smooth="yes"/>
      <point x="450.923" y="-18"/>
      <point x="533.783" y="51.1696"/>
      <point x="578" y="203" type="curve" smooth="yes"/>
      <point x="661" y="488" type="line" smooth="yes"/>
      <point x="696.832" y="611.036"/>
      <point x="707.582" y="622.308"/>
      <point x="765" y="637" type="curve"/>
      <point x="765" y="653" type="line"/>
      <point x="566" y="653" type="line"/>
      <point x="566" y="637" type="line"/>
      <point x="616.774" y="634.099"/>
      <point x="637" y="619.57"/>
      <point x="637" y="590.579" type="curve" smooth="yes"/>
      <point x="637" y="577.894"/>
      <point x="633.128" y="558.002"/>
      <point x="627.721" y="538.329" type="curve" smooth="yes"/>
      <point x="546" y="241" type="line" smooth="yes"/>
      <point x="505.036" y="91.9576"/>
      <point x="437.027" y="23"/>
      <point x="333.347" y="23" type="curve" smooth="yes"/>
      <point x="246.975" y="23"/>
      <point x="192" y="70.8561"/>
      <point x="192" y="134.75" type="curve" smooth="yes"/>
      <point x="192" y="169.768"/>
      <point x="208.513" y="246.359"/>
      <point x="230.29" y="321.602" type="curve" smooth="yes"/>
      <point x="299" y="559" type="line" smooth="yes"/>
      <point x="315.134" y="614.744"/>
      <point x="335.616" y="630.562"/>
      <point x="400" y="637" type="curve"/>
      <point x="400" y="653" type="line"/>
      <point x="127" y="653" type="line"/>
      <point x="127" y="637" type="line"/>
      <point x="177.8" y="633.825"/>
      <point x="205" y="619.754"/>
      <point x="205" y="592.916" type="curve" smooth="yes"/>
      <point x="205" y="578.983"/>
      <point x="200.557" y="559.86"/>
      <point x="176" y="473" type="curve" smooth="yes"/>
      <point x="137.457" y="336.669" type="line" smooth="yes"/>
      <point x="114.822" y="256.607"/>
      <point x="102" y="189.466"/>
    </contour>
  </outline>
</glyph>
<glyph name="V" format="2">
  <advance width="610"/>
  <unicode hex="0056"/>
  <anchor x="408.651" y="704" name="top"/>
  <anchor x="240.179" y="-70" name="bottom"/>
  <outline>
    <contour>
      <point x="240" y="-18" type="line"/>
      <point x="259" y="-18" type="line"/>
      <point x="632" y="597" type="line" smooth="yes"/>
      <point x="649" y="624"/>
      <point x="665" y="636"/>
      <point x="688" y="637" type="curve"/>
      <point x="688" y="653" type="line"/>
      <point x="502" y="653" type="line"/>
      <point x="502" y="637" type="line"/>
      <point x="547" y="632"/>
      <point x="565" y="622"/>
      <point x="565" y="603" type="curve" smooth="yes"/>
      <point x="565" y="584"/>
      <point x="546" y="541"/>
      <point x="513" y="484" type="curve" smooth="yes"/>
      <point x="307" y="128" type="line"/>
      <point x="241" y="571" type="line" smooth="yes"/>
      <point x="240.249" y="576.043"/>
      <point x="240" y="580"/>
      <point x="240" y="586" type="curve" smooth="yes"/>
      <point x="240" y="620"/>
      <point x="254" y="630"/>
      <point x="317" y="637" type="curve"/>
      <point x="317" y="653" type="line"/>
      <point x="76" y="653" type="line"/>
      <point x="76" y="637" type="line"/>
      <point x="132" y="630"/>
      <point x="134" y="627"/>
      <point x="155" y="502" type="curve" smooth="yes"/>
    </contour>
  </outline>
</glyph>
<glyph name="W" format="2">
  <advance width="832"/>
  <unicode hex="0057"/>
  <anchor x="510.183" y="704" name="top"/>
  <anchor x="389.9" y="-70" name="bottom"/>
  <outline>
    <contour>
      <point x="212" y="-18" type="line"/>
      <point x="231" y="-18" type="line"/>
      <point x="453" y="436" type="line"/>
      <point x="458" y="436" type="line"/>
      <point x="508" y="-18" type="line"/>
      <point x="528" y="-18" type="line"/>
      <point x="831" y="565" type="line" smooth="yes"/>
      <point x="858" y="616"/>
      <point x="868" y="625"/>
      <point x="906" y="637" type="curve"/>
      <point x="906" y="653" type="line"/>
      <point x="721" y="653" type="line"/>
      <point x="721" y="637" type="line"/>
      <point x="775" y="632"/>
      <point x="786" y="625"/>
      <point x="786" y="597" type="curve" smooth="yes"/>
      <point x="786" y="581"/>
      <point x="778" y="556"/>
      <point x="765" y="530" type="curve" smooth="yes"/>
      <point x="578" y="162" type="line"/>
      <point x="537" y="578" type="line" smooth="yes"/>
      <point x="536.646" y="581.537"/>
      <point x="536.465" y="584.87"/>
      <point x="536.465" y="588.012" type="curve" smooth="yes"/>
      <point x="536.465" y="620.405"/>
      <point x="555.775" y="632.442"/>
      <point x="605" y="637" type="curve"/>
      <point x="605" y="653" type="line"/>
      <point x="367" y="653" type="line"/>
      <point x="367" y="637" type="line"/>
      <point x="425" y="635"/>
      <point x="435" y="628"/>
      <point x="442" y="579" type="curve" smooth="yes"/>
      <point x="451" y="510" type="line"/>
      <point x="279" y="162" type="line"/>
      <point x="235" y="568" type="line" smooth="yes"/>
      <point x="234.451" y="573.069"/>
      <point x="234" y="580"/>
      <point x="234" y="582" type="curve" smooth="yes"/>
      <point x="234" y="621"/>
      <point x="246" y="630"/>
      <point x="307" y="637" type="curve"/>
      <point x="307" y="653" type="line"/>
      <point x="71" y="653" type="line"/>
      <point x="71" y="637" type="line"/>
      <point x="124.648" y="625.694"/>
      <point x="137.42" y="603.899"/>
      <point x="150" y="499" type="curve" smooth="yes"/>
    </contour>
  </outline>
</glyph>
<glyph name="Y" format="2">
  <advance width="555"/>
  <unicode hex="0059"/>
  <anchor x="388.214" y="704" name="top"/>
  <anchor x="198.375" y="-70" name="bottom"/>
  <outline>
    <contour>
      <point x="78" y="0" type="line"/>
      <point x="367" y="0" type="line"/>
      <point x="367" y="16" type="line"/>
      <point x="294.588" y="22.1249"/>
      <point x="278" y="28.9497"/>
      <point x="278" y="56" type="curve" smooth="yes"/>
      <point x="278" y="65.6423"/>
      <point x="280.249" y="83.8099"/>
      <point x="286.468" y="105.483" type="curve" smooth="yes"/>
      <point x="344" y="306" type="line"/>
      <point x="563" y="576" type="line" smooth="yes"/>
      <point x="595" y="616"/>
      <point x="603" y="623"/>
      <point x="633" y="637" type="curve"/>
      <point x="633" y="653" type="line"/>
      <point x="444" y="653" type="line"/>
      <point x="444" y="637" type="line"/>
      <point x="497.128" y="633.309"/>
      <point x="513" y="627.272"/>
      <point x="513" y="604.786" type="curve" smooth="yes"/>
      <point x="513" y="588"/>
      <point x="504.156" y="566.502"/>
      <point x="487.863" y="546.54" type="curve" smooth="yes"/>
      <point x="325" y="347" type="line"/>
      <point x="267.091" y="554.859" type="line" smooth="yes"/>
      <point x="260.937" y="576.947"/>
      <point x="258" y="594.121"/>
      <point x="258" y="604.341" type="curve" smooth="yes"/>
      <point x="258" y="625"/>
      <point x="270" y="631"/>
      <point x="330" y="637" type="curve"/>
      <point x="330" y="653" type="line"/>
      <point x="91" y="653" type="line"/>
      <point x="91" y="637" type="line"/>
      <point x="147" y="629"/>
      <point x="150" y="626"/>
      <point x="167" y="571" type="curve"/>
      <point x="244" y="302" type="line"/>
      <point x="183" y="90" type="line" smooth="yes"/>
      <point x="167.346" y="35.5947"/>
      <point x="144" y="20"/>
      <point x="78" y="16" type="curve"/>
    </contour>
  </outline>
</glyph>
<glyph name="Z" format="2">
  <advance width="555"/>
  <unicode hex="005A"/>
  <anchor x="364.012" y="704" name="top"/>
  <anchor x="251" y="-50" name="bottom"/>
  <outline>
    <contour>
      <point x="-6" y="0" type="line"/>
      <point x="499" y="0" type="line"/>
      <point x="553" y="168" type="line"/>
      <point x="534" y="171" type="line"/>
      <point x="471.895" y="46.7903"/>
      <point x="421.275" y="36"/>
      <point x="284" y="36" type="curve" smooth="yes"/>
      <point x="123" y="36" type="line"/>
      <point x="606" y="639" type="line"/>
      <point x="606" y="653" type="line"/>
      <point x="120" y="653" type="line"/>
      <point x="74" y="507" type="line"/>
      <point x="93" y="502" type="line"/>
      <point x="140.861" y="602.28"/>
      <point x="187.98" y="617"/>
      <point x="302" y="617" type="curve" smooth="yes"/>
      <point x="473" y="617" type="line"/>
      <point x="-6" y="14" type="line"/>
    </contour>
  </outline>
</glyph>
<glyph name="bracketright" format="2">
  <advance width="388"/>
  <unicode hex="005D"/>
  <outline>
    <contour>
      <point x="19" y="-126" type="line"/>
      <point x="12" y="-153" type="line"/>
      <point x="185" y="-153" type="line"/>
      <point x="382" y="663" type="line"/>
      <point x="193" y="663" type="line"/>
      <point x="186" y="636" type="line"/>
      <point x="243" y="636" type="line" smooth="yes"/>
      <point x="275" y="636"/>
      <point x="292" y="627"/>
      <point x="292" y="609" type="curve" smooth="yes"/>
      <point x="292" y="605"/>
      <point x="292" y="604"/>
      <point x="288" y="588" type="curve" smooth="yes"/>
      <point x="127" y="-90" type="line" smooth="yes"/>
      <point x="120" y="-119"/>
      <point x="111" y="-126"/>
      <point x="81" y="-126" type="curve" smooth="yes"/>
    </contour>
  </outline>
</glyph>
<glyph name="grave" format="2">
  <advance width="332"/>
  <unicode hex="0060"/>
  <outline>
    <contour>
      <point x="280" y="492" type="line"/>
      <point x="311" y="492" type="line"/>
      <point x="195" y="641" type="line" smooth="yes"/>
      <point x="182" y="657"/>
      <point x="171" y="664"/>
      <point x="156" y="664" type="curve" smooth="yes"/>
      <point x="136" y="664"/>
      <point x="121" y="649"/>
      <point x="121" y="630" type="curve" smooth="yes"/>
      <point x="121" y="618"/>
      <point x="127" y="608"/>
      <point x="140" y="598" type="curve" smooth="yes"/>
    </contour>
  </outline>
</glyph>
<glyph name="a" format="2">
  <advance width="500"/>
  <unicode hex="0061"/>
  <anchor x="334" y="492" name="top"/>
  <anchor x="334" y="492" name="macron"/>
  <anchor x="130.405" y="-70" name="b.ring"/>
  <anchor x="138" y="-70" name="bottom"/>
  <anchor x="334" y="492" name="t.hook"/>
  <anchor x="508.412" y="512" name="t.righthalfring"/>
  <anchor x="375" y="10" name="ogonek"/>
  <outline>
    <contour>
      <point x="476" y="100" type="curve"/>
      <point x="464" y="110" type="line"/>
      <point x="433.261" y="69.1645"/>
      <point x="399.752" y="41"/>
      <point x="381.905" y="41" type="curve" smooth="yes"/>
      <point x="374.742" y="41"/>
      <point x="370" y="46.1781"/>
      <point x="370" y="54" type="curve" smooth="yes"/>
      <point x="370" y="102"/>
      <point x="447" y="368"/>
      <point x="465" y="438" type="curve"/>
      <point x="458" y="441" type="line"/>
      <point x="397" y="434" type="line"/>
      <point x="394" y="431" type="line"/>
      <point x="384" y="387" type="line"/>
      <point x="382" y="387" type="line"/>
      <point x="378" y="423"/>
      <point x="335" y="441"/>
      <point x="303" y="441" type="curve" smooth="yes"/>
      <point x="159" y="441"/>
      <point x="17" y="241"/>
      <point x="17" y="107" type="curve" smooth="yes"/>
      <point x="17" y="39"/>
      <point x="45" y="-11"/>
      <point x="120" y="-11" type="curve" smooth="yes"/>
      <point x="210" y="-11"/>
      <point x="271" y="74"/>
      <point x="316" y="141" type="curve"/>
      <point x="318" y="139" type="line"/>
      <point x="309" y="105"/>
      <point x="297" y="68"/>
      <point x="297" y="33" type="curve" smooth="yes"/>
      <point x="297" y="3"/>
      <point x="307" y="-10"/>
      <point x="339" y="-10" type="curve" smooth="yes"/>
      <point x="379.391" y="-10"/>
      <point x="419.825" y="22.465"/>
    </contour>
    <contour>
      <point x="365" y="352" type="curve" smooth="yes"/>
      <point x="365" y="260"/>
      <point x="270" y="38"/>
      <point x="161" y="38" type="curve" smooth="yes"/>
      <point x="120" y="38"/>
      <point x="101" y="72"/>
      <point x="101" y="109" type="curve" smooth="yes"/>
      <point x="101" y="205"/>
      <point x="194" y="419"/>
      <point x="308" y="419" type="curve" smooth="yes"/>
      <point x="347" y="419"/>
      <point x="365" y="388"/>
    </contour>
  </outline>
  <guideline angle="0" x="0" y="512"/>
</glyph>
<glyph name="c" format="2">
  <advance width="443"/>
  <unicode hex="0063"/>
  <anchor x="334" y="492" name="top"/>
  <anchor x="184" y="5" name="cedilla"/>
  <outline>
    <contour>
      <point x="425" y="363.146" type="curve" smooth="yes"/>
      <point x="425" y="407.206"/>
      <point x="379.525" y="441"/>
      <point x="312.574" y="441" type="curve" smooth="yes"/>
      <point x="172.959" y="441"/>
      <point x="30" y="294.042"/>
      <point x="30" y="137.318" type="curve" smooth="yes"/>
      <point x="30" y="43.5878"/>
      <point x="81.1329" y="-11"/>
      <point x="175.791" y="-11" type="curve" smooth="yes"/>
      <point x="249.467" y="-11"/>
      <point x="307.571" y="22.0699"/>
      <point x="366" y="96" type="curve"/>
      <point x="350" y="106" type="line"/>
      <point x="301.174" y="51.896"/>
      <point x="253.691" y="25"/>
      <point x="207.617" y="25" type="curve" smooth="yes"/>
      <point x="148.75" y="25"/>
      <point x="116" y="68.9066"/>
      <point x="116" y="147.993" type="curve" smooth="yes"/>
      <point x="116" y="285.055"/>
      <point x="214.366" y="420"/>
      <point x="312.701" y="420" type="curve" smooth="yes"/>
      <point x="337.15" y="420"/>
      <point x="353" y="411.658"/>
      <point x="353" y="397.638" type="curve" smooth="yes"/>
      <point x="353" y="384"/>
      <point x="338" y="375"/>
      <point x="338" y="351.883" type="curve" smooth="yes"/>
      <point x="338" y="328.362"/>
      <point x="353.527" y="314"/>
      <point x="377.115" y="314" type="curve" smooth="yes"/>
      <point x="404.793" y="314"/>
      <point x="425" y="333.777"/>
    </contour>
  </outline>
</glyph>
<glyph name="e" format="2">
  <advance width="443"/>
  <unicode hex="0065"/>
  <anchor x="334" y="492" name="top"/>
  <anchor x="160.572" y="-70" name="bottom"/>
  <anchor x="252.977" y="10" name="ogonek"/>
  <outline>
    <contour>
      <point x="31" y="130.469" type="curve" smooth="yes"/>
      <point x="31" y="45.0227"/>
      <point x="84.9781" y="-11"/>
      <point x="165.212" y="-11" type="curve" smooth="yes"/>
      <point x="233.208" y="-11"/>
      <point x="310.327" y="29.2359"/>
      <point x="370" y="97" type="curve"/>
      <point x="358" y="109" type="line"/>
      <point x="285.877" y="49.899"/>
      <point x="254.927" y="34"/>
      <point x="215.056" y="34" type="curve" smooth="yes"/>
      <point x="155.3" y="34"/>
      <point x="118" y="69.7128"/>
      <point x="118" y="125.577" type="curve" smooth="yes"/>
      <point x="118" y="140.3"/>
      <point x="120.591" y="156.364"/>
      <point x="128" y="186" type="curve"/>
      <point x="299.312" y="210.473"/>
      <point x="412" y="284.673"/>
      <point x="412" y="370.664" type="curve" smooth="yes"/>
      <point x="412" y="415.25"/>
      <point x="381.706" y="441"/>
      <point x="326.906" y="441" type="curve" smooth="yes"/>
      <point x="188.333" y="441"/>
      <point x="31" y="276.349"/>
    </contour>
    <contour>
      <point x="135" y="208" type="curve"/>
      <point x="184.441" y="335.965"/>
      <point x="253.194" y="418"/>
      <point x="307.839" y="418" type="curve" smooth="yes"/>
      <point x="331.821" y="418"/>
      <point x="346" y="402.2"/>
      <point x="346" y="373.482" type="curve" smooth="yes"/>
      <point x="346" y="305.077"/>
      <point x="265.551" y="239.879"/>
    </contour>
  </outline>
</glyph>
<glyph name="g" format="2">
  <advance width="500"/>
  <unicode hex="0067"/>
  <anchor x="318.258" y="492" name="top"/>
  <outline>
    <contour>
      <point x="8" y="-92" type="curve" smooth="yes"/>
      <point x="8" y="-161"/>
      <point x="74" y="-206"/>
      <point x="175" y="-206" type="curve" smooth="yes"/>
      <point x="301" y="-206"/>
      <point x="385" y="-147"/>
      <point x="385" y="-60" type="curve" smooth="yes"/>
      <point x="385" y="3"/>
      <point x="337" y="47"/>
      <point x="242" y="72" type="curve" smooth="yes"/>
      <point x="198" y="83"/>
      <point x="172" y="99"/>
      <point x="172" y="114" type="curve" smooth="yes"/>
      <point x="172" y="129"/>
      <point x="191.207" y="146.261"/>
      <point x="208" y="155" type="curve"/>
      <point x="223.673" y="152.129"/>
      <point x="232.164" y="151"/>
      <point x="246" y="151" type="curve" smooth="yes"/>
      <point x="337" y="151"/>
      <point x="431" y="232"/>
      <point x="431" y="310" type="curve" smooth="yes"/>
      <point x="431" y="387.384"/>
      <point x="376.156" y="441"/>
      <point x="297" y="441" type="curve" smooth="yes"/>
      <point x="186" y="441"/>
      <point x="96" y="364"/>
      <point x="96" y="270" type="curve" smooth="yes"/>
      <point x="96" y="218"/>
      <point x="118" y="188"/>
      <point x="175" y="162" type="curve"/>
      <point x="116" y="122"/>
      <point x="98" y="102"/>
      <point x="98" y="78" type="curve" smooth="yes"/>
      <point x="98" y="65"/>
      <point x="106" y="53"/>
      <point x="125" y="39" type="curve"/>
      <point x="26" y="-26"/>
      <point x="8" y="-46"/>
    </contour>
    <contour>
      <point x="63" y="-82" type="curve" smooth="yes"/>
      <point x="63" y="-46.0826"/>
      <point x="101.727" y="0"/>
      <point x="148" y="28" type="curve"/>
      <point x="277.447" y="-14.558"/>
      <point x="325" y="-46.2598"/>
      <point x="325" y="-90" type="curve" smooth="yes"/>
      <point x="325" y="-144"/>
      <point x="267" y="-184"/>
      <point x="190" y="-184" type="curve" smooth="yes"/>
      <point x="110" y="-184"/>
      <point x="63" y="-146"/>
    </contour>
    <contour>
      <point x="174" y="247" type="curve" smooth="yes"/>
      <point x="174" y="339"/>
      <point x="231" y="419"/>
      <point x="296" y="419" type="curve" smooth="yes"/>
      <point x="333" y="419"/>
      <point x="352" y="395"/>
      <point x="352" y="348" type="curve" smooth="yes"/>
      <point x="352" y="279"/>
      <point x="308" y="172"/>
      <point x="234" y="172" type="curve" smooth="yes"/>
      <point x="196" y="172"/>
      <point x="174" y="200"/>
    </contour>
    <contour>
      <point x="407" y="366" type="line"/>
      <point x="472" y="366" type="line"/>
      <point x="472" y="405" type="line"/>
      <point x="387.476" y="405" type="line"/>
    </contour>
  </outline>
</glyph>
<glyph name="i" format="2">
  <advance width="277"/>
  <unicode hex="0069"/>
  <anchor x="71" y="-70" name="bottom"/>
  <outline>
    <contour>
      <point x="49" y="46" type="curve" smooth="yes"/>
      <point x="49" y="9"/>
      <point x="65" y="-11"/>
      <point x="95" y="-11" type="curve" smooth="yes"/>
      <point x="141" y="-11"/>
      <point x="178" y="19"/>
      <point x="235" y="103" type="curve"/>
      <point x="222" y="114" type="line"/>
      <point x="205.259" y="87.8857"/>
      <point x="160.251" y="36"/>
      <point x="137.966" y="36" type="curve" smooth="yes"/>
      <point x="129.966" y="36"/>
      <point x="124" y="40.5742"/>
      <point x="124" y="47.5742" type="curve" smooth="yes"/>
      <point x="124" y="57.5742"/>
      <point x="130.524" y="82.327"/>
      <point x="140" y="117" type="curve" smooth="yes"/>
      <point x="228" y="439" type="line"/>
      <point x="225" y="441" type="line"/>
      <point x="124" y="422"/>
      <point x="104" y="419"/>
      <point x="65" y="416" type="curve"/>
      <point x="65" y="400" type="line"/>
      <point x="118" y="399"/>
      <point x="128" y="396"/>
      <point x="128" y="376" type="curve" smooth="yes"/>
      <point x="128" y="368"/>
      <point x="124.465" y="352.153"/>
      <point x="119" y="332" type="curve" smooth="yes"/>
      <point x="71" y="155" type="line" smooth="yes"/>
      <point x="55.2525" y="96.9309"/>
      <point x="49" y="66"/>
    </contour>
    <contour>
      <point x="167" y="599" type="curve" smooth="yes"/>
      <point x="167" y="572"/>
      <point x="188" y="551"/>
      <point x="215" y="551" type="curve" smooth="yes"/>
      <point x="242" y="551"/>
      <point x="263" y="572"/>
      <point x="263" y="599" type="curve" smooth="yes"/>
      <point x="263" y="626"/>
      <point x="242" y="647"/>
      <point x="215" y="647" type="curve" smooth="yes"/>
      <point x="188" y="647"/>
      <point x="167" y="626"/>
    </contour>
  </outline>
</glyph>
<glyph name="j" format="2">
  <advance width="277"/>
  <unicode hex="006A"/>
  <outline>
    <contour>
      <point x="59" y="-3" type="line" smooth="yes"/>
      <point x="25" y="-140"/>
      <point x="2" y="-184"/>
      <point x="-38" y="-184" type="curve" smooth="yes"/>
      <point x="-50" y="-184"/>
      <point x="-56" y="-180"/>
      <point x="-56" y="-173" type="curve" smooth="yes"/>
      <point x="-56" y="-162"/>
      <point x="-43" y="-160"/>
      <point x="-43" y="-141" type="curve" smooth="yes"/>
      <point x="-43" y="-120"/>
      <point x="-61" y="-104"/>
      <point x="-84" y="-104" type="curve" smooth="yes"/>
      <point x="-107" y="-104"/>
      <point x="-124" y="-122"/>
      <point x="-124" y="-146" type="curve" smooth="yes"/>
      <point x="-124" y="-181"/>
      <point x="-91" y="-207"/>
      <point x="-45" y="-207" type="curve" smooth="yes"/>
      <point x="42" y="-207"/>
      <point x="102" y="-131"/>
      <point x="142" y="28" type="curve" smooth="yes"/>
      <point x="246" y="439" type="line"/>
      <point x="243" y="441" type="line"/>
      <point x="154" y="425"/>
      <point x="104" y="417"/>
      <point x="73" y="416" type="curve"/>
      <point x="73" y="400" type="line"/>
      <point x="100" y="400" type="line"/>
      <point x="125.522" y="402.839"/>
      <point x="147" y="397.786"/>
      <point x="147" y="369" type="curve" smooth="yes"/>
      <point x="147" y="359"/>
      <point x="142" y="332"/>
      <point x="131" y="289" type="curve" smooth="yes"/>
    </contour>
    <contour>
      <point x="181" y="602" type="curve" smooth="yes"/>
      <point x="181" y="575"/>
      <point x="202" y="554"/>
      <point x="229" y="554" type="curve" smooth="yes"/>
      <point x="256" y="554"/>
      <point x="277" y="575"/>
      <point x="277" y="602" type="curve" smooth="yes"/>
      <point x="277" y="629"/>
      <point x="256" y="650"/>
      <point x="229" y="650" type="curve" smooth="yes"/>
      <point x="202" y="650"/>
      <point x="181" y="629"/>
    </contour>
  </outline>
</glyph>
<glyph name="k" format="2">
  <advance width="443"/>
  <unicode hex="006B"/>
  <anchor x="240" y="739" name="top"/>
  <anchor x="179.072" y="-70" name="bottom"/>
  <outline>
    <contour>
      <point x="14" y="0" type="line"/>
      <point x="89" y="0" type="line"/>
      <point x="137" y="180" type="line"/>
      <point x="179" y="212" type="line"/>
      <point x="229.993" y="71.7692"/>
      <point x="287.018" y="-11"/>
      <point x="332.427" y="-11" type="curve" smooth="yes"/>
      <point x="359.987" y="-11"/>
      <point x="386.94" y="19.4884"/>
      <point x="429" y="98" type="curve"/>
      <point x="414" y="109" type="line"/>
      <point x="400.398" y="75.4213"/>
      <point x="370.806" y="41"/>
      <point x="355.732" y="41" type="curve" smooth="yes"/>
      <point x="329.189" y="41"/>
      <point x="270.391" y="147.736"/>
      <point x="236" y="258" type="curve"/>
      <point x="281.774" y="298.477" type="line" smooth="yes"/>
      <point x="387.408" y="391.888"/>
      <point x="418.575" y="409.292"/>
      <point x="461" y="412" type="curve"/>
      <point x="461" y="428" type="line"/>
      <point x="278" y="428" type="line"/>
      <point x="278" y="412" type="line"/>
      <point x="321.763" y="412"/>
      <point x="333" y="409.167"/>
      <point x="333" y="397.86" type="curve" smooth="yes"/>
      <point x="333" y="374.894"/>
      <point x="286.639" y="328.165"/>
      <point x="190" y="254" type="curve" smooth="yes"/>
      <point x="147" y="221" type="line"/>
      <point x="267" y="678" type="line"/>
      <point x="262" y="683" type="line"/>
      <point x="198.524" y="669.014"/>
      <point x="161.114" y="662.539"/>
      <point x="106" y="656" type="curve"/>
      <point x="106" y="640" type="line"/>
      <point x="112.066" y="640.558"/>
      <point x="128.617" y="641"/>
      <point x="132.102" y="641" type="curve" smooth="yes"/>
      <point x="164.015" y="641"/>
      <point x="174.629" y="635.486"/>
      <point x="174.629" y="620.107" type="curve" smooth="yes"/>
      <point x="174.629" y="618.202"/>
      <point x="174.451" y="616.733"/>
      <point x="174" y="615" type="curve" smooth="yes"/>
    </contour>
  </outline>
</glyph>
<glyph name="l" format="2">
  <advance width="277"/>
  <unicode hex="006C"/>
  <anchor x="216" y="726" name="t.top"/>
  <anchor x="68.9782" y="-70" name="bottom"/>
  <anchor x="216" y="726" name="top"/>
  <anchor x="445.813" y="665" name="t.apo"/>
  <anchor x="311.4" y="323" name="ldot"/>
  <outline>
    <contour>
      <point x="40" y="39.6764" type="curve" smooth="yes"/>
      <point x="40" y="8.71428"/>
      <point x="57.25" y="-11"/>
      <point x="95.1253" y="-11" type="curve" smooth="yes"/>
      <point x="140.868" y="-11"/>
      <point x="175.834" y="17.7551"/>
      <point x="241" y="114" type="curve"/>
      <point x="228" y="123" type="line"/>
      <point x="195.103" y="73.9572"/>
      <point x="150.84" y="32"/>
      <point x="130.444" y="32" type="curve" smooth="yes"/>
      <point x="122.417" y="32"/>
      <point x="117" y="38.5"/>
      <point x="117" y="49.4635" type="curve" smooth="yes"/>
      <point x="117" y="55.7254"/>
      <point x="118.767" y="63.5968"/>
      <point x="128" y="99" type="curve" smooth="yes"/>
      <point x="279" y="678" type="line"/>
      <point x="274" y="683" type="line"/>
      <point x="210.524" y="669.014"/>
      <point x="173.114" y="662.539"/>
      <point x="118" y="656" type="curve"/>
      <point x="118" y="640" type="line"/>
      <point x="165.652" y="640"/>
      <point x="186" y="633.118"/>
      <point x="186" y="618.204" type="curve" smooth="yes"/>
      <point x="186" y="614"/>
      <point x="184.383" y="608.183"/>
      <point x="182" y="599" type="curve" smooth="yes"/>
      <point x="45" y="71" type="line" smooth="yes"/>
      <point x="41.7108" y="58.3235"/>
      <point x="40" y="49.4272"/>
    </contour>
  </outline>
</glyph>
<glyph name="m" format="2">
  <advance width="721"/>
  <unicode hex="006D"/>
  <anchor x="431.739" y="492" name="top"/>
  <anchor x="274.392" y="-70" name="bottom"/>
  <outline>
    <contour>
      <point x="12" y="0" type="line"/>
      <point x="87" y="0" type="line"/>
      <point x="135" y="159"/>
      <point x="150" y="196"/>
      <point x="184" y="248" type="curve" smooth="yes"/>
      <point x="240" y="333"/>
      <point x="300" y="389"/>
      <point x="334" y="389" type="curve" smooth="yes"/>
      <point x="347" y="389"/>
      <point x="354" y="380"/>
      <point x="354" y="364" type="curve" smooth="yes"/>
      <point x="354" y="360.409"/>
      <point x="349.226" y="338.909"/>
      <point x="338.784" y="299.686" type="curve" smooth="yes"/>
      <point x="259" y="0" type="line"/>
      <point x="334" y="0" type="line"/>
      <point x="374" y="156"/>
      <point x="394" y="206"/>
      <point x="445" y="277" type="curve" smooth="yes"/>
      <point x="494" y="345"/>
      <point x="544" y="389"/>
      <point x="573" y="389" type="curve" smooth="yes"/>
      <point x="584" y="389"/>
      <point x="593" y="379"/>
      <point x="593" y="368" type="curve" smooth="yes"/>
      <point x="593" y="278.991"/>
      <point x="510.06" y="158.54"/>
      <point x="510.06" y="37" type="curve" smooth="yes"/>
      <point x="510.06" y="7"/>
      <point x="529" y="-9"/>
      <point x="555" y="-9" type="curve" smooth="yes"/>
      <point x="615" y="-9"/>
      <point x="661" y="45"/>
      <point x="704" y="105" type="curve"/>
      <point x="689" y="117" type="line"/>
      <point x="671" y="92.461"/>
      <point x="631.043" y="38"/>
      <point x="604" y="38" type="curve" smooth="yes"/>
      <point x="596" y="38"/>
      <point x="591" y="44"/>
      <point x="591" y="54" type="curve" smooth="yes"/>
      <point x="591" y="156"/>
      <point x="672" y="280.674"/>
      <point x="672" y="378" type="curve" smooth="yes"/>
      <point x="672" y="414"/>
      <point x="647" y="441"/>
      <point x="613" y="441" type="curve" smooth="yes"/>
      <point x="519" y="441"/>
      <point x="419.55" y="277.27"/>
      <point x="391.911" y="228.587" type="curve"/>
      <point x="389.089" y="229.413" type="line"/>
      <point x="415" y="305"/>
      <point x="431" y="362"/>
      <point x="431" y="381" type="curve" smooth="yes"/>
      <point x="431" y="416"/>
      <point x="408" y="441"/>
      <point x="374" y="441" type="curve" smooth="yes"/>
      <point x="313" y="441"/>
      <point x="243" y="375"/>
      <point x="151.914" y="229.594" type="curve"/>
      <point x="149.086" y="230.406" type="line"/>
      <point x="209" y="439" type="line"/>
      <point x="206" y="441" type="line"/>
      <point x="151.914" y="427"/>
      <point x="116.665" y="420.132"/>
      <point x="46" y="410" type="curve"/>
      <point x="46" y="394" type="line"/>
      <point x="71" y="394" type="line" smooth="yes"/>
      <point x="97" y="394"/>
      <point x="112" y="387"/>
      <point x="112" y="367" type="curve" smooth="yes"/>
      <point x="112" y="361"/>
      <point x="111.499" y="355.352"/>
      <point x="110" y="350" type="curve" smooth="yes"/>
    </contour>
  </outline>
</glyph>
<glyph name="n" format="2">
  <advance width="500"/>
  <unicode hex="006E"/>
  <anchor x="316.219" y="492" name="top"/>
  <anchor x="189" y="-70" name="bottom"/>
  <outline>
    <contour>
      <point x="14" y="0" type="line"/>
      <point x="89" y="0" type="line"/>
      <point x="136" y="158"/>
      <point x="145" y="180"/>
      <point x="189" y="248" type="curve" smooth="yes"/>
      <point x="249" y="340"/>
      <point x="300" y="390"/>
      <point x="337" y="390" type="curve" smooth="yes"/>
      <point x="352" y="390"/>
      <point x="361" y="379"/>
      <point x="361" y="361" type="curve" smooth="yes"/>
      <point x="361" y="276.985"/>
      <point x="287" y="147.257"/>
      <point x="287" y="45" type="curve" smooth="yes"/>
      <point x="287" y="7"/>
      <point x="301" y="-9"/>
      <point x="334" y="-9" type="curve" smooth="yes"/>
      <point x="379" y="-9"/>
      <point x="412.36" y="16.5183"/>
      <point x="474" y="104" type="curve"/>
      <point x="460" y="117" type="line"/>
      <point x="445.59" y="93.6992"/>
      <point x="402.581" y="38"/>
      <point x="378" y="38" type="curve" smooth="yes"/>
      <point x="370" y="38"/>
      <point x="362" y="46"/>
      <point x="362" y="54" type="curve" smooth="yes"/>
      <point x="362" y="139.763"/>
      <point x="442" y="277.806"/>
      <point x="442" y="380" type="curve" smooth="yes"/>
      <point x="442" y="416"/>
      <point x="415" y="441"/>
      <point x="376" y="441" type="curve" smooth="yes"/>
      <point x="312" y="441"/>
      <point x="249" y="381"/>
      <point x="146.907" y="220.578" type="curve"/>
      <point x="145.093" y="221.421" type="line"/>
      <point x="213" y="439" type="line"/>
      <point x="210" y="441" type="line"/>
      <point x="161.252" y="427.334"/>
      <point x="132.658" y="420.321"/>
      <point x="48" y="410" type="curve"/>
      <point x="48" y="394" type="line"/>
      <point x="99" y="393"/>
      <point x="112" y="387"/>
      <point x="112" y="367" type="curve" smooth="yes"/>
      <point x="112" y="361"/>
      <point x="111.349" y="354.917"/>
      <point x="110" y="350" type="curve" smooth="yes"/>
    </contour>
  </outline>
</glyph>
<glyph name="p" format="2">
  <advance width="500"/>
  <unicode hex="0070"/>
  <anchor x="334" y="492" name="top"/>
  <outline>
    <contour>
      <point x="-8" y="-130" type="line" smooth="yes"/>
      <point x="-19.7542" y="-175.813"/>
      <point x="-32" y="-188"/>
      <point x="-75" y="-189" type="curve"/>
      <point x="-75" y="-205" type="line"/>
      <point x="130" y="-205" type="line"/>
      <point x="130" y="-190" type="line"/>
      <point x="83" y="-190"/>
      <point x="66" y="-181"/>
      <point x="66" y="-160" type="curve" smooth="yes"/>
      <point x="66" y="-148.639"/>
      <point x="76.6814" y="-95.0053"/>
      <point x="92.1016" y="-35.8256" type="curve" smooth="yes"/>
      <point x="103" y="6" type="line"/>
      <point x="128" y="-7"/>
      <point x="146" y="-11"/>
      <point x="169" y="-11" type="curve" smooth="yes"/>
      <point x="315" y="-11"/>
      <point x="469" y="157"/>
      <point x="469" y="316" type="curve" smooth="yes"/>
      <point x="469" y="394"/>
      <point x="425" y="441"/>
      <point x="354" y="441" type="curve" smooth="yes"/>
      <point x="289" y="441"/>
      <point x="241" y="409"/>
      <point x="183" y="328" type="curve"/>
      <point x="215" y="437" type="line"/>
      <point x="211" y="441" type="line"/>
      <point x="176.132" y="434.297"/>
      <point x="98.9049" y="423.178"/>
      <point x="54" y="419" type="curve"/>
      <point x="56" y="404" type="line"/>
      <point x="72.8408" y="404"/>
      <point x="118.793" y="401.773"/>
      <point x="118.793" y="371.313" type="curve" smooth="yes"/>
      <point x="118.793" y="365.368"/>
      <point x="117.042" y="357.365"/>
      <point x="101.887" y="298.294" type="curve" smooth="yes"/>
    </contour>
    <contour>
      <point x="117" y="45" type="curve" smooth="yes"/>
      <point x="117" y="79"/>
      <point x="153" y="210"/>
      <point x="182" y="284" type="curve" smooth="yes"/>
      <point x="209" y="352"/>
      <point x="264" y="398"/>
      <point x="317" y="398" type="curve" smooth="yes"/>
      <point x="356" y="398"/>
      <point x="379" y="370"/>
      <point x="379" y="312" type="curve" smooth="yes"/>
      <point x="379" y="203"/>
      <point x="294" y="8"/>
      <point x="165" y="8" type="curve" smooth="yes"/>
      <point x="137" y="8"/>
      <point x="117" y="23"/>
    </contour>
  </outline>
</glyph>
<glyph name="q" format="2">
  <advance width="500"/>
  <unicode hex="0071"/>
  <anchor x="334" y="492" name="top"/>
  <outline>
    <contour>
      <point x="25" y="107.582" type="curve" smooth="yes"/>
      <point x="25" y="32.6232"/>
      <point x="65.2565" y="-11"/>
      <point x="134.098" y="-11" type="curve" smooth="yes"/>
      <point x="198.745" y="-11"/>
      <point x="245.015" y="27.4681"/>
      <point x="332.101" y="153.438" type="curve"/>
      <point x="333.899" y="152.562" type="line"/>
      <point x="244" y="-140" type="line" smooth="yes"/>
      <point x="231.941" y="-179.243"/>
      <point x="216.632" y="-187.874"/>
      <point x="150" y="-193" type="curve"/>
      <point x="150" y="-209" type="line"/>
      <point x="391" y="-209" type="line"/>
      <point x="391" y="-191" type="line"/>
      <point x="374" y="-191" type="line" smooth="yes"/>
      <point x="336.25" y="-191"/>
      <point x="317" y="-181.61"/>
      <point x="317" y="-163.197" type="curve" smooth="yes"/>
      <point x="317" y="-159"/>
      <point x="318" y="-155"/>
      <point x="319" y="-151" type="curve"/>
      <point x="483" y="426" type="line"/>
      <point x="410" y="426" type="line"/>
      <point x="396" y="379" type="line"/>
      <point x="394" y="379" type="line"/>
      <point x="379.144" y="424.559"/>
      <point x="359.391" y="441"/>
      <point x="319.589" y="441" type="curve" smooth="yes"/>
      <point x="186.735" y="441"/>
      <point x="25" y="257.829"/>
    </contour>
    <contour>
      <point x="111" y="122.732" type="curve" smooth="yes"/>
      <point x="111" y="243.027"/>
      <point x="235.324" y="419"/>
      <point x="320.997" y="419" type="curve" smooth="yes"/>
      <point x="356.641" y="419"/>
      <point x="380" y="388.541"/>
      <point x="380" y="339.829" type="curve" smooth="yes"/>
      <point x="380" y="224.949"/>
      <point x="250.079" y="42"/>
      <point x="166.673" y="42" type="curve" smooth="yes"/>
      <point x="132.506" y="42"/>
      <point x="111" y="72.7"/>
    </contour>
  </outline>
</glyph>
<glyph name="r" format="2">
  <advance width="388"/>
  <unicode hex="0072"/>
  <anchor x="276.102" y="492" name="top"/>
  <anchor x="73" y="-50" name="bottom"/>
  <outline>
    <contour>
      <point x="45" y="0" type="line"/>
      <point x="121" y="0" type="line"/>
      <point x="135.552" y="47.575"/>
      <point x="240.406" y="376"/>
      <point x="314" y="376" type="curve" smooth="yes"/>
      <point x="336" y="376"/>
      <point x="322" y="340"/>
      <point x="366" y="340" type="curve" smooth="yes"/>
      <point x="395" y="340"/>
      <point x="412" y="358"/>
      <point x="412" y="389" type="curve" smooth="yes"/>
      <point x="412" y="420"/>
      <point x="393" y="441"/>
      <point x="365" y="441" type="curve" smooth="yes"/>
      <point x="296" y="441"/>
      <point x="212.098" y="300.638"/>
      <point x="194.197" y="258.005" type="curve" smooth="yes"/>
      <point x="178.954" y="221.7" type="line"/>
      <point x="177.046" y="222.301" type="line"/>
      <point x="231" y="439" type="line"/>
      <point x="228" y="441" type="line"/>
      <point x="155.79" y="424.928"/>
      <point x="143.973" y="422.504"/>
      <point x="73" y="414" type="curve"/>
      <point x="73" y="397" type="line"/>
      <point x="97" y="402"/>
      <point x="100" y="402"/>
      <point x="107" y="402" type="curve" smooth="yes"/>
      <point x="134.879" y="402"/>
      <point x="142.173" y="389.657"/>
      <point x="142.173" y="365.074" type="curve" smooth="yes"/>
      <point x="142.173" y="355.718"/>
      <point x="140.44" y="342.92"/>
      <point x="126" y="292" type="curve" smooth="yes"/>
    </contour>
  </outline>
</glyph>
<glyph name="s" format="2">
  <advance width="388"/>
  <unicode hex="0073"/>
  <anchor x="244.9" y="492" name="top"/>
  <anchor x="165.899" y="5" name="cedilla"/>
  <anchor x="143" y="-50" name="bottom"/>
  <outline>
    <contour>
      <point x="16" y="-13" type="line"/>
      <point x="32" y="-13" type="line"/>
      <point x="40" y="3"/>
      <point x="46" y="8"/>
      <point x="56" y="8" type="curve" smooth="yes"/>
      <point x="89" y="8"/>
      <point x="121" y="-11"/>
      <point x="160" y="-11" type="curve" smooth="yes"/>
      <point x="244" y="-11"/>
      <point x="304" y="43"/>
      <point x="304" y="119" type="curve" smooth="yes"/>
      <point x="304" y="215"/>
      <point x="182" y="290"/>
      <point x="182" y="364" type="curve" smooth="yes"/>
      <point x="182" y="397"/>
      <point x="203" y="418"/>
      <point x="238" y="418" type="curve" smooth="yes"/>
      <point x="290" y="418"/>
      <point x="320" y="381"/>
      <point x="330" y="303" type="curve"/>
      <point x="346" y="303" type="line"/>
      <point x="366" y="442" type="line"/>
      <point x="352" y="442" type="line"/>
      <point x="344" y="428"/>
      <point x="336" y="424"/>
      <point x="322" y="424" type="curve" smooth="yes"/>
      <point x="300" y="424"/>
      <point x="267" y="441"/>
      <point x="230" y="441" type="curve" smooth="yes"/>
      <point x="157" y="441"/>
      <point x="109" y="398"/>
      <point x="109" y="331" type="curve" smooth="yes"/>
      <point x="109" y="245.605"/>
      <point x="228" y="167.037"/>
      <point x="228" y="87" type="curve" smooth="yes"/>
      <point x="228" y="42"/>
      <point x="198" y="10"/>
      <point x="154" y="10" type="curve" smooth="yes"/>
      <point x="99" y="10"/>
      <point x="68" y="51"/>
      <point x="52" y="146" type="curve"/>
      <point x="36" y="146" type="line"/>
    </contour>
  </outline>
</glyph>
<glyph name="t" format="2">
  <advance width="277"/>
  <unicode hex="0074"/>
  <anchor x="245" y="600" name="top"/>
  <anchor x="104.133" y="5" name="cedilla"/>
  <anchor x="80" y="-50" name="bottom"/>
  <outline>
    <contour>
      <point x="37" y="27" type="curve" smooth="yes"/>
      <point x="37" y="5"/>
      <point x="58" y="-11"/>
      <point x="85" y="-11" type="curve" smooth="yes"/>
      <point x="131" y="-11"/>
      <point x="164" y="17"/>
      <point x="227" y="110" type="curve"/>
      <point x="214" y="117" type="line"/>
      <point x="165" y="54"/>
      <point x="149" y="38"/>
      <point x="133" y="38" type="curve" smooth="yes"/>
      <point x="120.617" y="38"/>
      <point x="118.264" y="48.3845"/>
      <point x="118.264" y="55.8611" type="curve" smooth="yes"/>
      <point x="118.264" y="59.2527"/>
      <point x="118.748" y="62.0459"/>
      <point x="119" y="63" type="curve" smooth="yes"/>
      <point x="207" y="396" type="line"/>
      <point x="291" y="396" type="line"/>
      <point x="296" y="428" type="line"/>
      <point x="216" y="428" type="line"/>
      <point x="245" y="538" type="line"/>
      <point x="222" y="538" type="line"/>
      <point x="162.006" y="459.546"/>
      <point x="112.198" y="431.112"/>
      <point x="58" y="415.017" type="curve"/>
      <point x="58" y="396" type="line"/>
      <point x="132" y="396" type="line"/>
      <point x="54" y="100" type="line" smooth="yes"/>
      <point x="46.019" y="69.713"/>
      <point x="37" y="35"/>
    </contour>
  </outline>
</glyph>
<glyph name="v" format="2">
  <advance width="443"/>
  <unicode hex="0076"/>
  <anchor x="263.912" y="492" name="top"/>
  <anchor x="138" y="-70" name="bottom"/>
  <outline>
    <contour>
      <point x="137.851" y="-18" type="curve"/>
      <point x="157.973" y="-18" type="line"/>
      <point x="234.391" y="50.4954"/>
      <point x="426" y="272.608"/>
      <point x="426" y="382" type="curve" smooth="yes"/>
      <point x="426" y="414"/>
      <point x="400" y="441"/>
      <point x="370" y="441" type="curve" smooth="yes"/>
      <point x="348" y="441"/>
      <point x="333" y="428"/>
      <point x="333" y="407" type="curve" smooth="yes"/>
      <point x="333" y="367.636"/>
      <point x="375" y="361.132"/>
      <point x="375" y="333" type="curve" smooth="yes"/>
      <point x="375" y="254.059"/>
      <point x="249.179" y="112.606"/>
      <point x="201.479" y="64.3567" type="curve"/>
      <point x="207.638" y="56.2778" type="line"/>
      <point x="208.269" y="72.1129"/>
      <point x="208.568" y="87.7817"/>
      <point x="208.568" y="103.235" type="curve" smooth="yes"/>
      <point x="208.568" y="222.902"/>
      <point x="189.043" y="353.106"/>
      <point x="158.793" y="435.168" type="curve"/>
      <point x="152" y="441" type="line"/>
      <point x="116.647" y="429.7"/>
      <point x="61.4537" y="422.387"/>
      <point x="21" y="416" type="curve"/>
      <point x="21" y="403" type="line"/>
      <point x="32" y="404"/>
      <point x="40" y="404"/>
      <point x="51" y="404" type="curve" smooth="yes"/>
      <point x="103.236" y="404"/>
      <point x="137.851" y="235.81"/>
    </contour>
  </outline>
</glyph>
<glyph name="w" format="2">
  <advance width="666"/>
  <unicode hex="0077"/>
  <anchor x="391.958" y="492" name="top"/>
  <anchor x="391.958" y="492" name="t.ring"/>
  <anchor x="282.365" y="-70" name="bottom"/>
  <outline>
    <contour>
      <point x="117.153" y="-18" type="curve"/>
      <point x="143.135" y="-18" type="line"/>
      <point x="341.023" y="331.212" type="line"/>
      <point x="342.977" y="330.788" type="line"/>
      <point x="373.727" y="-18" type="line"/>
      <point x="382" y="-18" type="line"/>
      <point x="463.809" y="58.8265"/>
      <point x="648" y="285.445"/>
      <point x="648" y="389" type="curve" smooth="yes"/>
      <point x="648" y="419"/>
      <point x="626" y="441"/>
      <point x="596" y="441" type="curve" smooth="yes"/>
      <point x="572" y="441"/>
      <point x="557" y="428"/>
      <point x="557" y="407" type="curve" smooth="yes"/>
      <point x="557" y="375"/>
      <point x="600" y="365"/>
      <point x="600" y="334" type="curve" smooth="yes"/>
      <point x="600" y="291"/>
      <point x="566" y="237"/>
      <point x="435" y="74" type="curve"/>
      <point x="403" y="440.005" type="line"/>
      <point x="377.469" y="440.005" type="line"/>
      <point x="183.613" y="109.529" type="line"/>
      <point x="188.842" y="109.626" type="line"/>
      <point x="200" y="183.099"/>
      <point x="174.574" y="375"/>
      <point x="150.521" y="436.992" type="curve"/>
      <point x="143.438" y="441" type="line"/>
      <point x="109.743" y="431.491"/>
      <point x="53.0084" y="423.168"/>
      <point x="16" y="417" type="curve"/>
      <point x="16" y="404" type="line"/>
      <point x="28.9289" y="405.241"/>
      <point x="39.5647" y="405.241"/>
      <point x="51.3182" y="405.241" type="curve" smooth="yes"/>
      <point x="74.5643" y="405.241"/>
      <point x="83.5541" y="393.992"/>
      <point x="90" y="359" type="curve"/>
      <point x="110.879" y="259.826"/>
      <point x="119.575" y="145.328"/>
      <point x="119.575" y="42.9814" type="curve" smooth="yes"/>
      <point x="119.575" y="25.2688"/>
      <point x="118.937" y="5.66273"/>
    </contour>
  </outline>
  <guideline angle="95.1944" x="371" y="12"/>
  <guideline angle="0" x="0" y="-18"/>
</glyph>
<glyph name="x" format="2">
  <advance width="443"/>
  <unicode hex="0078"/>
  <anchor x="287.736" y="492" name="top"/>
  <outline>
    <contour>
      <point x="236" y="56" type="line" smooth="yes"/>
      <point x="249" y="5"/>
      <point x="262" y="-11"/>
      <point x="294" y="-11" type="curve" smooth="yes"/>
      <point x="332" y="-11"/>
      <point x="358" y="13"/>
      <point x="416" y="103" type="curve"/>
      <point x="402" y="111" type="line"/>
      <point x="386.995" y="87.2817"/>
      <point x="354.557" y="44"/>
      <point x="334" y="44" type="curve" smooth="yes"/>
      <point x="319" y="44"/>
      <point x="309.205" y="56.8132"/>
      <point x="303" y="85" type="curve" smooth="yes"/>
      <point x="244" y="353" type="line" smooth="yes"/>
      <point x="233.673" y="399.911"/>
      <point x="225.04" y="423.683"/>
      <point x="217.407" y="438.203" type="curve"/>
      <point x="211.599" y="441" type="line"/>
      <point x="169.405" y="426.533"/>
      <point x="114" y="415.863"/>
      <point x="64" y="408" type="curve"/>
      <point x="70.2812" y="388.51" type="line"/>
      <point x="97.7896" y="394.392"/>
      <point x="118.548" y="397.297"/>
      <point x="127.548" y="397.297" type="curve" smooth="yes"/>
      <point x="152.548" y="397.297"/>
      <point x="157.945" y="381.034"/>
      <point x="169" y="335" type="curve" smooth="yes"/>
    </contour>
    <contour>
      <point x="-27" y="31" type="curve" smooth="yes"/>
      <point x="-27" y="5"/>
      <point x="-7" y="-11"/>
      <point x="23" y="-11" type="curve" smooth="yes"/>
      <point x="83.3107" y="-11"/>
      <point x="160.004" y="103.255"/>
      <point x="219.479" y="194.674" type="curve"/>
      <point x="206.609" y="224.284" type="line"/>
      <point x="198.638" y="212.91"/>
      <point x="95.8853" y="47"/>
      <point x="65" y="47" type="curve" smooth="yes"/>
      <point x="47" y="47"/>
      <point x="30" y="66"/>
      <point x="7" y="66" type="curve" smooth="yes"/>
      <point x="-12" y="66"/>
      <point x="-27" y="51"/>
    </contour>
    <contour>
      <point x="250.31" y="241.277" type="line"/>
      <point x="300.03" y="332.284"/>
      <point x="341.298" y="385"/>
      <point x="361" y="385" type="curve" smooth="yes"/>
      <point x="379" y="385"/>
      <point x="392" y="368"/>
      <point x="412" y="368" type="curve" smooth="yes"/>
      <point x="433" y="368"/>
      <point x="447" y="383"/>
      <point x="447" y="404" type="curve" smooth="yes"/>
      <point x="447" y="425"/>
      <point x="430" y="441"/>
      <point x="406" y="441" type="curve" smooth="yes"/>
      <point x="358.939" y="441"/>
      <point x="318.742" y="399.817"/>
      <point x="240.138" y="274.628" type="curve"/>
    </contour>
  </outline>
</glyph>
<glyph name="y" format="2">
  <advance width="443"/>
  <unicode hex="0079"/>
  <anchor x="263.603" y="492" name="top"/>
  <anchor x="337.426" y="-70" name="bottom"/>
  <anchor x="263.603" y="492" name="t.ring"/>
  <outline>
    <contour>
      <point x="15" y="-123" type="curve" smooth="yes"/>
      <point x="-7" y="-123"/>
      <point x="-24" y="-140"/>
      <point x="-24" y="-162" type="curve" smooth="yes"/>
      <point x="-24" y="-187"/>
      <point x="-2" y="-206"/>
      <point x="27" y="-206" type="curve" smooth="yes"/>
      <point x="142.565" y="-206"/>
      <point x="426" y="253.399"/>
      <point x="426" y="386" type="curve" smooth="yes"/>
      <point x="426" y="416"/>
      <point x="401" y="441"/>
      <point x="371" y="441" type="curve" smooth="yes"/>
      <point x="348" y="441"/>
      <point x="332" y="426"/>
      <point x="332" y="404" type="curve" smooth="yes"/>
      <point x="332" y="363"/>
      <point x="386" y="368"/>
      <point x="386" y="331" type="curve" smooth="yes"/>
      <point x="386" y="291"/>
      <point x="349" y="213"/>
      <point x="264.983" y="71.8152" type="curve"/>
      <point x="263.017" y="72.1848" type="line"/>
      <point x="258.612" y="178.558"/>
      <point x="210.506" y="360.727"/>
      <point x="164.281" y="437.533" type="curve"/>
      <point x="152.9" y="441.031" type="line"/>
      <point x="106.222" y="428.768"/>
      <point x="61.3049" y="421.058"/>
      <point x="15" y="417" type="curve"/>
      <point x="15" y="400" type="line"/>
      <point x="28" y="403"/>
      <point x="35" y="404"/>
      <point x="46" y="404" type="curve" smooth="yes"/>
      <point x="139.736" y="404"/>
      <point x="205" y="93.4445"/>
      <point x="205" y="8" type="curve" smooth="yes"/>
      <point x="205" y="-8"/>
      <point x="198.166" y="-23.3369"/>
      <point x="184" y="-42" type="curve" smooth="yes"/>
      <point x="161.275" y="-71.938" type="line" smooth="yes"/>
      <point x="114.885" y="-133.053"/>
      <point x="96.032" y="-151"/>
      <point x="76" y="-151" type="curve" smooth="yes"/>
      <point x="62" y="-151"/>
      <point x="38" y="-123"/>
    </contour>
  </outline>
</glyph>
<glyph name="z" format="2">
  <advance width="388"/>
  <unicode hex="007A"/>
  <anchor x="253.498" y="492" name="top"/>
  <anchor x="130" y="-70" name="bottom"/>
  <outline>
    <contour>
      <point x="-2" y="-4" type="line"/>
      <point x="7" y="-13" type="line"/>
      <point x="23" y="0"/>
      <point x="36" y="5"/>
      <point x="53" y="5" type="curve" smooth="yes"/>
      <point x="122" y="5"/>
      <point x="193" y="-81"/>
      <point x="269" y="-81" type="curve" smooth="yes"/>
      <point x="319" y="-81"/>
      <point x="363" y="-45"/>
      <point x="363" y="-5" type="curve" smooth="yes"/>
      <point x="363" y="16"/>
      <point x="349" y="31"/>
      <point x="328" y="31" type="curve" smooth="yes"/>
      <point x="308" y="31"/>
      <point x="294" y="18"/>
      <point x="294" y="0" type="curve" smooth="yes"/>
      <point x="294" y="-20"/>
      <point x="308" y="-35"/>
      <point x="308" y="-45" type="curve" smooth="yes"/>
      <point x="308" y="-54"/>
      <point x="297" y="-60"/>
      <point x="281" y="-60" type="curve" smooth="yes"/>
      <point x="256" y="-60"/>
      <point x="244" y="-52"/>
      <point x="211" y="-10" type="curve" smooth="yes"/>
      <point x="167" y="47"/>
      <point x="148" y="60"/>
      <point x="90" y="73" type="curve"/>
      <point x="380" y="417" type="line"/>
      <point x="380" y="428" type="line"/>
      <point x="96" y="428" type="line"/>
      <point x="65" y="313" type="line"/>
      <point x="81" y="309" type="line"/>
      <point x="102" y="359"/>
      <point x="115" y="368"/>
      <point x="162" y="368" type="curve" smooth="yes"/>
      <point x="308" y="368" type="line"/>
    </contour>
  </outline>
</glyph>
<glyph name="braceleft" format="2">
  <advance width="399"/>
  <unicode hex="007B"/>
  <outline>
    <contour>
      <point x="51" y="-99" type="curve" smooth="yes"/>
      <point x="51" y="-154"/>
      <point x="84" y="-174"/>
      <point x="176" y="-177" type="curve"/>
      <point x="179" y="-166" type="line"/>
      <point x="141" y="-155"/>
      <point x="126" y="-137"/>
      <point x="126" y="-100" type="curve" smooth="yes"/>
      <point x="126" y="-87.8019"/>
      <point x="129.649" y="-67.5852"/>
      <point x="140.055" y="-28.3056" type="curve" smooth="yes"/>
      <point x="164.199" y="62.8371" type="line" smooth="yes"/>
      <point x="181.596" y="128.511"/>
      <point x="192" y="178.044"/>
      <point x="192" y="192" type="curve" smooth="yes"/>
      <point x="192" y="219"/>
      <point x="176" y="238"/>
      <point x="137" y="255" type="curve"/>
      <point x="202" y="272"/>
      <point x="228" y="301"/>
      <point x="250" y="384" type="curve" smooth="yes"/>
      <point x="295" y="552" type="line" smooth="yes"/>
      <point x="316" y="631"/>
      <point x="342" y="660"/>
      <point x="404" y="676" type="curve"/>
      <point x="407" y="687" type="line"/>
      <point x="294" y="687"/>
      <point x="249" y="653"/>
      <point x="218" y="547" type="curve"/>
      <point x="170" y="369" type="line" smooth="yes"/>
      <point x="151" y="296"/>
      <point x="129" y="272"/>
      <point x="65" y="255" type="curve"/>
      <point x="104" y="241"/>
      <point x="117" y="227"/>
      <point x="117" y="198" type="curve" smooth="yes"/>
      <point x="117" y="179.094"/>
      <point x="110.169" y="142.023"/>
      <point x="95.6376" y="90.226" type="curve" smooth="yes"/>
      <point x="69.6532" y="-2.39585" type="line" smooth="yes"/>
      <point x="56.337" y="-49.8618"/>
      <point x="51" y="-81.3117"/>
    </contour>
  </outline>
</glyph>
<glyph name="bar" format="2">
  <advance width="274"/>
  <unicode hex="007C"/>
  <outline>
    <contour>
      <point x="105" y="-18" type="line"/>
      <point x="171" y="-18" type="line"/>
      <point x="171" y="666" type="line"/>
      <point x="105" y="666" type="line"/>
    </contour>
  </outline>
</glyph>
<glyph name="braceright" format="2">
  <advance width="399"/>
  <unicode hex="007D"/>
  <outline>
    <contour>
      <point x="-7" y="-177" type="line"/>
      <point x="105" y="-177"/>
      <point x="151" y="-143"/>
      <point x="182" y="-37" type="curve"/>
      <point x="230" y="141" type="line" smooth="yes"/>
      <point x="249" y="214"/>
      <point x="271" y="238"/>
      <point x="335" y="255" type="curve"/>
      <point x="296" y="269"/>
      <point x="283" y="283"/>
      <point x="283" y="312" type="curve" smooth="yes"/>
      <point x="283" y="327.207"/>
      <point x="286.379" y="353.927"/>
      <point x="296.504" y="390.584" type="curve" smooth="yes"/>
      <point x="325.791" y="496.617" type="line" smooth="yes"/>
      <point x="341.304" y="552.78"/>
      <point x="349" y="590.308"/>
      <point x="349" y="609" type="curve" smooth="yes"/>
      <point x="349" y="663"/>
      <point x="315" y="684"/>
      <point x="224" y="687" type="curve"/>
      <point x="221" y="676" type="line"/>
      <point x="259" y="665"/>
      <point x="274" y="646"/>
      <point x="274" y="609" type="curve" smooth="yes"/>
      <point x="274" y="597.349"/>
      <point x="268.658" y="571.166"/>
      <point x="256.412" y="524.912" type="curve" smooth="yes"/>
      <point x="227.635" y="416.218" type="line" smooth="yes"/>
      <point x="214.374" y="366.132"/>
      <point x="208" y="329.703"/>
      <point x="208" y="318" type="curve" smooth="yes"/>
      <point x="208" y="291"/>
      <point x="224" y="272"/>
      <point x="263" y="255" type="curve"/>
      <point x="197" y="238"/>
      <point x="172" y="209"/>
      <point x="150" y="126" type="curve" smooth="yes"/>
      <point x="105" y="-42" type="line" smooth="yes"/>
      <point x="84" y="-121"/>
      <point x="58" y="-150"/>
      <point x="-4" y="-166" type="curve"/>
    </contour>
  </outline>
</glyph>
<glyph name="exclamdown" format="2">
  <advance width="388"/>
  <unicode hex="00A1"/>
  <outline>
    <contour>
      <point x="59" y="-154" type="curve" smooth="yes"/>
      <point x="59" y="-188"/>
      <point x="73" y="-205"/>
      <point x="99" y="-205" type="curve" smooth="yes"/>
      <point x="135" y="-205"/>
      <point x="155" y="-172"/>
      <point x="169" y="-89" type="curve" smooth="yes"/>
      <point x="188" y="29"/>
      <point x="205" y="118"/>
      <point x="241" y="281" type="curve"/>
      <point x="224" y="285" type="line"/>
      <point x="171" y="140"/>
      <point x="136" y="52"/>
      <point x="97" y="-31" type="curve" smooth="yes"/>
      <point x="68.069" y="-92.5711"/>
      <point x="59" y="-124"/>
    </contour>
    <contour>
      <point x="270" y="474" type="curve" smooth="yes"/>
      <point x="240" y="474"/>
      <point x="215" y="450"/>
      <point x="215" y="422" type="curve" smooth="yes"/>
      <point x="215" y="393"/>
      <point x="240" y="368"/>
      <point x="269" y="368" type="curve" smooth="yes"/>
      <point x="296" y="368"/>
      <point x="321" y="393"/>
      <point x="321" y="419" type="curve" smooth="yes"/>
      <point x="321" y="451"/>
      <point x="299" y="474"/>
    </contour>
  </outline>
</glyph>
<glyph name="cent" format="2">
  <advance width="500"/>
  <unicode hex="00A2"/>
  <outline>
    <contour>
      <point x="137" y="-143" type="line"/>
      <point x="168" y="-143" type="line"/>
      <point x="414" y="560" type="line"/>
      <point x="384" y="560" type="line"/>
    </contour>
    <contour>
      <point x="472" y="363.146" type="curve" smooth="yes"/>
      <point x="472" y="407.206"/>
      <point x="426.525" y="441"/>
      <point x="359.574" y="441" type="curve" smooth="yes"/>
      <point x="219.959" y="441"/>
      <point x="77" y="294.042"/>
      <point x="77" y="137.318" type="curve" smooth="yes"/>
      <point x="77" y="43.5878"/>
      <point x="128.133" y="-11"/>
      <point x="222.791" y="-11" type="curve" smooth="yes"/>
      <point x="296.467" y="-11"/>
      <point x="354.571" y="22.0699"/>
      <point x="413" y="96" type="curve"/>
      <point x="397" y="106" type="line"/>
      <point x="348.174" y="51.896"/>
      <point x="300.691" y="25"/>
      <point x="254.617" y="25" type="curve" smooth="yes"/>
      <point x="195.75" y="25"/>
      <point x="163" y="68.9066"/>
      <point x="163" y="147.993" type="curve" smooth="yes"/>
      <point x="163" y="285.055"/>
      <point x="261.366" y="420"/>
      <point x="359.701" y="420" type="curve" smooth="yes"/>
      <point x="384.15" y="420"/>
      <point x="400" y="411.658"/>
      <point x="400" y="397.638" type="curve" smooth="yes"/>
      <point x="400" y="384"/>
      <point x="385" y="375"/>
      <point x="385" y="351.883" type="curve" smooth="yes"/>
      <point x="385" y="328.362"/>
      <point x="400.527" y="314"/>
      <point x="424.115" y="314" type="curve" smooth="yes"/>
      <point x="451.793" y="314"/>
      <point x="472" y="333.777"/>
    </contour>
  </outline>
</glyph>
<glyph name="sterling" format="2">
  <advance width="500"/>
  <unicode hex="00A3"/>
  <outline>
    <contour>
      <point x="10" y="58" type="curve" smooth="yes"/>
      <point x="10" y="20"/>
      <point x="36" y="-6"/>
      <point x="75" y="-6" type="curve" smooth="yes"/>
      <point x="110" y="-6"/>
      <point x="132" y="8"/>
      <point x="171" y="57" type="curve"/>
      <point x="235" y="8"/>
      <point x="266" y="-6"/>
      <point x="315" y="-6" type="curve" smooth="yes"/>
      <point x="382" y="-6"/>
      <point x="432" y="29"/>
      <point x="457" y="91" type="curve"/>
      <point x="446" y="100" type="line"/>
      <point x="415.199" y="78.4394"/>
      <point x="395.93" y="66"/>
      <point x="357" y="66" type="curve" smooth="yes"/>
      <point x="315" y="66"/>
      <point x="268" y="77"/>
      <point x="197" y="104" type="curve"/>
      <point x="238" y="193"/>
      <point x="244" y="209"/>
      <point x="270" y="319" type="curve"/>
      <point x="396" y="319" type="line"/>
      <point x="403" y="361" type="line"/>
      <point x="280" y="361" type="line"/>
      <point x="287.547" y="400.78" type="line" smooth="yes"/>
      <point x="324.848" y="597.39"/>
      <point x="359.814" y="644.199"/>
      <point x="423.23" y="644.199" type="curve" smooth="yes"/>
      <point x="439.906" y="644.199"/>
      <point x="449.476" y="636.29"/>
      <point x="449.476" y="622.427" type="curve" smooth="yes"/>
      <point x="449.476" y="599.669"/>
      <point x="442.583" y="600.616"/>
      <point x="442.583" y="578.854" type="curve" smooth="yes"/>
      <point x="442.583" y="562.717"/>
      <point x="456.228" y="550.858"/>
      <point x="474.795" y="550.858" type="curve" smooth="yes"/>
      <point x="501.849" y="550.858"/>
      <point x="517" y="565.59"/>
      <point x="517" y="594" type="curve" smooth="yes"/>
      <point x="517" y="639"/>
      <point x="479" y="670"/>
      <point x="424" y="670" type="curve" smooth="yes"/>
      <point x="271.492" y="670"/>
      <point x="212.241" y="481.009"/>
      <point x="191" y="361" type="curve"/>
      <point x="81" y="361" type="line"/>
      <point x="72" y="319" type="line"/>
      <point x="185" y="319" type="line"/>
      <point x="160" y="115" type="line"/>
      <point x="120" y="126"/>
      <point x="119" y="126"/>
      <point x="104" y="126" type="curve" smooth="yes"/>
      <point x="49" y="126"/>
      <point x="10" y="98"/>
    </contour>
    <contour>
      <point x="32" y="53" type="curve" smooth="yes"/>
      <point x="32" y="80"/>
      <point x="54" y="98"/>
      <point x="86" y="98" type="curve" smooth="yes"/>
      <point x="107" y="98"/>
      <point x="116" y="94"/>
      <point x="146" y="73" type="curve"/>
      <point x="134" y="39"/>
      <point x="105" y="16"/>
      <point x="75" y="16" type="curve" smooth="yes"/>
      <point x="51" y="16"/>
      <point x="32" y="32"/>
    </contour>
  </outline>
</glyph>
<glyph name="currency" format="2">
  <advance width="500"/>
  <unicode hex="00A4"/>
  <outline>
    <contour>
      <point x="-22" y="103" type="line"/>
      <point x="28" y="53" type="line"/>
      <point x="124" y="151" type="line"/>
      <point x="166" y="123"/>
      <point x="205" y="110"/>
      <point x="251" y="110" type="curve" smooth="yes"/>
      <point x="298" y="110"/>
      <point x="337" y="123"/>
      <point x="376" y="151" type="curve"/>
      <point x="474" y="53" type="line"/>
      <point x="522" y="103" type="line"/>
      <point x="426" y="199" type="line"/>
      <point x="454" y="242"/>
      <point x="465" y="279"/>
      <point x="465" y="326" type="curve" smooth="yes"/>
      <point x="465" y="373"/>
      <point x="453" y="410"/>
      <point x="426" y="451" type="curve"/>
      <point x="522" y="549" type="line"/>
      <point x="474" y="597" type="line"/>
      <point x="376" y="501" type="line"/>
      <point x="338" y="528"/>
      <point x="299" y="540"/>
      <point x="251" y="540" type="curve" smooth="yes"/>
      <point x="204" y="540"/>
      <point x="167" y="529"/>
      <point x="124" y="501" type="curve"/>
      <point x="28" y="597" type="line"/>
      <point x="-22" y="549" type="line"/>
      <point x="76" y="451" type="line"/>
      <point x="47" y="411"/>
      <point x="35" y="373"/>
      <point x="35" y="325" type="curve" smooth="yes"/>
      <point x="35" y="278"/>
      <point x="47" y="241"/>
      <point x="76" y="199" type="curve"/>
    </contour>
    <contour>
      <point x="253" y="476" type="curve" smooth="yes"/>
      <point x="332" y="476"/>
      <point x="397" y="408"/>
      <point x="397" y="326" type="curve" smooth="yes"/>
      <point x="397" y="241"/>
      <point x="332" y="174"/>
      <point x="251" y="174" type="curve" smooth="yes"/>
      <point x="169" y="174"/>
      <point x="103" y="242"/>
      <point x="103" y="327" type="curve" smooth="yes"/>
      <point x="103" y="410"/>
      <point x="170" y="476"/>
    </contour>
  </outline>
</glyph>
<glyph name="yen" format="2">
  <advance width="500"/>
  <unicode hex="00A5"/>
  <outline>
    <contour>
      <point x="52" y="0" type="line"/>
      <point x="337" y="0" type="line"/>
      <point x="337" y="16" type="line"/>
      <point x="277.975" y="21.1954"/>
      <point x="245" y="26.8899"/>
      <point x="245" y="57" type="curve" smooth="yes"/>
      <point x="245" y="74.6768"/>
      <point x="248.536" y="93.7486"/>
      <point x="263.364" y="141.397" type="curve" smooth="yes"/>
      <point x="276" y="182" type="line"/>
      <point x="456" y="182" type="line"/>
      <point x="468" y="222" type="line"/>
      <point x="288" y="222" type="line"/>
      <point x="312" y="304" type="line"/>
      <point x="318" y="312" type="line"/>
      <point x="488" y="312" type="line"/>
      <point x="500" y="352" type="line"/>
      <point x="349" y="352" type="line"/>
      <point x="530" y="576" type="line" smooth="yes"/>
      <point x="562" y="616"/>
      <point x="571" y="623"/>
      <point x="603" y="637" type="curve"/>
      <point x="603" y="653" type="line"/>
      <point x="414" y="653" type="line"/>
      <point x="414" y="637" type="line"/>
      <point x="453.495" y="632.886"/>
      <point x="483" y="626.742"/>
      <point x="483" y="606" type="curve" smooth="yes"/>
      <point x="483" y="590.936"/>
      <point x="470.967" y="562.903"/>
      <point x="438.114" y="523.047" type="curve" smooth="yes"/>
      <point x="293" y="347" type="line"/>
      <point x="240.397" y="528.391" type="line" smooth="yes"/>
      <point x="232.595" y="555.293"/>
      <point x="225" y="593.928"/>
      <point x="225" y="601" type="curve" smooth="yes"/>
      <point x="225" y="626"/>
      <point x="236" y="631"/>
      <point x="300" y="637" type="curve"/>
      <point x="300" y="653" type="line"/>
      <point x="61" y="653" type="line"/>
      <point x="61" y="637" type="line"/>
      <point x="127" y="629"/>
      <point x="132" y="625"/>
      <point x="149" y="571" type="curve"/>
      <point x="212" y="352" type="line"/>
      <point x="72" y="352" type="line"/>
      <point x="60" y="312" type="line"/>
      <point x="223" y="312" type="line"/>
      <point x="226" y="302" type="line"/>
      <point x="203" y="222" type="line"/>
      <point x="39" y="222" type="line"/>
      <point x="27" y="182" type="line"/>
      <point x="192" y="182" type="line"/>
      <point x="165" y="90" type="line" smooth="yes"/>
      <point x="149.817" y="38.2642"/>
      <point x="117.312" y="20"/>
      <point x="52" y="16" type="curve"/>
    </contour>
  </outline>
  <guideline angle="286.172" x="264" y="447"/>
</glyph>
<glyph name="section" format="2">
  <advance width="500"/>
  <unicode hex="00A7"/>
  <outline>
    <contour>
      <point x="53" y="-54" type="curve" smooth="yes"/>
      <point x="53" y="-115"/>
      <point x="113" y="-162"/>
      <point x="189" y="-162" type="curve" smooth="yes"/>
      <point x="277" y="-162"/>
      <point x="345" y="-103"/>
      <point x="345" y="-25" type="curve" smooth="yes"/>
      <point x="345" y="15"/>
      <point x="335" y="36"/>
      <point x="282" y="104" type="curve"/>
      <point x="284" y="107" type="line"/>
      <point x="296" y="102"/>
      <point x="303" y="100"/>
      <point x="317" y="100" type="curve" smooth="yes"/>
      <point x="387" y="100"/>
      <point x="435" y="151"/>
      <point x="435" y="226" type="curve" smooth="yes"/>
      <point x="435" y="267"/>
      <point x="420" y="308"/>
      <point x="394" y="340" type="curve" smooth="yes"/>
      <point x="271" y="490" type="line" smooth="yes"/>
      <point x="254" y="510"/>
      <point x="245" y="536"/>
      <point x="245" y="562" type="curve" smooth="yes"/>
      <point x="245" y="613"/>
      <point x="280" y="645"/>
      <point x="337" y="645" type="curve" smooth="yes"/>
      <point x="371" y="645"/>
      <point x="397" y="631"/>
      <point x="397" y="614" type="curve" smooth="yes"/>
      <point x="397" y="609"/>
      <point x="393" y="603"/>
      <point x="384" y="595" type="curve" smooth="yes"/>
      <point x="369" y="582"/>
      <point x="363" y="571"/>
      <point x="363" y="557" type="curve" smooth="yes"/>
      <point x="363" y="531"/>
      <point x="382" y="512"/>
      <point x="409" y="512" type="curve" smooth="yes"/>
      <point x="441" y="512"/>
      <point x="461" y="533"/>
      <point x="461" y="567" type="curve" smooth="yes"/>
      <point x="461" y="625"/>
      <point x="407" y="666"/>
      <point x="331" y="666" type="curve" smooth="yes"/>
      <point x="245" y="666"/>
      <point x="184" y="614"/>
      <point x="184" y="541" type="curve" smooth="yes"/>
      <point x="184" y="497"/>
      <point x="201" y="462"/>
      <point x="251" y="401" type="curve"/>
      <point x="249" y="398" type="line"/>
      <point x="232" y="405"/>
      <point x="213" y="409"/>
      <point x="196" y="409" type="curve" smooth="yes"/>
      <point x="138" y="409"/>
      <point x="90" y="353"/>
      <point x="90" y="286" type="curve" smooth="yes"/>
      <point x="90" y="239"/>
      <point x="114" y="186"/>
      <point x="161" y="133" type="curve" smooth="yes"/>
      <point x="237" y="46" type="line" smooth="yes"/>
      <point x="275" y="3"/>
      <point x="287" y="-21"/>
      <point x="287" y="-51" type="curve" smooth="yes"/>
      <point x="287" y="-104"/>
      <point x="245" y="-141"/>
      <point x="185" y="-141" type="curve" smooth="yes"/>
      <point x="148" y="-141"/>
      <point x="114" y="-124"/>
      <point x="114" y="-104" type="curve" smooth="yes"/>
      <point x="114" y="-98"/>
      <point x="118" y="-94"/>
      <point x="129" y="-87" type="curve" smooth="yes"/>
      <point x="149" y="-74"/>
      <point x="156" y="-63"/>
      <point x="156" y="-41" type="curve" smooth="yes"/>
      <point x="156" y="-14"/>
      <point x="138" y="2"/>
      <point x="109" y="2" type="curve" smooth="yes"/>
      <point x="74" y="2"/>
      <point x="53" y="-19"/>
    </contour>
    <contour>
      <point x="147" y="322" type="curve" smooth="yes"/>
      <point x="147" y="359"/>
      <point x="177" y="388"/>
      <point x="213" y="388" type="curve" smooth="yes"/>
      <point x="241.966" y="388"/>
      <point x="273.528" y="368.947"/>
      <point x="306" y="327.484" type="curve" smooth="yes"/>
      <point x="344.101" y="278.834" type="line" smooth="yes"/>
      <point x="370.93" y="244.577"/>
      <point x="377" y="218.603"/>
      <point x="377" y="192" type="curve" smooth="yes"/>
      <point x="377" y="154"/>
      <point x="347" y="121"/>
      <point x="312" y="121" type="curve" smooth="yes"/>
      <point x="288.562" y="121"/>
      <point x="253.9" y="139.405"/>
      <point x="227.974" y="172.216" type="curve" smooth="yes"/>
      <point x="181.13" y="231.502" type="line" smooth="yes"/>
      <point x="157.65" y="261.218"/>
      <point x="147" y="296.521"/>
    </contour>
  </outline>
</glyph>
<glyph name="dieresis" format="2">
  <advance width="332"/>
  <unicode hex="00A8"/>
  <anchor x="253.82" y="622" name="t.top"/>
  <anchor x="256.362" y="492" name="_top"/>
  <anchor x="256.362" y="492" name="_t.gr"/>
  <outline>
    <contour>
      <point x="157" y="606" type="curve" smooth="yes"/>
      <point x="129" y="606"/>
      <point x="107" y="584"/>
      <point x="107" y="558" type="curve" smooth="yes"/>
      <point x="107" y="530"/>
      <point x="129" y="508"/>
      <point x="156" y="508" type="curve" smooth="yes"/>
      <point x="183" y="508"/>
      <point x="205" y="530"/>
      <point x="205" y="557" type="curve" smooth="yes"/>
      <point x="205" y="582"/>
      <point x="182" y="606"/>
    </contour>
    <contour>
      <point x="357" y="606" type="curve" smooth="yes"/>
      <point x="329" y="606"/>
      <point x="307" y="584"/>
      <point x="307" y="558" type="curve" smooth="yes"/>
      <point x="307" y="530"/>
      <point x="329" y="508"/>
      <point x="356" y="508" type="curve" smooth="yes"/>
      <point x="383" y="508"/>
      <point x="405" y="530"/>
      <point x="405" y="557" type="curve" smooth="yes"/>
      <point x="405" y="582"/>
      <point x="382" y="606"/>
    </contour>
  </outline>
</glyph>
<glyph name="copyright" format="2">
  <advance width="759"/>
  <unicode hex="00A9"/>
  <outline>
    <contour>
      <point x="529" y="240" type="line"/>
      <point x="501" y="181"/>
      <point x="466" y="156"/>
      <point x="409" y="156" type="curve" smooth="yes"/>
      <point x="319" y="156"/>
      <point x="268" y="219"/>
      <point x="268" y="331" type="curve" smooth="yes"/>
      <point x="268" y="442"/>
      <point x="317" y="503"/>
      <point x="407" y="503" type="curve" smooth="yes"/>
      <point x="468" y="503"/>
      <point x="503" y="474"/>
      <point x="513" y="415" type="curve"/>
      <point x="529" y="415" type="line"/>
      <point x="529" y="484" type="line" smooth="yes"/>
      <point x="529" y="493"/>
      <point x="520.903" y="500.699"/>
      <point x="508" y="505" type="curve" smooth="yes"/>
      <point x="499" y="508" type="line" smooth="yes"/>
      <point x="467.194" y="518.602"/>
      <point x="440" y="523"/>
      <point x="409" y="523" type="curve" smooth="yes"/>
      <point x="280" y="523"/>
      <point x="191" y="441"/>
      <point x="191" y="323" type="curve" smooth="yes"/>
      <point x="191" y="209"/>
      <point x="272" y="136"/>
      <point x="398" y="136" type="curve" smooth="yes"/>
      <point x="432.685" y="136"/>
      <point x="457.768" y="139.296"/>
      <point x="501.889" y="152.312" type="curve" smooth="yes"/>
      <point x="511" y="155" type="line" smooth="yes"/>
      <point x="524.965" y="159.12"/>
      <point x="527.592" y="161.082"/>
      <point x="530" y="172" type="curve" smooth="yes"/>
      <point x="545" y="240" type="line"/>
    </contour>
    <contour>
      <point x="380" y="666" type="curve" smooth="yes"/>
      <point x="192" y="666"/>
      <point x="41" y="513"/>
      <point x="41" y="323" type="curve" smooth="yes"/>
      <point x="41" y="133"/>
      <point x="192" y="-18"/>
      <point x="382" y="-18" type="curve" smooth="yes"/>
      <point x="568" y="-18"/>
      <point x="719" y="133"/>
      <point x="719" y="318" type="curve" smooth="yes"/>
      <point x="719" y="515"/>
      <point x="572" y="666"/>
    </contour>
    <contour>
      <point x="381" y="624" type="curve" smooth="yes"/>
      <point x="538" y="624"/>
      <point x="664" y="488"/>
      <point x="664" y="319" type="curve" smooth="yes"/>
      <point x="664" y="160"/>
      <point x="534" y="24"/>
      <point x="381" y="24" type="curve" smooth="yes"/>
      <point x="226" y="24"/>
      <point x="96" y="160"/>
      <point x="96" y="323" type="curve" smooth="yes"/>
      <point x="96" y="487"/>
      <point x="226" y="624"/>
    </contour>
  </outline>
</glyph>
<glyph name="ordfeminine" format="2">
  <advance width="275"/>
  <unicode hex="00AA"/>
  <outline>
    <contour>
      <point x="42" y="476" type="curve" smooth="yes"/>
      <point x="42" y="433"/>
      <point x="72" y="406"/>
      <point x="120" y="406" type="curve" smooth="yes"/>
      <point x="169" y="406"/>
      <point x="197" y="425"/>
      <point x="246" y="493" type="curve"/>
      <point x="232" y="458"/>
      <point x="229" y="448"/>
      <point x="229" y="432" type="curve" smooth="yes"/>
      <point x="229" y="416"/>
      <point x="241" y="406"/>
      <point x="260" y="406" type="curve" smooth="yes"/>
      <point x="286" y="406"/>
      <point x="301" y="417"/>
      <point x="350" y="472" type="curve"/>
      <point x="343" y="482" type="line"/>
      <point x="333.658" y="470.796"/>
      <point x="308.387" y="443"/>
      <point x="298" y="443" type="curve" smooth="yes"/>
      <point x="296" y="443"/>
      <point x="294" y="446"/>
      <point x="294" y="449" type="curve" smooth="yes"/>
      <point x="294" y="456"/>
      <point x="295.513" y="466.51"/>
      <point x="297" y="472" type="curve" smooth="yes"/>
      <point x="352" y="675" type="line"/>
      <point x="297.467" y="673" type="line"/>
      <point x="290" y="641" type="line"/>
      <point x="285" y="665"/>
      <point x="265" y="676"/>
      <point x="231" y="676" type="curve" smooth="yes"/>
      <point x="143" y="676"/>
      <point x="42" y="569"/>
    </contour>
    <contour>
      <point x="115" y="480" type="curve" smooth="yes"/>
      <point x="115" y="551.761"/>
      <point x="193.993" y="658.316"/>
      <point x="245.282" y="658.316" type="curve" smooth="yes"/>
      <point x="264.463" y="658.316"/>
      <point x="269" y="635.133"/>
      <point x="269" y="620" type="curve" smooth="yes"/>
      <point x="269" y="567.695"/>
      <point x="206.661" y="440"/>
      <point x="144" y="440" type="curve" smooth="yes"/>
      <point x="129" y="440"/>
      <point x="115" y="460"/>
    </contour>
  </outline>
</glyph>
<glyph name="guillemotleft" format="2">
  <advance width="500"/>
  <unicode hex="00AB"/>
  <outline>
    <contour>
      <point x="53" y="216" type="line"/>
      <point x="64.933" y="202.702"/>
      <point x="105.573" y="151.655"/>
      <point x="120" y="132" type="curve" smooth="yes"/>
      <point x="133.415" y="113.724"/>
      <point x="188" y="37"/>
      <point x="201" y="37" type="curve" smooth="yes"/>
      <point x="209" y="37"/>
      <point x="209" y="43"/>
      <point x="209" y="45" type="curve" smooth="yes"/>
      <point x="209" y="56"/>
      <point x="161.127" y="154.762"/>
      <point x="127" y="217" type="curve"/>
      <point x="253" y="347"/>
      <point x="283" y="378"/>
      <point x="283" y="395" type="curve" smooth="yes"/>
      <point x="283" y="400"/>
      <point x="281" y="403"/>
      <point x="275" y="403" type="curve" smooth="yes"/>
      <point x="266" y="403"/>
      <point x="197" y="341"/>
      <point x="165" y="313" type="curve" smooth="yes"/>
      <point x="134" y="286"/>
      <point x="82" y="248"/>
      <point x="53" y="225" type="curve"/>
    </contour>
    <contour>
      <point x="215" y="216" type="line"/>
      <point x="227.382" y="202.207"/>
      <point x="266.879" y="153.405"/>
      <point x="282" y="132" type="curve" smooth="yes"/>
      <point x="295.081" y="113.483"/>
      <point x="350" y="37"/>
      <point x="363" y="37" type="curve" smooth="yes"/>
      <point x="371" y="37"/>
      <point x="371" y="43"/>
      <point x="371" y="45" type="curve" smooth="yes"/>
      <point x="371" y="56"/>
      <point x="323.828" y="155.421"/>
      <point x="289" y="217" type="curve"/>
      <point x="415" y="347"/>
      <point x="445" y="378"/>
      <point x="445" y="395" type="curve" smooth="yes"/>
      <point x="445" y="400"/>
      <point x="443" y="403"/>
      <point x="437" y="403" type="curve" smooth="yes"/>
      <point x="428" y="403"/>
      <point x="359" y="341"/>
      <point x="327" y="313" type="curve" smooth="yes"/>
      <point x="296" y="286"/>
      <point x="244" y="248"/>
      <point x="215" y="225" type="curve"/>
    </contour>
  </outline>
</glyph>
<glyph name="logicalnot" format="2">
  <advance width="674"/>
  <unicode hex="00AC"/>
  <outline>
    <contour>
      <point x="524" y="108" type="line"/>
      <point x="590" y="108" type="line"/>
      <point x="590" y="386" type="line"/>
      <point x="86" y="386" type="line"/>
      <point x="86" y="320" type="line"/>
      <point x="524" y="320" type="line"/>
    </contour>
  </outline>
</glyph>
<glyph name="uni00AD" format="2">
  <advance width="332"/>
  <unicode hex="00AD"/>
  <outline>
    <contour>
      <point x="282" y="255" type="line"/>
      <point x="63" y="255" type="line"/>
      <point x="49" y="192" type="line"/>
      <point x="269" y="192" type="line"/>
    </contour>
  </outline>
</glyph>
<glyph name="twosuperior" format="2">
  <advance width="306"/>
  <unicode hex="00B2"/>
  <outline>
    <contour>
      <point x="60.5493" y="350" type="line"/>
      <point x="291.549" y="350" type="line"/>
      <point x="324.549" y="429" type="line"/>
      <point x="313.549" y="437" type="line"/>
      <point x="297.549" y="410"/>
      <point x="284.549" y="403"/>
      <point x="248.549" y="403" type="curve" smooth="yes"/>
      <point x="140.549" y="403" type="line"/>
      <point x="138.549" y="408" type="line"/>
      <point x="252.549" y="518" type="line" smooth="yes"/>
      <point x="339.576" y="601.973"/>
      <point x="351.549" y="619"/>
      <point x="351.549" y="654" type="curve" smooth="yes"/>
      <point x="351.549" y="709"/>
      <point x="301.549" y="755"/>
      <point x="240.549" y="755" type="curve" smooth="yes"/>
      <point x="158.549" y="755"/>
      <point x="119.549" y="692"/>
      <point x="105.549" y="659" type="curve"/>
      <point x="118.549" y="651" type="line"/>
      <point x="147.549" y="689"/>
      <point x="172.549" y="704"/>
      <point x="208.549" y="704" type="curve" smooth="yes"/>
      <point x="251.549" y="704"/>
      <point x="286.549" y="674"/>
      <point x="286.549" y="637" type="curve" smooth="yes"/>
      <point x="286.549" y="605"/>
      <point x="255.249" y="558.308"/>
      <point x="193.549" y="498" type="curve" smooth="yes"/>
      <point x="60.5493" y="368" type="line"/>
    </contour>
  </outline>
  <guideline angle="0" x="0" y="350"/>
</glyph>
<glyph name="threesuperior" format="2">
  <advance width="299"/>
  <unicode hex="00B3"/>
  <outline>
    <contour>
      <point x="59.9107" y="388.105" type="curve" smooth="yes"/>
      <point x="59.9107" y="363.961"/>
      <point x="87.7497" y="350"/>
      <point x="135.992" y="350" type="curve" smooth="yes"/>
      <point x="240.962" y="350"/>
      <point x="317.911" y="416.099"/>
      <point x="317.911" y="506.283" type="curve" smooth="yes"/>
      <point x="317.911" y="563.524"/>
      <point x="286.911" y="578.476"/>
      <point x="258.911" y="592.43" type="curve" smooth="yes"/>
      <point x="254.911" y="594.424" type="line"/>
      <point x="259.276" y="595.963" type="line" smooth="yes"/>
      <point x="331.304" y="621.368"/>
      <point x="355.911" y="642.227"/>
      <point x="355.911" y="677.879" type="curve" smooth="yes"/>
      <point x="355.911" y="723.69"/>
      <point x="315.282" y="758"/>
      <point x="261.038" y="758" type="curve" smooth="yes"/>
      <point x="216.05" y="758"/>
      <point x="175.973" y="734.4"/>
      <point x="155.911" y="696.094" type="curve"/>
      <point x="165.911" y="689.117" type="line"/>
      <point x="194.272" y="715.437"/>
      <point x="212.425" y="725"/>
      <point x="234.034" y="725" type="curve" smooth="yes"/>
      <point x="266.379" y="725"/>
      <point x="288.911" y="703.572"/>
      <point x="288.911" y="672.789" type="curve" smooth="yes"/>
      <point x="288.911" y="627.783"/>
      <point x="240.75" y="597.206"/>
      <point x="141.911" y="579.472" type="curve"/>
      <point x="141.911" y="570.502" type="line"/>
      <point x="214.202" y="570.502"/>
      <point x="254.911" y="537.097"/>
      <point x="254.911" y="477.797" type="curve" smooth="yes"/>
      <point x="254.911" y="423.962"/>
      <point x="221.359" y="383"/>
      <point x="176.708" y="383" type="curve" smooth="yes"/>
      <point x="161.619" y="383"/>
      <point x="148.604" y="387.678"/>
      <point x="124.828" y="402.276" type="curve" smooth="yes"/>
      <point x="107.198" y="413.1"/>
      <point x="97.8787" y="417"/>
      <point x="88.8342" y="417" type="curve" smooth="yes"/>
      <point x="72.5681" y="417"/>
      <point x="59.9107" y="404.385"/>
    </contour>
  </outline>
  <guideline angle="0" x="0" y="350"/>
  <guideline angle="0" x="0" y="755"/>
</glyph>
<glyph name="uni00B5" format="2">
  <advance width="525"/>
  <unicode hex="00B5"/>
  <outline>
    <contour>
      <point x="42" y="54" type="line" smooth="yes"/>
      <point x="16" y="-63"/>
      <point x="-30" y="-84"/>
      <point x="-30" y="-164" type="curve" smooth="yes"/>
      <point x="-30" y="-194"/>
      <point x="-19" y="-209"/>
      <point x="4" y="-209" type="curve" smooth="yes"/>
      <point x="47" y="-209"/>
      <point x="75" y="-153"/>
      <point x="75" y="-66" type="curve" smooth="yes"/>
      <point x="75" y="-20.4049"/>
      <point x="72.7997" y="19.7939"/>
      <point x="75" y="66" type="curve"/>
      <point x="94" y="14"/>
      <point x="125" y="-10"/>
      <point x="178" y="-10" type="curve" smooth="yes"/>
      <point x="231" y="-10"/>
      <point x="301.628" y="60.0572"/>
      <point x="351.646" y="159.264" type="curve"/>
      <point x="335.631" y="105.097"/>
      <point x="328" y="59"/>
      <point x="328" y="49" type="curve" smooth="yes"/>
      <point x="328" y="10"/>
      <point x="347" y="-10"/>
      <point x="385" y="-10" type="curve" smooth="yes"/>
      <point x="432.761" y="-10"/>
      <point x="486.203" y="24.045"/>
      <point x="502.728" y="44.6186" type="curve"/>
      <point x="495" y="56" type="line"/>
      <point x="470" y="37"/>
      <point x="456" y="30"/>
      <point x="439" y="30" type="curve" smooth="yes"/>
      <point x="422" y="30"/>
      <point x="413" y="40"/>
      <point x="413" y="58" type="curve" smooth="yes"/>
      <point x="413" y="62.2357"/>
      <point x="413.843" y="69.7872"/>
      <point x="419" y="92" type="curve" smooth="yes"/>
      <point x="497" y="428" type="line"/>
      <point x="409" y="428" type="line"/>
      <point x="366.804" y="247.076" type="line" smooth="yes"/>
      <point x="341.111" y="136.914"/>
      <point x="257" y="45"/>
      <point x="214" y="45" type="curve" smooth="yes"/>
      <point x="172" y="45"/>
      <point x="145" y="72"/>
      <point x="145" y="114" type="curve" smooth="yes"/>
      <point x="145" y="123"/>
      <point x="146.328" y="136.914"/>
      <point x="148" y="144" type="curve" smooth="yes"/>
      <point x="215" y="428" type="line"/>
      <point x="127" y="428" type="line"/>
    </contour>
  </outline>
</glyph>
<glyph name="paragraph" format="2">
  <advance width="522"/>
  <unicode hex="00B6"/>
  <outline>
    <contour>
      <point x="55" y="-123" type="line"/>
      <point x="203" y="-123" type="line"/>
      <point x="403" y="632" type="line"/>
      <point x="461" y="632" type="line"/>
      <point x="261" y="-123" type="line"/>
      <point x="409" y="-123" type="line"/>
      <point x="414" y="-102" type="line"/>
      <point x="369.158" y="-99.1699"/>
      <point x="342" y="-93.0373"/>
      <point x="342" y="-76" type="curve" smooth="yes"/>
      <point x="342" y="-65.531"/>
      <point x="351.58" y="-31.3254"/>
      <point x="357" y="-11" type="curve" smooth="yes"/>
      <point x="513" y="574" type="line" smooth="yes"/>
      <point x="525.883" y="622.312"/>
      <point x="534" y="627"/>
      <point x="610" y="632" type="curve"/>
      <point x="616" y="653" type="line"/>
      <point x="359" y="653" type="line" smooth="yes"/>
      <point x="197.279" y="653"/>
      <point x="92" y="571.52"/>
      <point x="92" y="403" type="curve" smooth="yes"/>
      <point x="92" y="310.741"/>
      <point x="167.512" y="285.818"/>
      <point x="245" y="283" type="curve"/>
      <point x="161.287" y="-28.4518" type="line" smooth="yes"/>
      <point x="146.035" y="-85.1947"/>
      <point x="136.56" y="-95.3426"/>
      <point x="60" y="-102" type="curve"/>
    </contour>
    <contour>
      <point x="255" y="304" type="line"/>
      <point x="197.258" y="310.187"/>
      <point x="169" y="346.439"/>
      <point x="169" y="406" type="curve" smooth="yes"/>
      <point x="169" y="504.57"/>
      <point x="224.552" y="624.364"/>
      <point x="334" y="632" type="curve"/>
    </contour>
  </outline>
</glyph>
<glyph name="cedilla" format="2">
  <advance width="332"/>
  <unicode hex="00B8"/>
  <outline>
    <contour>
      <point x="21" y="-96" type="line"/>
      <point x="30" y="-104" type="line"/>
      <point x="44" y="-99"/>
      <point x="52" y="-97"/>
      <point x="62" y="-97" type="curve" smooth="yes"/>
      <point x="89" y="-97"/>
      <point x="108" y="-115"/>
      <point x="108" y="-141" type="curve" smooth="yes"/>
      <point x="108" y="-167"/>
      <point x="89" y="-182"/>
      <point x="55" y="-182" type="curve" smooth="yes"/>
      <point x="34" y="-182"/>
      <point x="17" y="-178"/>
      <point x="-13" y="-167" type="curve"/>
      <point x="-30" y="-196" type="line"/>
      <point x="12" y="-212"/>
      <point x="35" y="-217"/>
      <point x="63" y="-217" type="curve" smooth="yes"/>
      <point x="132" y="-217"/>
      <point x="182" y="-181"/>
      <point x="182" y="-131" type="curve" smooth="yes"/>
      <point x="182" y="-90"/>
      <point x="150" y="-63"/>
      <point x="100" y="-63" type="curve" smooth="yes"/>
      <point x="92" y="-63"/>
      <point x="85" y="-64"/>
      <point x="75" y="-66" type="curve"/>
      <point x="119" y="0" type="line"/>
      <point x="81" y="0" type="line"/>
    </contour>
  </outline>
</glyph>
<glyph name="onesuperior" format="2">
  <advance width="289"/>
  <unicode hex="00B9"/>
  <outline>
    <contour>
      <point x="74" y="350" type="line"/>
      <point x="255" y="350" type="line"/>
      <point x="255" y="366" type="line"/>
      <point x="216.957" y="368.529"/>
      <point x="206" y="371"/>
      <point x="206" y="386" type="curve" smooth="yes"/>
      <point x="206" y="395"/>
      <point x="206.709" y="401.063"/>
      <point x="210.893" y="414.543" type="curve" smooth="yes"/>
      <point x="315" y="750" type="line"/>
      <point x="310" y="755" type="line"/>
      <point x="266.52" y="746.105"/>
      <point x="225.362" y="737.686"/>
      <point x="179" y="733" type="curve"/>
      <point x="179" y="714" type="line"/>
      <point x="190.3" y="715.94"/>
      <point x="202.444" y="717.746"/>
      <point x="213.044" y="717.746" type="curve" smooth="yes"/>
      <point x="223.501" y="717.746"/>
      <point x="234" y="712.864"/>
      <point x="234" y="697" type="curve" smooth="yes"/>
      <point x="234" y="693"/>
      <point x="233" y="688"/>
      <point x="229" y="676" type="curve" smooth="yes"/>
      <point x="139" y="391" type="line" smooth="yes"/>
      <point x="134" y="376"/>
      <point x="121" y="371"/>
      <point x="74" y="366" type="curve"/>
    </contour>
  </outline>
  <guideline angle="72.7585" x="206" y="381"/>
  <guideline angle="0" x="0" y="350"/>
  <guideline angle="0" x="0" y="755"/>
</glyph>
<glyph name="ordmasculine" format="2">
  <advance width="309"/>
  <unicode hex="00BA"/>
  <outline>
    <contour>
      <point x="67" y="489" type="curve" smooth="yes"/>
      <point x="67" y="439"/>
      <point x="105" y="406"/>
      <point x="164" y="406" type="curve" smooth="yes"/>
      <point x="262" y="406"/>
      <point x="362" y="500"/>
      <point x="362" y="592" type="curve" smooth="yes"/>
      <point x="362" y="641"/>
      <point x="322" y="676"/>
      <point x="265" y="676" type="curve" smooth="yes"/>
      <point x="164" y="676"/>
      <point x="67" y="584"/>
    </contour>
    <contour>
      <point x="140" y="476" type="curve" smooth="yes"/>
      <point x="140" y="559.298"/>
      <point x="201.462" y="654.12"/>
      <point x="254.744" y="654.12" type="curve" smooth="yes"/>
      <point x="283.139" y="654.12"/>
      <point x="289" y="631.001"/>
      <point x="289" y="607" type="curve" smooth="yes"/>
      <point x="289" y="552.574"/>
      <point x="247.747" y="430"/>
      <point x="178" y="430" type="curve" smooth="yes"/>
      <point x="155" y="430"/>
      <point x="140" y="448"/>
    </contour>
  </outline>
</glyph>
<glyph name="guillemotright" format="2">
  <advance width="500"/>
  <unicode hex="00BB"/>
  <outline>
    <contour>
      <point x="217" y="45" type="curve" smooth="yes"/>
      <point x="217" y="40"/>
      <point x="219" y="37"/>
      <point x="225" y="37" type="curve" smooth="yes"/>
      <point x="227.086" y="37"/>
      <point x="413.895" y="191.583"/>
      <point x="447" y="215" type="curve"/>
      <point x="447" y="224" type="line"/>
      <point x="419.151" y="253.347"/>
      <point x="305.952" y="403"/>
      <point x="299" y="403" type="curve" smooth="yes"/>
      <point x="291" y="403"/>
      <point x="291" y="397"/>
      <point x="291" y="395" type="curve" smooth="yes"/>
      <point x="291" y="384"/>
      <point x="335.485" y="288.828"/>
      <point x="373" y="223" type="curve"/>
      <point x="247" y="93"/>
      <point x="217" y="62"/>
    </contour>
    <contour>
      <point x="55" y="45" type="curve" smooth="yes"/>
      <point x="55" y="40"/>
      <point x="57" y="37"/>
      <point x="63" y="37" type="curve" smooth="yes"/>
      <point x="65.0861" y="37"/>
      <point x="239.992" y="186.764"/>
      <point x="285" y="215" type="curve"/>
      <point x="285" y="224" type="line"/>
      <point x="254.009" y="258.603"/>
      <point x="143.952" y="403"/>
      <point x="137" y="403" type="curve" smooth="yes"/>
      <point x="129" y="403"/>
      <point x="129" y="397"/>
      <point x="129" y="395" type="curve" smooth="yes"/>
      <point x="129" y="384"/>
      <point x="173.847" y="289.266"/>
      <point x="211" y="223" type="curve"/>
      <point x="85" y="93"/>
      <point x="55" y="62"/>
    </contour>
  </outline>
</glyph>
<glyph name="questiondown" format="2">
  <advance width="500"/>
  <unicode hex="00BF"/>
  <outline>
    <contour>
      <point x="28" y="-76" type="curve" smooth="yes"/>
      <point x="28" y="-154"/>
      <point x="86" y="-205"/>
      <point x="175" y="-205" type="curve" smooth="yes"/>
      <point x="258" y="-205"/>
      <point x="316" y="-160"/>
      <point x="316" y="-96" type="curve" smooth="yes"/>
      <point x="316" y="-66"/>
      <point x="301" y="-48"/>
      <point x="277" y="-48" type="curve" smooth="yes"/>
      <point x="253" y="-48"/>
      <point x="237" y="-63"/>
      <point x="237" y="-83" type="curve" smooth="yes"/>
      <point x="237" y="-91"/>
      <point x="239" y="-96"/>
      <point x="244" y="-108" type="curve"/>
      <point x="250" y="-121"/>
      <point x="252" y="-127"/>
      <point x="252" y="-135" type="curve" smooth="yes"/>
      <point x="252" y="-165"/>
      <point x="225" y="-183"/>
      <point x="182" y="-183" type="curve" smooth="yes"/>
      <point x="131" y="-183"/>
      <point x="102" y="-153"/>
      <point x="102" y="-99" type="curve" smooth="yes"/>
      <point x="102" y="-46"/>
      <point x="126.527" y="-6.23361"/>
      <point x="189" y="67" type="curve" smooth="yes"/>
      <point x="223.45" y="107.384" type="line" smooth="yes"/>
      <point x="276.839" y="169.969"/>
      <point x="285.862" y="199.742"/>
      <point x="301" y="283" type="curve"/>
      <point x="284" y="285" type="line"/>
      <point x="267.883" y="218.231"/>
      <point x="256.539" y="185.775"/>
      <point x="202.14" y="139.296" type="curve" smooth="yes"/>
      <point x="162" y="105" type="line" smooth="yes"/>
      <point x="50.1456" y="9.43019"/>
      <point x="28" y="-15"/>
    </contour>
    <contour>
      <point x="314" y="473" type="curve" smooth="yes"/>
      <point x="286" y="473"/>
      <point x="262" y="448"/>
      <point x="262" y="421" type="curve" smooth="yes"/>
      <point x="262" y="392"/>
      <point x="286" y="368"/>
      <point x="315" y="368" type="curve" smooth="yes"/>
      <point x="344" y="368"/>
      <point x="367" y="391"/>
      <point x="367" y="421" type="curve" smooth="yes"/>
      <point x="367" y="450"/>
      <point x="344" y="473"/>
    </contour>
  </outline>
</glyph>
<glyph name="AE" format="2">
  <advance width="888"/>
  <unicode hex="00C6"/>
  <anchor x="607.018" y="704" name="top"/>
  <outline>
    <contour>
      <point x="-27" y="0" type="line"/>
      <point x="160" y="0" type="line"/>
      <point x="160" y="16" type="line"/>
      <point x="110.584" y="19.4191"/>
      <point x="96" y="27.1668"/>
      <point x="96" y="50" type="curve" smooth="yes"/>
      <point x="96" y="61.3802"/>
      <point x="107.056" y="85.285"/>
      <point x="126.071" y="110.102" type="curve" smooth="yes"/>
      <point x="508" y="601" type="line"/>
      <point x="514" y="601" type="line"/>
      <point x="362" y="64" type="line" smooth="yes"/>
      <point x="349" y="18"/>
      <point x="325" y="20"/>
      <point x="282" y="16" type="curve"/>
      <point x="282" y="0" type="line"/>
      <point x="780" y="0" type="line"/>
      <point x="844" y="164" type="line"/>
      <point x="826" y="169" type="line"/>
      <point x="750" y="54"/>
      <point x="680" y="32.7362"/>
      <point x="546" y="32.7362" type="curve" smooth="yes"/>
      <point x="520.203" y="32.7362" type="line" smooth="yes"/>
      <point x="494.475" y="32.7362"/>
      <point x="465" y="36.1569"/>
      <point x="465" y="63" type="curve" smooth="yes"/>
      <point x="465" y="72.8582"/>
      <point x="472.159" y="105.576"/>
      <point x="483.437" y="144.695" type="curve" smooth="yes"/>
      <point x="606" y="583" type="line" smooth="yes"/>
      <point x="614.852" y="616.197"/>
      <point x="631.324" y="620.674"/>
      <point x="655.816" y="620.674" type="curve" smooth="yes"/>
      <point x="740.43" y="620.674" type="line" smooth="yes"/>
      <point x="827.596" y="620.674"/>
      <point x="864.269" y="591.553"/>
      <point x="864.269" y="531.971" type="curve" smooth="yes"/>
      <point x="864.269" y="521.076"/>
      <point x="863.101" y="513.105"/>
      <point x="861" y="502" type="curve"/>
      <point x="878" y="500" type="line"/>
      <point x="911" y="653" type="line"/>
      <point x="394" y="653" type="line"/>
      <point x="394" y="638" type="line"/>
      <point x="417" y="636"/>
      <point x="458" y="630.061"/>
      <point x="458" y="608" type="curve" smooth="yes"/>
      <point x="458" y="601.403"/>
      <point x="437.489" y="569.084"/>
      <point x="402.886" y="525.696" type="curve" smooth="yes"/>
      <point x="57" y="92" type="line" smooth="yes"/>
      <point x="15.4008" y="39.84"/>
      <point x="-4.87707" y="17.2052"/>
      <point x="-27" y="16" type="curve"/>
    </contour>
    <contour>
      <point x="206" y="234" type="line"/>
      <point x="426" y="234" type="line"/>
      <point x="437" y="271" type="line"/>
      <point x="234" y="271" type="line"/>
    </contour>
    <contour>
      <point x="488.033" y="329.469" type="line"/>
      <point x="606" y="324.726" type="line" smooth="yes"/>
      <point x="688.933" y="321.391"/>
      <point x="691" y="308.726"/>
      <point x="691" y="278.726" type="curve" smooth="yes"/>
      <point x="691" y="261.726"/>
      <point x="689" y="248.726"/>
      <point x="684" y="226.726" type="curve"/>
      <point x="704" y="221.726" type="line"/>
      <point x="772" y="453.726" type="line"/>
      <point x="754" y="457.726" type="line"/>
      <point x="716" y="372.726"/>
      <point x="707.033" y="366.895"/>
      <point x="616" y="363.726" type="curve" smooth="yes"/>
      <point x="496.452" y="359.564" type="line"/>
    </contour>
  </outline>
</glyph>
<glyph name="Eth" format="2">
  <advance width="721"/>
  <unicode hex="00D0"/>
  <outline>
    <contour>
      <point x="48" y="326" type="line"/>
      <point x="391" y="326" type="line"/>
      <point x="403" y="368" type="line"/>
      <point x="60" y="368" type="line"/>
    </contour>
    <contour>
      <point x="700" y="378.316" type="curve" smooth="yes"/>
      <point x="700" y="547.699"/>
      <point x="584.406" y="653"/>
      <point x="408" y="653" type="curve" smooth="yes"/>
      <point x="130" y="653" type="line"/>
      <point x="130" y="637" type="line"/>
      <point x="185.395" y="633.937"/>
      <point x="207" y="620.67"/>
      <point x="207" y="589.715" type="curve" smooth="yes"/>
      <point x="207" y="576.591"/>
      <point x="203.053" y="557.344"/>
      <point x="196" y="532" type="curve" smooth="yes"/>
      <point x="73" y="90" type="line" smooth="yes"/>
      <point x="57.6111" y="34.7002"/>
      <point x="45.7303" y="23.8153"/>
      <point x="-8" y="16" type="curve"/>
      <point x="-8" y="0" type="line"/>
      <point x="245" y="0" type="line" smooth="yes"/>
      <point x="510.315" y="0"/>
      <point x="700" y="161.336"/>
    </contour>
    <contour>
      <point x="589" y="394.288" type="curve" smooth="yes"/>
      <point x="589" y="184.968"/>
      <point x="441.021" y="29.9977"/>
      <point x="242.94" y="29.9977" type="curve" smooth="yes"/>
      <point x="189.369" y="29.9977"/>
      <point x="170" y="41.3329"/>
      <point x="170" y="66.3041" type="curve" smooth="yes"/>
      <point x="170" y="80.0011"/>
      <point x="175.273" y="102.281"/>
      <point x="192" y="162" type="curve" smooth="yes"/>
      <point x="313" y="594" type="line" smooth="yes"/>
      <point x="318.848" y="614.879"/>
      <point x="335.268" y="623.004"/>
      <point x="378.489" y="623.004" type="curve" smooth="yes"/>
      <point x="513.067" y="623.004"/>
      <point x="589" y="544.231"/>
    </contour>
  </outline>
</glyph>
<glyph name="multiply" format="2">
  <advance width="674"/>
  <unicode hex="00D7"/>
  <outline>
    <contour>
      <point x="289" y="253" type="line"/>
      <point x="93" y="56" type="line"/>
      <point x="141" y="8" type="line"/>
      <point x="337" y="205" type="line"/>
      <point x="534" y="8" type="line"/>
      <point x="582" y="56" type="line"/>
      <point x="385" y="253" type="line"/>
      <point x="582" y="449" type="line"/>
      <point x="534" y="497" type="line"/>
      <point x="337" y="300" type="line"/>
      <point x="141" y="497" type="line"/>
      <point x="93" y="449" type="line"/>
    </contour>
  </outline>
</glyph>
<glyph name="Oslash" format="2">
  <advance width="721"/>
  <unicode hex="00D8"/>
  <anchor x="453.393" y="704" name="top"/>
  <anchor x="464.794" y="724" name="macron"/>
  <outline>
    <contour>
      <point x="69" y="-105" type="line"/>
      <point x="113" y="-105" type="line"/>
      <point x="669" y="722" type="line"/>
      <point x="625" y="722" type="line"/>
    </contour>
    <contour>
      <point x="60" y="222" type="curve" smooth="yes"/>
      <point x="60" y="91.7614"/>
      <point x="144.979" y="-18"/>
      <point x="281" y="-18" type="curve" smooth="yes"/>
      <point x="491" y="-18"/>
      <point x="699" y="205"/>
      <point x="699" y="431" type="curve" smooth="yes"/>
      <point x="699" y="566.943"/>
      <point x="605.822" y="666"/>
      <point x="468" y="666" type="curve" smooth="yes"/>
      <point x="259.694" y="666"/>
      <point x="60" y="420.459"/>
    </contour>
    <contour>
      <point x="165" y="176" type="curve" smooth="yes"/>
      <point x="165" y="329.263"/>
      <point x="273.473" y="633"/>
      <point x="464" y="633" type="curve" smooth="yes"/>
      <point x="555.745" y="633"/>
      <point x="594" y="560.628"/>
      <point x="594" y="475" type="curve" smooth="yes"/>
      <point x="594" y="321.372"/>
      <point x="486.951" y="15"/>
      <point x="295" y="15" type="curve" smooth="yes"/>
      <point x="204.296" y="15"/>
      <point x="165" y="95.1064"/>
    </contour>
  </outline>
</glyph>
<glyph name="Thorn" format="2">
  <advance width="610"/>
  <unicode hex="00DE"/>
  <outline>
    <contour>
      <point x="191.911" y="185.361" type="line"/>
      <point x="218.693" y="175.71"/>
      <point x="257.488" y="169.976"/>
      <point x="301.128" y="169.976" type="curve" smooth="yes"/>
      <point x="461.607" y="169.976"/>
      <point x="570" y="247.521"/>
      <point x="570" y="370.531" type="curve" smooth="yes"/>
      <point x="570" y="473.476"/>
      <point x="494.042" y="518"/>
      <point x="310.687" y="518" type="curve" smooth="yes"/>
      <point x="256.367" y="518" type="line"/>
      <point x="234.742" y="438.842" type="line"/>
      <point x="276.714" y="438.842" type="line"/>
      <point x="279.854" y="450.218" type="line" smooth="yes"/>
      <point x="287.661" y="478.505"/>
      <point x="299.193" y="488"/>
      <point x="342.475" y="488" type="curve" smooth="yes"/>
      <point x="424.455" y="488"/>
      <point x="465" y="453.936"/>
      <point x="465" y="372.067" type="curve" smooth="yes"/>
      <point x="465" y="265.849"/>
      <point x="396.65" y="206"/>
      <point x="283.257" y="206" type="curve" smooth="yes"/>
      <point x="249.726" y="206"/>
      <point x="223.039" y="211.233"/>
      <point x="202.625" y="220.499" type="curve"/>
    </contour>
    <contour>
      <point x="81.9279" y="90.0075" type="line" name=".sk1"/>
      <point x="77.9848" y="75.89" type="line" smooth="yes"/>
      <point x="67.2048" y="37.47"/>
      <point x="31.1847" y="25.12"/>
      <point x="-20.0452" y="16" type="curve"/>
      <point x="-20.0452" y="0" type="line"/>
      <point x="246.955" y="0" type="line"/>
      <point x="246.955" y="16" type="line"/>
      <point x="186.605" y="25.02"/>
      <point x="174.955" y="31.11"/>
      <point x="174.955" y="59.85" type="curve" smooth="yes"/>
      <point x="174.955" y="66.83"/>
      <point x="175.645" y="74.83"/>
      <point x="177.595" y="81.83" type="curve" smooth="yes"/>
      <point x="179.921" y="89.9843" type="line"/>
      <point x="311.268" y="563.381" type="line" name=".sk2"/>
      <point x="316.404" y="576.45" type="line"/>
      <point x="326.968" y="614.647"/>
      <point x="353.454" y="628.46"/>
      <point x="415.134" y="637" type="curve"/>
      <point x="415.134" y="653" type="line"/>
      <point x="148.134" y="653" type="line"/>
      <point x="148.134" y="637" type="line"/>
      <point x="206.134" y="628.01"/>
      <point x="220.454" y="620.16"/>
      <point x="220.454" y="592.26" type="curve" smooth="yes"/>
      <point x="220.454" y="586.42"/>
      <point x="219.657" y="580.506"/>
      <point x="217.314" y="572.14" type="curve"/>
      <point x="215.133" y="562.894" type="line" name=".sk3"/>
    </contour>
  </outline>
</glyph>
<glyph name="ae" format="2">
  <advance width="666"/>
  <unicode hex="00E6"/>
  <anchor x="435.851" y="492" name="top"/>
  <outline>
    <contour>
      <point x="23" y="96.8303" type="curve" smooth="yes"/>
      <point x="23" y="28.0833"/>
      <point x="57.1133" y="-11"/>
      <point x="114.059" y="-11" type="curve" smooth="yes"/>
      <point x="170.627" y="-11"/>
      <point x="217.701" y="27.5666"/>
      <point x="302.961" y="152.007" type="curve"/>
      <point x="304.739" y="151.182" type="line"/>
      <point x="299.672" y="134.6"/>
      <point x="298" y="124.725"/>
      <point x="298" y="110.736" type="curve" smooth="yes"/>
      <point x="298" y="39.5872"/>
      <point x="341.256" y="-11"/>
      <point x="405.332" y="-11" type="curve" smooth="yes"/>
      <point x="465.696" y="-11"/>
      <point x="541.728" y="32.6691"/>
      <point x="598" y="101.329" type="curve"/>
      <point x="588" y="113.393" type="line"/>
      <point x="529.848" y="57.9047"/>
      <point x="489.636" y="36"/>
      <point x="450.094" y="36" type="curve" smooth="yes"/>
      <point x="400.129" y="36"/>
      <point x="376" y="70.9831"/>
      <point x="376" y="141.295" type="curve" smooth="yes"/>
      <point x="376" y="157.5"/>
      <point x="377.282" y="167.325"/>
      <point x="384" y="198.843" type="curve"/>
      <point x="559.4" y="244.934"/>
      <point x="640" y="299.691"/>
      <point x="640" y="371.484" type="curve" smooth="yes"/>
      <point x="640" y="416.095"/>
      <point x="608.879" y="441"/>
      <point x="560.328" y="441" type="curve" smooth="yes"/>
      <point x="517.896" y="441"/>
      <point x="483.883" y="421.976"/>
      <point x="437.843" y="378.252" type="curve"/>
      <point x="435.839" y="380.287" type="line"/>
      <point x="460" y="442" type="line"/>
      <point x="388" y="436.8" type="line"/>
      <point x="370.962" y="396.44" type="line"/>
      <point x="368.2" y="395.883" type="line"/>
      <point x="353.74" y="429.022"/>
      <point x="338.359" y="441"/>
      <point x="306.886" y="441" type="curve" smooth="yes"/>
      <point x="178.714" y="441"/>
      <point x="23" y="242.344"/>
    </contour>
    <contour>
      <point x="107" y="100.485" type="curve" smooth="yes"/>
      <point x="107" y="227.817"/>
      <point x="224.393" y="420"/>
      <point x="305.421" y="420" type="curve" smooth="yes"/>
      <point x="330.662" y="420"/>
      <point x="350.65" y="402.418"/>
      <point x="350.65" y="354.602" type="curve" smooth="yes"/>
      <point x="350.65" y="237.306"/>
      <point x="227.155" y="39"/>
      <point x="145.453" y="39" type="curve" smooth="yes"/>
      <point x="118.88" y="39"/>
      <point x="107" y="59.9784"/>
    </contour>
    <contour>
      <point x="390" y="223.976" type="curve"/>
      <point x="419.213" y="332.74"/>
      <point x="484.688" y="418"/>
      <point x="540.235" y="418" type="curve" smooth="yes"/>
      <point x="561.851" y="418"/>
      <point x="574" y="405.089"/>
      <point x="574" y="375.703" type="curve" smooth="yes"/>
      <point x="574" y="310.561"/>
      <point x="514.303" y="259.68"/>
    </contour>
  </outline>
</glyph>
<glyph name="eth" format="2">
  <advance width="500"/>
  <unicode hex="00F0"/>
  <outline>
    <contour>
      <point x="27" y="129" type="curve" smooth="yes"/>
      <point x="27" y="43"/>
      <point x="83" y="-11"/>
      <point x="174" y="-11" type="curve" smooth="yes"/>
      <point x="331" y="-11"/>
      <point x="467" y="161"/>
      <point x="467" y="359" type="curve" smooth="yes"/>
      <point x="467" y="505.438"/>
      <point x="378.045" y="649.879"/>
      <point x="229" y="683" type="curve"/>
      <point x="194" y="666" type="line"/>
      <point x="309.641" y="619.193"/>
      <point x="378.468" y="513.969"/>
      <point x="396" y="393" type="curve"/>
      <point x="394" y="392" type="line"/>
      <point x="377" y="424"/>
      <point x="348" y="441"/>
      <point x="310" y="441" type="curve" smooth="yes"/>
      <point x="173" y="441"/>
      <point x="27" y="280"/>
    </contour>
    <contour>
      <point x="111" y="101" type="curve" smooth="yes"/>
      <point x="111" y="198.044"/>
      <point x="191.614" y="420"/>
      <point x="313" y="420" type="curve" smooth="yes"/>
      <point x="356" y="420"/>
      <point x="384" y="383"/>
      <point x="384" y="326" type="curve" smooth="yes"/>
      <point x="384" y="230.031"/>
      <point x="311.191" y="10"/>
      <point x="189" y="10" type="curve" smooth="yes"/>
      <point x="142" y="10"/>
      <point x="111" y="47"/>
    </contour>
    <contour>
      <point x="207" y="516" type="line"/>
      <point x="482" y="637" type="line"/>
      <point x="450" y="665" type="line"/>
      <point x="174" y="545" type="line"/>
    </contour>
  </outline>
</glyph>
